<svg id="eol9s3GqjPE1" xmlns="http://www.w3.org/2000/svg" xmlns:xlink="http://www.w3.org/1999/xlink" viewBox="0 0 1024 1024" shape-rendering="geometricPrecision" text-rendering="geometricPrecision"><g><path d="M387.77,565.15c4.59,17.51,12.19,29.21,29.74,35.78q9.43,3.54,19.36,5.45.71.14,1.02.79q13.7,28.19,22.67,56.09q8.98,27.96,10.27,55.6c.01071.240854.213556.430471.46.43l45.17-.18c.300361-.000849.568622-.193036.67-.48q6.51-17.88,13.57-34.92q13.24-32,32.3-60.65c.114492-.175185.149389-.390543.095831-.591386s-.19042-.36785-.375831-.458614q-.43-.21-.87-.04-37.9,14.73-76.17,28.86c-2.89,1.06-5.9,1.79-8.64,3.05-.124482.055428-.266534.055303-.389335-.000341s-.214259-.161329-.250665-.289659q-3.76-12.25-5.56-24.8-.21-1.47-.04-2.91.06-.54.57-.73q11.1-4.13,25.75-9.33c28.13-9.97,56.62-23.19,83.05-39.65q1.07-.66,1.67-1.25c.327256-.318296.463572-.784924.359126-1.229334s-.434348-.801466-.869126-.940666c-1.35-.42-3.33-.33-4.69.05q-22.36,6.33-40.64,10.68-44.75,10.65-92.1,9.48c-16.12-.4-30.76-1.52-41.3-15.13-9.45-12.21-14.88-27.02-18.07-41.91q-6.37-29.72-6.85-61.35c-.27-18.04,4.91-33.02,13.97-48.16c1.64-2.74,2.86-5.85,4.32-8.78q.27-.55.78-.21q4.79,3.1,12.51,4.42q1.36.23,2.46-.31c1.94-.97,1.16-3.14-.51-3.82q-4.28-1.71-7.86-4.72c-.357442-.298168-.464817-.802007-.26-1.22q1.7-3.49,4.6-5.7c.151539-.119926.353883-.153308.537623-.088696s.323891.218432.372377.408696c.41,1.64.45,3.28,1.17,4.83c4.5,9.69,13.62,7.39,21.38,3.38q.62-.32,1.37-.25c.212663.019558.402824.140918.508653.324621s.11381.406287.021347.595379c-1.74,3.61-6.92,5.46-10.33,7.12q-2.27,1.11-1.87,3.6.07.47.54.6q2.11.57,4.29.29.81-.1.38.6-7.89,12.63-16.27,26.09c-1.8,2.9-3.89,7.97-1.13,11.01q9.66,10.63,18.75,21.7q1.9,2.31,4.6,1.46q3.85-1.2,7.66-3.26c.739967-.399772,1.068998-1.288584.77-2.08-.61-1.63-1.83-3.01-3.46-3.65q-4.24-1.69-6.17-3.86-6.81-7.67-13.2-16.13c-.408565-.538071-.496363-1.255721-.23-1.88c2.52-5.95,6.25-11.25,9.36-16.94q7.28-13.35,14.67-26.99q3.34-6.16,6.21-12.45q2.43-5.31,1.6-9.44c-1.81-9-7.98-16.91-17.1-18.98q-18.02-4.07-36.52.88c-.098218.025027-.202433-.001232-.277064-.069812s-.109589-.170209-.092936-.270188q.8-5.71,2.39-11.18c5.7-19.65,13.76-38.26,25.92-54.53q11.93-15.96,30.11-24.73q13.04-6.3,26.17-10.86c3.82-1.33,8.78-3.36,11.04-6.67c2.34-3.41,4.05-5.61,8.35-7.11q10.03-3.5,19.13-4.75c26-3.56,53.6.15,77.27,12.2q27.52,14.02,47.25,35.92q31.68,35.19,45.99,82.42c1.17,3.86,1.51,7.88,2.8,11.68.050792.158716.005306.332489-.116734.445965s-.298658.146221-.453266.084035c-3.31-1.35-6.71-2.72-10.18-3.35q-3.46-.63-7.02-1.23c-.392015-.06773-.710386-.351158-.82-.73-6.92-24.54-17.67-47.9-32.57-67.89q-24.1-32.34-57.12-48.88-29.45-14.76-62.06-12.69c-4.61.29-10.05.95-14.22,2.57q-7.77,3.01-4.24,11.01c4.3,9.74,16.1,14.03,25.55,18.18q6.56,2.87,14.76,8.73q9.39,6.7,18.75,14.01q10.32,8.06,25.82,13.14q16.87,5.55,41.03,9.63c3.26.55,7.11,3.66,5.18,7.47-1.72,3.38-4.86,2.82-7.8,1.98-12.31-3.53-24.4-5.36-36.64-8.28q-10.47-2.5-20-8.01-.66-.39-.7.38-.55,11.16,1.33,22.67q4.82,29.44,28.67,46.98q6.13,4.51,13.97,8.71q1.22.65.06,1.41c-13.96,9.15-22.96,24.86-24.8,41.52-3.37,30.36,4.14,59.78,19.74,86.7c1.07,1.84,1.28,3.55,1.32,5.65q.4,26.37,2.61,57.8q3.06,43.62,15.52,84.19q4.94,16.08,11.73,31.5.25.57.87.56l59.88-.15q1.68,0,.21-.8-38.86-20.95-54.95-63.47-6.07-16.03-7.5-33.58c-2.28-27.87,15.7-45.12,40.83-51.4q11.46-2.86,20.56-5.83c20.68-6.74,32.62-19.33,41.3-39.69.503175-1.18242,1.332391-2.19552,2.39-2.92q3.75-2.58,7.56-5.31c20.03-14.39,35-38.27,35.96-63.48c1.18-31.12-22.62-53-52.81-55.22-.551157-.041267-.993697-.475377-1.05-1.03q-1.29-12.58-3.69-23.79-12.65-59.21-61.91-92.63-34.04-23.09-72.5-31.23-32.99-6.99-63.17-5.63-39.98,1.8-75.23,21.95-37.18,21.25-55.75,60.67-6.48,13.75-10.23,27.52-.26.95-1.25.95-86.1-.14-167.02-.17-1.6,0-3.23-.24-2.3-.35-.34-1.59q2.22-1.41,5.52-2.97q49.18-23.18,99.05-46.62q23.15-10.87,46.97-22.04q36.73-17.23,72.49-34.13c22.31-10.55,44.89-20.67,67.11-31c8.32-3.86,16.82-7.36,24.99-11.44.749786-.377257,1.634297-.380957,2.39-.01q6.37,3.16,13.02,6.05Q595.55,230.1,636.35,249q38.05,17.63,74.93,34.64q61.75,28.47,130.95,59.9q11.8,5.36,20.41,9.06.68.29.9.67.5.86-.5.85l-122.49-.09c-.25837-.001453-.503036.116117-.661819.318026s-.213564.465117-.148181.711974q3.99,15.54,4.82,31.26c.015848.24779.221704.440506.47.44h190.98c.149117,0,.27-.120883.27-.27l-.06-35c-.006143-.311267-.173032-.595738-.44-.75q-2.38-1.36-4.99-2.54-94.8-42.97-189.28-86.21-9.22-4.22-18.18-8.37-89.88-41.57-185.43-84.67c-1.48-.67-2.49-1.5-4.16-.73q-75.02,34.42-178.37,82.83-75.47,35.34-170.47,79.57c-14.59,6.79-29.55,13.45-44.27,20.58-.50046.243453-.815831.753497-.81,1.31l.3,33.81c0,.254051.210426.46.47.46q117.6-.02,234.9-.01c2.03,0,4.02.37,6.05.17q.84-.08.61.73-2.67,9.06-5.78,18.75-.72,2.25-2.53,3.84-24.94,22.01-26.72,56.22c-.015819.337862-.291803.605085-.63.61l-17.68.19c-.177058-.000344-.336415.104579-.407507.268305s-.040782.356006.077507.491695l20.96,23.72c.225798.258181.350174.59222.35.94q.17,102.84.13,202.53q0,1.59-1.15,2.76-10.37,10.56-19.66,20.28-.91.96.41.96l63.67-.07q.52,0,.55-.52.31-7.11.04-14.27c-.13-3.65-2.7-4.75-5.13-6.74q-.41-.33-.53-.85-.5-2.28-.5-4.53.01-45.42-.04-97.25-.01-12.29-.14-29.81-.01-1.32.33-.04" fill="none" stroke="#8e8d8e" stroke-width="2"/><path d="M549.84,382.97c5,1.77,9.25,4.82,14.21,6.77.502707.197688,1.065978.170826,1.547592-.073803s.835537-.683644.972408-1.206197q1.21-4.64-2.4-7.41c-11.46-8.81-23.98-12.13-37.84-12.92q-12.5-.72-23.06-.7c-10.49.02-20.97,2.49-23.6,14.21-.039221.178738.013023.365277.139373.497644s.310259.193225.490627.162356q19.01-3.29,38.29-3.96q16.61-.58,31.25,4.63" fill="none" stroke="#8e8d8e" stroke-width="2"/><path d="M546.47,394.14c-16.19-11.26-40.58-12.03-55.88,2.22q-2.66,2.48.7,5.11.94.73,1.92.06c8.45-5.78,16.55-9.35,27.2-9q13.46.45,24.7,8.9q3.91,2.94,7.86,6.14c2,1.63,5.49,2.78,6.77-.61.287977-.747534.129138-1.592096-.41-2.18-3.7-4.08-8.33-7.49-12.86-10.64" fill="none" stroke="#8e8d8e" stroke-width="2"/><path d="M511.36,404.37c.19,2.79.21,5.77,1.7,8.17c3.62,5.83,10.62,6.97,16.98,5.11q4.6-1.35,6.66-5.49.28-.56.89-.47q1.99.27,3.61,1.85.49.48-.03.92c-9.43,7.91-20.29,8.46-31.26,3.85q-2.06-.87-2.95,1.18l-.24.55q-.93,2.17,1.28,3.02q18.95,7.29,35.97-3.54q3.89-2.48,6.59-5.49q1.4-1.56.11-3.13c-10.68-13.02-33.55-19.53-48.33-9.68q-5.32,3.56-9.61,7.56-1.21,1.12-.07,2.31l1.02,1.07c.667075.706597,1.749743.821233,2.55.27q7.33-5.04,14.49-8.43.59-.28.64.37" fill="none" stroke="#8e8d8e" stroke-width="2"/><path d="M345.68,447.74c1.31-16.62,8.44-31.36,21.9-41.1q.59-.42-.14-.42l-198.67.04c-.183763.001006-.355338.092106-.459107.243769s-.126526.344586-.060893.516231q7.86,20.29,11.78,40.62.1.49.6.52q4.05.22,7.88.22q78.22.14,156.52-.03.6,0,.65-.61" fill="none" stroke="#8e8d8e" stroke-width="2"/><path d="M900.63,409.49q.5-1.34.84-2.71.15-.56-.43-.56-56.5.03-113.69.06-1.94,0-3.92.25c-.25441.031539-.468521.205483-.5515.448039s-.02028.511199.1615.691961q16.64,16.41,18.7,40.16.05.56.61.56l86.77.01q.25,0,.29-.24q3.87-19.03,11.22-38.67" fill="none" stroke="#8e8d8e" stroke-width="2"/><path d="M449.41,476.76c5.29,2.17,10.57,5.73,16.68,5.8c1.43.01,2.2-1.34,2.53-2.55c1.52-5.6-1.9-6.38-5.77-7.84q-8.5-3.2-16.02-5.65c-3.03-.98-8.28-1.42-11.07.44-2.26,1.51-1.74,5.11.33,6.45q1.13.72,3.71,1.05q5.82.75,9.61,2.3" fill="none" stroke="#8e8d8e" stroke-width="2"/><path d="M242.24,695.93q-.34-1.12-.34-2.11-.25-89.28-.04-188.81.01-5.65.13-11.86c.019464-.875504.361702-1.709709.96-2.34q10-10.57,19.73-21.89.55-.64.9-1.44c.037133-.086911.027916-.186689-.024509-.265327s-.140984-.125523-.235491-.124673l-57.33.22q-1.15,0-1.15,1.16.25,108.42.13,244.28q0,3.04.05,5.56.01.92.93.92l57.22-.04c.102337-.00365.193802-.064878.236176-.158102s.028364-.202395-.036176-.281898c-6.06-7.28-13.03-13.87-20-20.93-.525369-.532134-.913096-1.180632-1.13-1.89" fill="none" stroke="#8e8d8e" stroke-width="2"/><path d="M827.98,698.01c-2.36,1.7-5.86,4.32-5.97,7.26q-.24,5.9.04,13.36.02.52.54.52l42.6-.08q1.06,0,1.06-1.06l.11-250.24q0-.58-.59-.58l-55.22.02q-.48,0-.5.48-.09,2.08,1.32,3.71q8.77,10.16,17.67,20.23.32.35.37.82.27,2.29.26,4.74-.2,46.8-.12,94.56.09,48.43-.04,101c-.01,1.78.05,4.12-1.53,5.26" fill="none" stroke="#8e8d8e" stroke-width="2"/><path d="M461.58,506.47q-6.27-3.07-11.78-4.88c-5.69-1.87-11.11,1.14-15.72,4.1-.698189.445114-1.57955.483268-2.31.1-3.62-1.89-8.24-5.12-12.51-3.09q-5.5,2.63-10.21,6.57c-2.67,2.23-.91,10.26,3.88,8.06c3.79-1.75,8.23-3.01,12.29-1.75c3.87,1.21,8.06,2.74,11.96.97c5.56-2.51,12.99-1.8,18.82-.36q12.17,3,24.82,5.85q3.67.83,3.08-2.9-.07-.48-.19-.96-.74-2.93-3.57-4.02-13.27-5.1-18.56-7.69" fill="none" stroke="#8e8d8e" stroke-width="2"/><path d="M420.2,533.87q13.89,3.64,30.43.54q3.88-.73,5.35-3.87c1.14-2.43-.65-4.76-3.02-4.61q-16.14,1.03-30.71-.14-2.88-.23-5.71.21-.49.07-.67.54-2.13,5.63,4.33,7.33" transform="translate(0 0.000001)" fill="none" stroke="#8e8d8e" stroke-width="2"/><path d="M713.33,697.67c-2.43,1.21-5.9,2.77-6.07,5.95q-.39,7.44-.07,14.75.03.84.87.84l49.91-.12q.69,0,.74-.69.48-6.8.11-14.08c-.15-2.97-2.08-4.53-4.27-6.1-1.23-.88-1.36-2-1.36-3.39q-.01-76.56.03-160.18c.000045-.081328-.032931-.15919-.091374-.215747s-.137343-.086964-.218626-.084253l-.27.01q-.17,0-.19.16-.53,3.44-2.16,6.94-8.58,18.32-23.67,27.77-4.98,3.12-11.51,5.98-.67.29-.67,1.03.09,57.95-.01,115q0,3.17-.54,5.71-.11.49-.56.72" fill="none" stroke="#8e8d8e" stroke-width="2"/><path d="M188.59,743.74c-10.21,3.53-17.42,11.71-18.24,22.52q-.64,8.37.38,17.47.06.5.56.59q5.32.96,11.91.96q347.67-.08,695.32,0q10.91,0,19.93-.52.54-.03.6-.56q1.09-9.2.6-17.25c-.93-14.92-13.9-24.77-28.38-24.77q-333.09.05-671.64-.05-6.39,0-11.04,1.61" fill="none" stroke="#8e8d8e" stroke-width="2"/><path d="M923.05,798.17q-9.2-3.17-17.12,2.83-2.56,1.94-4.74,3.82c-4.88,4.2-9.39,5.12-16.44,5.11q-347.97-.07-695.93.01c-8.59.01-13.99.06-19.83-5.12-7.18-6.39-14.7-10.87-24.3-5.63-11.55,6.31-9.54,20.88.21,27.64c6.94,4.8,14.29,4.75,22.65,4.75q334.29-.08,678.18.01q30.14,0,62.77-.26q5.98-.04,10.56-1.67c9.38-3.33,17.11-12.49,13.13-22.66q-2.57-6.57-9.14-8.83" fill="none" stroke="#8e8d8e" stroke-width="2"/><path d="M144.61,851.77q-2.5-.93-3.86-2c-7.19-5.66-13-11.53-23.12-8.01-9.93,3.45-13.13,14.59-7.94,23.28c3.78,6.32,11.18,9.33,18.56,9.45q12.55.2,25.73.2q391.17.06,784.75.02c5.98,0,11.68-.97,16.56-4.87c6.34-5.07,8.74-14.08,4.54-21.32-5.42-9.35-17.37-10.23-25.39-3.61q-2.74,2.27-5.44,4.7c-3.71,3.33-9.57,3.87-14.28,3.87q-379.14-.01-759.97,0-5.58,0-10.14-1.71" fill="none" stroke="#8e8d8e" stroke-width="2"/><path d="M396.53,401.66c-.44-1.34-.48-2.9.32-4.07c7.82-11.35,24.53-9.34,35.21-3.65q1.83.97,3.37,1.74q4,1.99.82-1.16-15.63-15.45-37.99-11.3-1.75.33-4.29,1.49c-2.07.95-2.66,2.14-2.61,4.31q.22,9.3,3.81,18.5c.042186.117217.146148.200475.271135.21714s.251084-.035919.328865-.13714c1.38-1.8,2.67-3.76,4.67-4.97c6.48-3.88,13.09-5.26,20.36-5.68q.33-.02.48-.32c.04935-.092822.054365-.202911.013656-.299836s-.122826-.170417-.223656-.200164c-8.59-2.61-16.9-.1-23.59,5.78q-.67.59-.95-.25" fill="none" stroke="#8e8d8e" stroke-width="2"/></g><path d="M0,0h1024v1024h-1024L0,0ZM387.77,565.15c4.59,17.51,12.19,29.21,29.74,35.78q9.43,3.54,19.36,5.45.71.14,1.02.79q13.7,28.19,22.67,56.09q8.98,27.96,10.27,55.6c.01071.240854.213556.430471.46.43l45.17-.18c.300361-.000849.568622-.193036.67-.48q6.51-17.88,13.57-34.92q13.24-32,32.3-60.65c.114492-.175185.149389-.390543.095831-.591386s-.19042-.36785-.375831-.458614q-.43-.21-.87-.04-37.9,14.73-76.17,28.86c-2.89,1.06-5.9,1.79-8.64,3.05-.124482.055428-.266534.055303-.389335-.000341s-.214259-.161329-.250665-.289659q-3.76-12.25-5.56-24.8-.21-1.47-.04-2.91.06-.54.57-.73q11.1-4.13,25.75-9.33c28.13-9.97,56.62-23.19,83.05-39.65q1.07-.66,1.67-1.25c.327256-.318296.463572-.784924.359126-1.229334s-.434348-.801466-.869126-.940666c-1.35-.42-3.33-.33-4.69.05q-22.36,6.33-40.64,10.68-44.75,10.65-92.1,9.48c-16.12-.4-30.76-1.52-41.3-15.13-9.45-12.21-14.88-27.02-18.07-41.91q-6.37-29.72-6.85-61.35c-.27-18.04,4.91-33.02,13.97-48.16c1.64-2.74,2.86-5.85,4.32-8.78q.27-.55.78-.21q4.79,3.1,12.51,4.42q1.36.23,2.46-.31c1.94-.97,1.16-3.14-.51-3.82q-4.28-1.71-7.86-4.72c-.357442-.298168-.464817-.802007-.26-1.22q1.7-3.49,4.6-5.7c.151539-.119926.353883-.153308.537623-.088696s.323891.218432.372377.408696c.41,1.64.45,3.28,1.17,4.83c4.5,9.69,13.62,7.39,21.38,3.38q.62-.32,1.37-.25c.212663.019558.402824.140918.508653.324621s.11381.406287.021347.595379c-1.74,3.61-6.92,5.46-10.33,7.12q-2.27,1.11-1.87,3.6.07.47.54.6q2.11.57,4.29.29.81-.1.38.6-7.89,12.63-16.27,26.09c-1.8,2.9-3.89,7.97-1.13,11.01q9.66,10.63,18.75,21.7q1.9,2.31,4.6,1.46q3.85-1.2,7.66-3.26c.739967-.399772,1.068998-1.288584.77-2.08-.61-1.63-1.83-3.01-3.46-3.65q-4.24-1.69-6.17-3.86-6.81-7.67-13.2-16.13c-.408565-.538071-.496363-1.255721-.23-1.88c2.52-5.95,6.25-11.25,9.36-16.94q7.28-13.35,14.67-26.99q3.34-6.16,6.21-12.45q2.43-5.31,1.6-9.44c-1.81-9-7.98-16.91-17.1-18.98q-18.02-4.07-36.52.88c-.098218.025027-.202433-.001232-.277064-.069812s-.109589-.170209-.092936-.270188q.8-5.71,2.39-11.18c5.7-19.65,13.76-38.26,25.92-54.53q11.93-15.96,30.11-24.73q13.04-6.3,26.17-10.86c3.82-1.33,8.78-3.36,11.04-6.67c2.34-3.41,4.05-5.61,8.35-7.11q10.03-3.5,19.13-4.75c26-3.56,53.6.15,77.27,12.2q27.52,14.02,47.25,35.92q31.68,35.19,45.99,82.42c1.17,3.86,1.51,7.88,2.8,11.68.050792.158716.005306.332489-.116734.445965s-.298658.146221-.453266.084035c-3.31-1.35-6.71-2.72-10.18-3.35q-3.46-.63-7.02-1.23c-.392015-.06773-.710386-.351158-.82-.73-6.92-24.54-17.67-47.9-32.57-67.89q-24.1-32.34-57.12-48.88-29.45-14.76-62.06-12.69c-4.61.29-10.05.95-14.22,2.57q-7.77,3.01-4.24,11.01c4.3,9.74,16.1,14.03,25.55,18.18q6.56,2.87,14.76,8.73q9.39,6.7,18.75,14.01q10.32,8.06,25.82,13.14q16.87,5.55,41.03,9.63c3.26.55,7.11,3.66,5.18,7.47-1.72,3.38-4.86,2.82-7.8,1.98-12.31-3.53-24.4-5.36-36.64-8.28q-10.47-2.5-20-8.01-.66-.39-.7.38-.55,11.16,1.33,22.67q4.82,29.44,28.67,46.98q6.13,4.51,13.97,8.71q1.22.65.06,1.41c-13.96,9.15-22.96,24.86-24.8,41.52-3.37,30.36,4.14,59.78,19.74,86.7c1.07,1.84,1.28,3.55,1.32,5.65q.4,26.37,2.61,57.8q3.06,43.62,15.52,84.19q4.94,16.08,11.73,31.5.25.57.87.56l59.88-.15q1.68,0,.21-.8-38.86-20.95-54.95-63.47-6.07-16.03-7.5-33.58c-2.28-27.87,15.7-45.12,40.83-51.4q11.46-2.86,20.56-5.83c20.68-6.74,32.62-19.33,41.3-39.69.503175-1.18242,1.332391-2.19552,2.39-2.92q3.75-2.58,7.56-5.31c20.03-14.39,35-38.27,35.96-63.48c1.18-31.12-22.62-53-52.81-55.22-.551157-.041267-.993697-.475377-1.05-1.03q-1.29-12.58-3.69-23.79-12.65-59.21-61.91-92.63-34.04-23.09-72.5-31.23-32.99-6.99-63.17-5.63-39.98,1.8-75.23,21.95-37.18,21.25-55.75,60.67-6.48,13.75-10.23,27.52-.26.95-1.25.95-86.1-.14-167.02-.17-1.6,0-3.23-.24-2.3-.35-.34-1.59q2.22-1.41,5.52-2.97q49.18-23.18,99.05-46.62q23.15-10.87,46.97-22.04q36.73-17.23,72.49-34.13c22.31-10.55,44.89-20.67,67.11-31c8.32-3.86,16.82-7.36,24.99-11.44.749786-.377257,1.634297-.380957,2.39-.01q6.37,3.16,13.02,6.05Q595.55,230.1,636.35,249q38.05,17.63,74.93,34.64q61.75,28.47,130.95,59.9q11.8,5.36,20.41,9.06.68.29.9.67.5.86-.5.85l-122.49-.09c-.25837-.001453-.503036.116117-.661819.318026s-.213564.465117-.148181.711974q3.99,15.54,4.82,31.26c.015848.24779.221704.440506.47.44h190.98c.149117,0,.27-.120883.27-.27l-.06-35c-.006143-.311267-.173032-.595738-.44-.75q-2.38-1.36-4.99-2.54-94.8-42.97-189.28-86.21-9.22-4.22-18.18-8.37-89.88-41.57-185.43-84.67c-1.48-.67-2.49-1.5-4.16-.73q-75.02,34.42-178.37,82.83-75.47,35.34-170.47,79.57c-14.59,6.79-29.55,13.45-44.27,20.58-.50046.243453-.815831.753497-.81,1.31l.3,33.81c0,.254051.210426.46.47.46q117.6-.02,234.9-.01c2.03,0,4.02.37,6.05.17q.84-.08.61.73-2.67,9.06-5.78,18.75-.72,2.25-2.53,3.84-24.94,22.01-26.72,56.22c-.015819.337862-.291803.605085-.63.61l-17.68.19c-.177058-.000344-.336415.104579-.407507.268305s-.040782.356006.077507.491695l20.96,23.72c.225798.258181.350174.59222.35.94q.17,102.84.13,202.53q0,1.59-1.15,2.76-10.37,10.56-19.66,20.28-.91.96.41.96l63.67-.07q.52,0,.55-.52.31-7.11.04-14.27c-.13-3.65-2.7-4.75-5.13-6.74q-.41-.33-.53-.85-.5-2.28-.5-4.53.01-45.42-.04-97.25-.01-12.29-.14-29.81-.01-1.32.33-.04ZM549.84,382.97c5,1.77,9.25,4.82,14.21,6.77.502707.197688,1.065978.170826,1.547592-.073803s.835537-.683644.972408-1.206197q1.21-4.64-2.4-7.41c-11.46-8.81-23.98-12.13-37.84-12.92q-12.5-.72-23.06-.7c-10.49.02-20.97,2.49-23.6,14.21-.039221.178738.013023.365277.139373.497644s.310259.193225.490627.162356q19.01-3.29,38.29-3.96q16.61-.58,31.25,4.63Zm-3.37,11.17c-16.19-11.26-40.58-12.03-55.88,2.22q-2.66,2.48.7,5.11.94.73,1.92.06c8.45-5.78,16.55-9.35,27.2-9q13.46.45,24.7,8.9q3.91,2.94,7.86,6.14c2,1.63,5.49,2.78,6.77-.61.287977-.747534.129138-1.592096-.41-2.18-3.7-4.08-8.33-7.49-12.86-10.64Zm-35.11,10.23c.19,2.79.21,5.77,1.7,8.17c3.62,5.83,10.62,6.97,16.98,5.11q4.6-1.35,6.66-5.49.28-.56.89-.47q1.99.27,3.61,1.85.49.48-.03.92c-9.43,7.91-20.29,8.46-31.26,3.85q-2.06-.87-2.95,1.18l-.24.55q-.93,2.17,1.28,3.02q18.95,7.29,35.97-3.54q3.89-2.48,6.59-5.49q1.4-1.56.11-3.13c-10.68-13.02-33.55-19.53-48.33-9.68q-5.32,3.56-9.61,7.56-1.21,1.12-.07,2.31l1.02,1.07c.667075.706597,1.749743.821233,2.55.27q7.33-5.04,14.49-8.43.59-.28.64.37ZM345.68,447.74c1.31-16.62,8.44-31.36,21.9-41.1q.59-.42-.14-.42l-198.67.04c-.183763.001006-.355338.092106-.459107.243769s-.126526.344586-.060893.516231q7.86,20.29,11.78,40.62.1.49.6.52q4.05.22,7.88.22q78.22.14,156.52-.03.6,0,.65-.61Zm554.95-38.25q.5-1.34.84-2.71.15-.56-.43-.56-56.5.03-113.69.06-1.94,0-3.92.25c-.25441.031539-.468521.205483-.5515.448039s-.02028.511199.1615.691961q16.64,16.41,18.7,40.16.05.56.61.56l86.77.01q.25,0,.29-.24q3.87-19.03,11.22-38.67ZM449.41,476.76c5.29,2.17,10.57,5.73,16.68,5.8c1.43.01,2.2-1.34,2.53-2.55c1.52-5.6-1.9-6.38-5.77-7.84q-8.5-3.2-16.02-5.65c-3.03-.98-8.28-1.42-11.07.44-2.26,1.51-1.74,5.11.33,6.45q1.13.72,3.71,1.05q5.82.75,9.61,2.3ZM242.24,695.93q-.34-1.12-.34-2.11-.25-89.28-.04-188.81.01-5.65.13-11.86c.019464-.875504.361702-1.709709.96-2.34q10-10.57,19.73-21.89.55-.64.9-1.44c.037133-.086911.027916-.186689-.024509-.265327s-.140984-.125523-.235491-.124673l-57.33.22q-1.15,0-1.15,1.16.25,108.42.13,244.28q0,3.04.05,5.56.01.92.93.92l57.22-.04c.102337-.00365.193802-.064878.236176-.158102s.028364-.202395-.036176-.281898c-6.06-7.28-13.03-13.87-20-20.93-.525369-.532134-.913096-1.180632-1.13-1.89Zm585.74,2.08c-2.36,1.7-5.86,4.32-5.97,7.26q-.24,5.9.04,13.36.02.52.54.52l42.6-.08q1.06,0,1.06-1.06l.11-250.24q0-.58-.59-.58l-55.22.02q-.48,0-.5.48-.09,2.08,1.32,3.71q8.77,10.16,17.67,20.23.32.35.37.82.27,2.29.26,4.74-.2,46.8-.12,94.56.09,48.43-.04,101c-.01,1.78.05,4.12-1.53,5.26ZM461.58,506.47q-6.27-3.07-11.78-4.88c-5.69-1.87-11.11,1.14-15.72,4.1-.698189.445114-1.57955.483268-2.31.1-3.62-1.89-8.24-5.12-12.51-3.09q-5.5,2.63-10.21,6.57c-2.67,2.23-.91,10.26,3.88,8.06c3.79-1.75,8.23-3.01,12.29-1.75c3.87,1.21,8.06,2.74,11.96.97c5.56-2.51,12.99-1.8,18.82-.36q12.17,3,24.82,5.85q3.67.83,3.08-2.9-.07-.48-.19-.96-.74-2.93-3.57-4.02-13.27-5.1-18.56-7.69Zm-41.38,27.4q13.89,3.64,30.43.54q3.88-.73,5.35-3.87c1.14-2.43-.65-4.76-3.02-4.61q-16.14,1.03-30.71-.14-2.88-.23-5.71.21-.49.07-.67.54-2.13,5.63,4.33,7.33Zm293.13,163.8c-2.43,1.21-5.9,2.77-6.07,5.95q-.39,7.44-.07,14.75.03.84.87.84l49.91-.12q.69,0,.74-.69.48-6.8.11-14.08c-.15-2.97-2.08-4.53-4.27-6.1-1.23-.88-1.36-2-1.36-3.39q-.01-76.56.03-160.18c.000045-.081328-.032931-.15919-.091374-.215747s-.137343-.086964-.218626-.084253l-.27.01q-.17,0-.19.16-.53,3.44-2.16,6.94-8.58,18.32-23.67,27.77-4.98,3.12-11.51,5.98-.67.29-.67,1.03.09,57.95-.01,115q0,3.17-.54,5.71-.11.49-.56.72ZM188.59,743.74c-10.21,3.53-17.42,11.71-18.24,22.52q-.64,8.37.38,17.47.06.5.56.59q5.32.96,11.91.96q347.67-.08,695.32,0q10.91,0,19.93-.52.54-.03.6-.56q1.09-9.2.6-17.25c-.93-14.92-13.9-24.77-28.38-24.77q-333.09.05-671.64-.05-6.39,0-11.04,1.61Zm734.46,54.43q-9.2-3.17-17.12,2.83-2.56,1.94-4.74,3.82c-4.88,4.2-9.39,5.12-16.44,5.11q-347.97-.07-695.93.01c-8.59.01-13.99.06-19.83-5.12-7.18-6.39-14.7-10.87-24.3-5.63-11.55,6.31-9.54,20.88.21,27.64c6.94,4.8,14.29,4.75,22.65,4.75q334.29-.08,678.18.01q30.14,0,62.77-.26q5.98-.04,10.56-1.67c9.38-3.33,17.11-12.49,13.13-22.66q-2.57-6.57-9.14-8.83Zm-778.44,53.6q-2.5-.93-3.86-2c-7.19-5.66-13-11.53-23.12-8.01-9.93,3.45-13.13,14.59-7.94,23.28c3.78,6.32,11.18,9.33,18.56,9.45q12.55.2,25.73.2q391.17.06,784.75.02c5.98,0,11.68-.97,16.56-4.87c6.34-5.07,8.74-14.08,4.54-21.32-5.42-9.35-17.37-10.23-25.39-3.61q-2.74,2.27-5.44,4.7c-3.71,3.33-9.57,3.87-14.28,3.87q-379.14-.01-759.97,0-5.58,0-10.14-1.71Z" fill="#f8f8f8"/><path d="M387.77,565.15q-.34-1.28-.33.04.13,17.52.14,29.81.05,51.83.04,97.25q0,2.25.5,4.53.12.52.53.85c2.43,1.99,5,3.09,5.13,6.74q.27,7.16-.04,14.27-.03.52-.55.52l-63.67.07q-1.32,0-.41-.96q9.29-9.72,19.66-20.28q1.15-1.17,1.15-2.76.04-99.69-.13-202.53c.000174-.34778-.124202-.681819-.35-.94l-20.96-23.72c-.118289-.135689-.148599-.327969-.077507-.491695s.230449-.268649.407507-.268305l17.68-.19c.338197-.004915.614181-.272138.63-.61q1.78-34.21,26.72-56.22q1.81-1.59,2.53-3.84q3.11-9.69,5.78-18.75.23-.81-.61-.73c-2.03.2-4.02-.17-6.05-.17q-117.3-.01-234.9.01c-.259574,0-.47-.205949-.47-.46l-.3-33.81c-.005831-.556503.30954-1.066547.81-1.31c14.72-7.13,29.68-13.79,44.27-20.58q95-44.23,170.47-79.57q103.35-48.41,178.37-82.83c1.67-.77,2.68.06,4.16.73q95.55,43.1,185.43,84.67q8.96,4.15,18.18,8.37q94.48,43.24,189.28,86.21q2.61,1.18,4.99,2.54c.266968.154262.433857.438733.44.75l.06,35c0,.149117-.120883.27-.27.27h-190.98c-.248296.000506-.454152-.19221-.47-.44q-.83-15.72-4.82-31.26c-.065383-.246857-.010602-.510065.148181-.711974s.403449-.319479.661819-.318026l122.49.09q1,.01.5-.85-.22-.38-.9-.67-8.61-3.7-20.41-9.06-69.2-31.43-130.95-59.9Q674.4,266.63,636.35,249q-40.8-18.9-86.93-38.96-6.65-2.89-13.02-6.05c-.755703-.370957-1.640214-.367257-2.39.01-8.17,4.08-16.67,7.58-24.99,11.44-22.22,10.33-44.8,20.45-67.11,31q-35.76,16.9-72.49,34.13-23.82,11.17-46.97,22.04-49.87,23.44-99.05,46.62-3.3,1.56-5.52,2.97-1.96,1.24.34,1.59q1.63.24,3.23.24q80.92.03,167.02.17.99,0,1.25-.95q3.75-13.77,10.23-27.52q18.57-39.42,55.75-60.67q35.25-20.15,75.23-21.95q30.18-1.36,63.17,5.63q38.46,8.14,72.5,31.23q49.26,33.42,61.91,92.63q2.4,11.21,3.69,23.79c.056303.554623.498843.988733,1.05,1.03c30.19,2.22,53.99,24.1,52.81,55.22-.96,25.21-15.93,49.09-35.96,63.48q-3.81,2.73-7.56,5.31c-1.057609.72448-1.886825,1.73758-2.39,2.92-8.68,20.36-20.62,32.95-41.3,39.69q-9.1,2.97-20.56,5.83c-25.13,6.28-43.11,23.53-40.83,51.4q1.43,17.55,7.5,33.58q16.09,42.52,54.95,63.47q1.47.8-.21.8l-59.88.15q-.62.01-.87-.56-6.79-15.42-11.73-31.5-12.46-40.57-15.52-84.19-2.21-31.43-2.61-57.8c-.04-2.1-.25-3.81-1.32-5.65-15.6-26.92-23.11-56.34-19.74-86.7c1.84-16.66,10.84-32.37,24.8-41.52q1.16-.76-.06-1.41-7.84-4.2-13.97-8.71-23.85-17.54-28.67-46.98-1.88-11.51-1.33-22.67.04-.77.7-.38q9.53,5.51,20,8.01c12.24,2.92,24.33,4.75,36.64,8.28c2.94.84,6.08,1.4,7.8-1.98c1.93-3.81-1.92-6.92-5.18-7.47q-24.16-4.08-41.03-9.63-15.5-5.08-25.82-13.14-9.36-7.31-18.75-14.01-8.2-5.86-14.76-8.73c-9.45-4.15-21.25-8.44-25.55-18.18q-3.53-8,4.24-11.01c4.17-1.62,9.61-2.28,14.22-2.57q32.61-2.07,62.06,12.69q33.02,16.54,57.12,48.88c14.9,19.99,25.65,43.35,32.57,67.89.109614.378842.427985.66227.82.73q3.56.6,7.02,1.23c3.47.63,6.87,2,10.18,3.35.154608.062186.331225.029441.453266-.084035s.167526-.287249.116734-.445965c-1.29-3.8-1.63-7.82-2.8-11.68q-14.31-47.23-45.99-82.42-19.73-21.9-47.25-35.92c-23.67-12.05-51.27-15.76-77.27-12.2q-9.1,1.25-19.13,4.75c-4.3,1.5-6.01,3.7-8.35,7.11-2.26,3.31-7.22,5.34-11.04,6.67q-13.13,4.56-26.17,10.86-18.18,8.77-30.11,24.73c-12.16,16.27-20.22,34.88-25.92,54.53q-1.59,5.47-2.39,11.18c-.016653.099979.018304.201607.092936.270188s.178846.094839.277064.069812q18.5-4.95,36.52-.88c9.12,2.07,15.29,9.98,17.1,18.98q.83,4.13-1.6,9.44-2.87,6.29-6.21,12.45-7.39,13.64-14.67,26.99c-3.11,5.69-6.84,10.99-9.36,16.94-.266363.624279-.178565,1.341929.23,1.88q6.39,8.46,13.2,16.13q1.93,2.17,6.17,3.86c1.63.64,2.85,2.02,3.46,3.65.298998.791416-.030033,1.680228-.77,2.08q-3.81,2.06-7.66,3.26-2.7.85-4.6-1.46-9.09-11.07-18.75-21.7c-2.76-3.04-.67-8.11,1.13-11.01q8.38-13.46,16.27-26.09.43-.7-.38-.6-2.18.28-4.29-.29-.47-.13-.54-.6-.4-2.49,1.87-3.6c3.41-1.66,8.59-3.51,10.33-7.12.092463-.189092.084482-.411675-.021347-.595379s-.29599-.305063-.508653-.324621q-.75-.07-1.37.25c-7.76,4.01-16.88,6.31-21.38-3.38-.72-1.55-.76-3.19-1.17-4.83-.048486-.190264-.188637-.344084-.372377-.408696s-.386084-.03123-.537623.088696q-2.9,2.21-4.6,5.7c-.204817.417993-.097442.921832.26,1.22q3.58,3.01,7.86,4.72c1.67.68,2.45,2.85.51,3.82q-1.1.54-2.46.31-7.72-1.32-12.51-4.42-.51-.34-.78.21c-1.46,2.93-2.68,6.04-4.32,8.78-9.06,15.14-14.24,30.12-13.97,48.16q.48,31.63,6.85,61.35c3.19,14.89,8.62,29.7,18.07,41.91c10.54,13.61,25.18,14.73,41.3,15.13q47.35,1.17,92.1-9.48q18.28-4.35,40.64-10.68c1.36-.38,3.34-.47,4.69-.05.434778.1392.764679.496257.869126.940666s-.03187.911038-.359126,1.229334q-.6.59-1.67,1.25c-26.43,16.46-54.92,29.68-83.05,39.65q-14.65,5.2-25.75,9.33-.51.19-.57.73-.17,1.44.04,2.91q1.8,12.55,5.56,24.8c.036406.12833.127864.234015.250665.289659s.264853.055769.389335.000341c2.74-1.26,5.75-1.99,8.64-3.05q38.27-14.13,76.17-28.86.44-.17.87.04c.185411.090764.322273.257772.375831.458614s.018661.416201-.095831.591386q-19.06,28.65-32.3,60.65-7.06,17.04-13.57,34.92c-.101378.286964-.369639.479151-.67.48l-45.17.18c-.246444.000471-.44929-.189146-.46-.43q-1.29-27.64-10.27-55.6-8.97-27.9-22.67-56.09-.31-.65-1.02-.79-9.93-1.91-19.36-5.45c-17.55-6.57-25.15-18.27-29.74-35.78Zm8.76-163.49c-.44-1.34-.48-2.9.32-4.07c7.82-11.35,24.53-9.34,35.21-3.65q1.83.97,3.37,1.74q4,1.99.82-1.16-15.63-15.45-37.99-11.3-1.75.33-4.29,1.49c-2.07.95-2.66,2.14-2.61,4.31q.22,9.3,3.81,18.5c.042186.117217.146148.200475.271135.21714s.251084-.035919.328865-.13714c1.38-1.8,2.67-3.76,4.67-4.97c6.48-3.88,13.09-5.26,20.36-5.68q.33-.02.48-.32c.04935-.092822.054365-.202911.013656-.299836s-.122826-.170417-.223656-.200164c-8.59-2.61-16.9-.1-23.59,5.78q-.67.59-.95-.25Z" fill="#242223"/><path d="M549.84,382.97q-14.64-5.21-31.25-4.63-19.28.67-38.29,3.96c-.180368.030869-.364277-.029989-.490627-.162356s-.178594-.318906-.139373-.497644c2.63-11.72,13.11-14.19,23.6-14.21q10.56-.02,23.06.7c13.86.79,26.38,4.11,37.84,12.92q3.61,2.77,2.4,7.41c-.136871.522553-.490794.961568-.972408,1.206197s-1.044885.271491-1.547592.073803c-4.96-1.95-9.21-5-14.21-6.77Z" fill="#242223"/><path d="M397.48,401.91c6.69-5.88,15-8.39,23.59-5.78.10083.029747.182948.10324.223656.200164s.035694.207014-.013656.299836q-.15.3-.48.32c-7.27.42-13.88,1.8-20.36,5.68-2,1.21-3.29,3.17-4.67,4.97-.077781.101221-.203879.153805-.328865.13714s-.228949-.099923-.271135-.21714q-3.59-9.2-3.81-18.5c-.05-2.17.54-3.36,2.61-4.31q2.54-1.16,4.29-1.49q22.36-4.15,37.99,11.3q3.18,3.15-.82,1.16-1.54-.77-3.37-1.74c-10.68-5.69-27.39-7.7-35.21,3.65-.8,1.17-.76,2.73-.32,4.07q.28.84.95.25Z" fill="#f8f8f8"/><path d="M490.59,396.36c15.3-14.25,39.69-13.48,55.88-2.22c4.53,3.15,9.16,6.56,12.86,10.64.539138.587904.697977,1.432466.41,2.18-1.28,3.39-4.77,2.24-6.77.61q-3.95-3.2-7.86-6.14-11.24-8.45-24.7-8.9c-10.65-.35-18.75,3.22-27.2,9q-.98.67-1.92-.06-3.36-2.63-.7-5.11Z" fill="#242223"/><path d="M510.72,404q-7.16,3.39-14.49,8.43c-.800257.551233-1.882925.436597-2.55-.27l-1.02-1.07q-1.14-1.19.07-2.31q4.29-4,9.61-7.56c14.78-9.85,37.65-3.34,48.33,9.68q1.29,1.57-.11,3.13-2.7,3.01-6.59,5.49-17.02,10.83-35.97,3.54-2.21-.85-1.28-3.02l.24-.55q.89-2.05,2.95-1.18c10.97,4.61,21.83,4.06,31.26-3.85q.52-.44.03-.92-1.62-1.58-3.61-1.85-.61-.09-.89.47-2.06,4.14-6.66,5.49c-6.36,1.86-13.36.72-16.98-5.11-1.49-2.4-1.51-5.38-1.7-8.17q-.05-.65-.64-.37Z" fill="#242223"/><path id="eol9s3GqjPE25" d="M367.58,406.64c-13.46,9.74-20.59,24.48-21.9,41.1q-.05.61-.65.61-78.3.17-156.52.03-3.83,0-7.88-.22-.5-.03-.6-.52-3.92-20.33-11.78-40.62c-.065633-.171645-.042877-.364568.060893-.516231s.275344-.242763.459107-.243769l198.67-.04q.73,0,.14.42Z" transform="translate(-392.957696-4.842083)" fill="#242223"/><path id="eol9s3GqjPE26" d="M900.63,409.49q-7.35,19.64-11.22,38.67-.04.24-.29.24l-86.77-.01q-.56,0-.61-.56-2.06-23.75-18.7-40.16c-.18178-.180762-.24448-.449405-.1615-.691961s.29709-.4165.5515-.448039q1.98-.25,3.92-.25q57.19-.03,113.69-.06.58,0,.43.56-.34,1.37-.84,2.71Z" transform="translate(260.233558 0)" fill="#242223"/><path d="M466.09,482.56c-6.11-.07-11.39-3.63-16.68-5.8q-3.79-1.55-9.61-2.3-2.58-.33-3.71-1.05c-2.07-1.34-2.59-4.94-.33-6.45c2.79-1.86,8.04-1.42,11.07-.44q7.52,2.45,16.02,5.65c3.87,1.46,7.29,2.24,5.77,7.84-.33,1.21-1.1,2.56-2.53,2.55Z" fill="#242223"/><path id="eol9s3GqjPE28" d="M242.24,695.93c.216904.709368.604631,1.357866,1.13,1.89c6.97,7.06,13.94,13.65,20,20.93.06454.079503.078551.188675.036176.281898s-.133839.154452-.236176.158102l-57.22.04q-.92,0-.93-.92-.05-2.52-.05-5.56.12-135.86-.13-244.28q0-1.16,1.15-1.16l57.33-.22c.094507-.00085.183066.046035.235491.124673s.061642.178416.024509.265327q-.35.8-.9,1.44-9.73,11.32-19.73,21.89c-.598298.630291-.940536,1.464496-.96,2.34q-.12,6.21-.13,11.86-.21,99.53.04,188.81q0,.99.34,2.11Z" transform="translate(-388.532884 0.1)" fill="#242223"/><path id="eol9s3GqjPE29" d="M827.98,698.01c1.58-1.14,1.52-3.48,1.53-5.26q.13-52.57.04-101-.08-47.76.12-94.56.01-2.45-.26-4.74-.05-.47-.37-.82-8.9-10.07-17.67-20.23-1.41-1.63-1.32-3.71.02-.48.5-.48l55.22-.02q.59,0,.59.58l-.11,250.24q0,1.06-1.06,1.06l-42.6.08q-.52,0-.54-.52-.28-7.46-.04-13.36c.11-2.94,3.61-5.56,5.97-7.26Z" transform="translate(264.202361 6.927524)" fill="#242223"/><path d="M461.58,506.47q5.29,2.59,18.56,7.69q2.83,1.09,3.57,4.02.12.48.19.96.59,3.73-3.08,2.9-12.65-2.85-24.82-5.85c-5.83-1.44-13.26-2.15-18.82.36-3.9,1.77-8.09.24-11.96-.97-4.06-1.26-8.5,0-12.29,1.75-4.79,2.2-6.55-5.83-3.88-8.06q4.71-3.94,10.21-6.57c4.27-2.03,8.89,1.2,12.51,3.09.73045.383268,1.611811.345114,2.31-.1c4.61-2.96,10.03-5.97,15.72-4.1q5.51,1.81,11.78,4.88Z" fill="#242223"/><path d="M420.2,533.87q-6.46-1.7-4.33-7.33.18-.47.67-.54q2.83-.44,5.71-.21q14.57,1.17,30.71.14c2.37-.15,4.16,2.18,3.02,4.61q-1.47,3.14-5.35,3.87-16.54,3.1-30.43-.54Z" transform="translate(0 0.000001)" fill="#242223"/><path d="M713.89,696.95q.54-2.54.54-5.71.1-57.05.01-115q0-.74.67-1.03q6.53-2.86,11.51-5.98q15.09-9.45,23.67-27.77q1.63-3.5,2.16-6.94.02-.16.19-.16l.27-.01c.081283-.002711.160184.027695.218626.084253s.091419.134419.091374.215747q-.04,83.62-.03,160.18c0,1.39.13,2.51,1.36,3.39c2.19,1.57,4.12,3.13,4.27,6.1q.37,7.28-.11,14.08-.05.69-.74.69l-49.91.12q-.84,0-.87-.84-.32-7.31.07-14.75c.17-3.18,3.64-4.74,6.07-5.95q.45-.23.56-.72Z" fill="#242223"/><path id="eol9s3GqjPE33" d="M170.35,766.26c.82-10.81,8.03-18.99,18.24-22.52q4.65-1.61,11.04-1.61q338.55.1,671.64.05c14.48,0,27.45,9.85,28.38,24.77q.49,8.05-.6,17.25-.06.53-.6.56-9.02.52-19.93.52-347.65-.08-695.32,0-6.59,0-11.91-.96-.5-.09-.56-.59-1.02-9.1-.38-17.47Z" transform="translate(-13.254716 293.830574)" fill="#242223"/><path id="eol9s3GqjPE34" d="M923.05,798.17q6.57,2.26,9.14,8.83c3.98,10.17-3.75,19.33-13.13,22.66q-4.58,1.63-10.56,1.67-32.63.26-62.77.26-343.89-.09-678.18-.01c-8.36,0-15.71.05-22.65-4.75-9.75-6.76-11.76-21.33-.21-27.64c9.6-5.24,17.12-.76,24.3,5.63c5.84,5.18,11.24,5.13,19.83,5.12q347.96-.08,695.93-.01c7.05.01,11.56-.91,16.44-5.11q2.18-1.88,4.74-3.82q7.92-6,17.12-2.83Z" transform="translate(-10.372154 324.336606)" fill="#242223"/><path id="eol9s3GqjPE35" d="M144.61,851.77q4.56,1.71,10.14,1.71q380.83-.01,759.97,0c4.71,0,10.57-.54,14.28-3.87q2.7-2.43,5.44-4.7c8.02-6.62,19.97-5.74,25.39,3.61c4.2,7.24,1.8,16.25-4.54,21.32-4.88,3.9-10.58,4.87-16.56,4.87q-393.58.04-784.75-.02-13.18,0-25.73-.2c-7.38-.12-14.78-3.13-18.56-9.45-5.19-8.69-1.99-19.83,7.94-23.28c10.12-3.52,15.93,2.35,23.12,8.01q1.36,1.07,3.86,2Z" transform="translate(-12.882629 221.443612)" fill="#242223"/>
<script><![CDATA[
!function(t,n){"object"==typeof exports&&"undefined"!=typeof module?module.exports=n():"function"==typeof __SVGATOR_DEFINE__&&__SVGATOR_DEFINE__.amd?__SVGATOR_DEFINE__(n):((t="undefined"!=typeof globalThis?globalThis:t||self).__SVGATOR_PLAYER__=t.__SVGATOR_PLAYER__||{},t.__SVGATOR_PLAYER__["5c7f360c"]=n())}(this,(function(){"use strict";function t(t,n){var e=Object.keys(t);if(Object.getOwnPropertySymbols){var r=Object.getOwnPropertySymbols(t);n&&(r=r.filter((function(n){return Object.getOwnPropertyDescriptor(t,n).enumerable}))),e.push.apply(e,r)}return e}function n(n){for(var e=1;e<arguments.length;e++){var r=null!=arguments[e]?arguments[e]:{};e%2?t(Object(r),!0).forEach((function(t){u(n,t,r[t])})):Object.getOwnPropertyDescriptors?Object.defineProperties(n,Object.getOwnPropertyDescriptors(r)):t(Object(r)).forEach((function(t){Object.defineProperty(n,t,Object.getOwnPropertyDescriptor(r,t))}))}return n}function e(t){return(e="function"==typeof Symbol&&"symbol"==typeof Symbol.iterator?function(t){return typeof t}:function(t){return t&&"function"==typeof Symbol&&t.constructor===Symbol&&t!==Symbol.prototype?"symbol":typeof t})(t)}function r(t,n){if(!(t instanceof n))throw new TypeError("Cannot call a class as a function")}function i(t,n){for(var e=0;e<n.length;e++){var r=n[e];r.enumerable=r.enumerable||!1,r.configurable=!0,"value"in r&&(r.writable=!0),Object.defineProperty(t,r.key,r)}}function o(t,n,e){return n&&i(t.prototype,n),e&&i(t,e),t}function u(t,n,e){return n in t?Object.defineProperty(t,n,{value:e,enumerable:!0,configurable:!0,writable:!0}):t[n]=e,t}function a(t){return(a=Object.setPrototypeOf?Object.getPrototypeOf:function(t){return t.__proto__||Object.getPrototypeOf(t)})(t)}function l(t,n){return(l=Object.setPrototypeOf||function(t,n){return t.__proto__=n,t})(t,n)}function s(){if("undefined"==typeof Reflect||!Reflect.construct)return!1;if(Reflect.construct.sham)return!1;if("function"==typeof Proxy)return!0;try{return Boolean.prototype.valueOf.call(Reflect.construct(Boolean,[],(function(){}))),!0}catch(t){return!1}}function f(t,n,e){return(f=s()?Reflect.construct:function(t,n,e){var r=[null];r.push.apply(r,n);var i=new(Function.bind.apply(t,r));return e&&l(i,e.prototype),i}).apply(null,arguments)}function c(t,n){if(n&&("object"==typeof n||"function"==typeof n))return n;if(void 0!==n)throw new TypeError("Derived constructors may only return object or undefined");return function(t){if(void 0===t)throw new ReferenceError("this hasn't been initialised - super() hasn't been called");return t}(t)}function h(t,n,e){return(h="undefined"!=typeof Reflect&&Reflect.get?Reflect.get:function(t,n,e){var r=function(t,n){for(;!Object.prototype.hasOwnProperty.call(t,n)&&null!==(t=a(t)););return t}(t,n);if(r){var i=Object.getOwnPropertyDescriptor(r,n);return i.get?i.get.call(e):i.value}})(t,n,e||t)}function v(t){return function(t){if(Array.isArray(t))return y(t)}(t)||function(t){if("undefined"!=typeof Symbol&&null!=t[Symbol.iterator]||null!=t["@@iterator"])return Array.from(t)}(t)||function(t,n){if(!t)return;if("string"==typeof t)return y(t,n);var e=Object.prototype.toString.call(t).slice(8,-1);"Object"===e&&t.constructor&&(e=t.constructor.name);if("Map"===e||"Set"===e)return Array.from(t);if("Arguments"===e||/^(?:Ui|I)nt(?:8|16|32)(?:Clamped)?Array$/.test(e))return y(t,n)}(t)||function(){throw new TypeError("Invalid attempt to spread non-iterable instance.\nIn order to be iterable, non-array objects must have a [Symbol.iterator]() method.")}()}function y(t,n){(null==n||n>t.length)&&(n=t.length);for(var e=0,r=new Array(n);e<n;e++)r[e]=t[e];return r}function g(t,n,e){if(Number.isInteger(t))return t;var r=Math.pow(10,n);return Math[e]((+t+Number.EPSILON)*r)/r}Number.isInteger||(Number.isInteger=function(t){return"number"==typeof t&&isFinite(t)&&Math.floor(t)===t}),Number.EPSILON||(Number.EPSILON=2220446049250313e-31);var d=p(Math.pow(10,-6));function p(t){var n=arguments.length>1&&void 0!==arguments[1]?arguments[1]:6;return g(t,n,"round")}function m(t,n){var e=arguments.length>2&&void 0!==arguments[2]?arguments[2]:d;return Math.abs(t-n)<e}p(Math.pow(10,-2)),p(Math.pow(10,-4));var b=Math.PI/180;function w(t){return t}function A(t,n,e){var r=1-e;return 3*e*r*(t*r+n*e)+e*e*e}function _(){var t=arguments.length>0&&void 0!==arguments[0]?arguments[0]:0,n=arguments.length>1&&void 0!==arguments[1]?arguments[1]:0,e=arguments.length>2&&void 0!==arguments[2]?arguments[2]:1,r=arguments.length>3&&void 0!==arguments[3]?arguments[3]:1;return t<0||t>1||e<0||e>1?null:m(t,n)&&m(e,r)?w:function(i){if(i<=0)return t>0?i*n/t:0===n&&e>0?i*r/e:0;if(i>=1)return e<1?1+(i-1)*(r-1)/(e-1):1===e&&t<1?1+(i-1)*(n-1)/(t-1):1;for(var o,u=0,a=1;u<a;){var l=A(t,e,o=(u+a)/2);if(m(i,l))break;l<i?u=o:a=o}return A(n,r,o)}}function x(){return 1}function k(t){return 1===t?1:0}function S(){var t=arguments.length>0&&void 0!==arguments[0]?arguments[0]:1,n=arguments.length>1&&void 0!==arguments[1]?arguments[1]:0;if(1===t){if(0===n)return k;if(1===n)return x}var e=1/t;return function(t){return t>=1?1:(t+=n*e)-t%e}}var O=Math.sin,j=Math.cos,M=Math.acos,E=Math.asin,P=Math.tan,I=Math.atan2,R=Math.PI/180,F=180/Math.PI,N=Math.sqrt,T=function(){function t(){var n=arguments.length>0&&void 0!==arguments[0]?arguments[0]:1,e=arguments.length>1&&void 0!==arguments[1]?arguments[1]:0,i=arguments.length>2&&void 0!==arguments[2]?arguments[2]:0,o=arguments.length>3&&void 0!==arguments[3]?arguments[3]:1,u=arguments.length>4&&void 0!==arguments[4]?arguments[4]:0,a=arguments.length>5&&void 0!==arguments[5]?arguments[5]:0;r(this,t),this.m=[n,e,i,o,u,a],this.i=null,this.w=null,this.s=null}return o(t,[{key:"determinant",get:function(){var t=this.m;return t[0]*t[3]-t[1]*t[2]}},{key:"isIdentity",get:function(){if(null===this.i){var t=this.m;this.i=1===t[0]&&0===t[1]&&0===t[2]&&1===t[3]&&0===t[4]&&0===t[5]}return this.i}},{key:"point",value:function(t,n){var e=this.m;return{x:e[0]*t+e[2]*n+e[4],y:e[1]*t+e[3]*n+e[5]}}},{key:"translateSelf",value:function(){var t=arguments.length>0&&void 0!==arguments[0]?arguments[0]:0,n=arguments.length>1&&void 0!==arguments[1]?arguments[1]:0;if(!t&&!n)return this;var e=this.m;return e[4]+=e[0]*t+e[2]*n,e[5]+=e[1]*t+e[3]*n,this.w=this.s=this.i=null,this}},{key:"rotateSelf",value:function(){var t=arguments.length>0&&void 0!==arguments[0]?arguments[0]:0;if(t%=360){var n=O(t*=R),e=j(t),r=this.m,i=r[0],o=r[1];r[0]=i*e+r[2]*n,r[1]=o*e+r[3]*n,r[2]=r[2]*e-i*n,r[3]=r[3]*e-o*n,this.w=this.s=this.i=null}return this}},{key:"scaleSelf",value:function(){var t=arguments.length>0&&void 0!==arguments[0]?arguments[0]:1,n=arguments.length>1&&void 0!==arguments[1]?arguments[1]:1;if(1!==t||1!==n){var e=this.m;e[0]*=t,e[1]*=t,e[2]*=n,e[3]*=n,this.w=this.s=this.i=null}return this}},{key:"skewSelf",value:function(t,n){if(n%=360,(t%=360)||n){var e=this.m,r=e[0],i=e[1],o=e[2],u=e[3];t&&(t=P(t*R),e[2]+=r*t,e[3]+=i*t),n&&(n=P(n*R),e[0]+=o*n,e[1]+=u*n),this.w=this.s=this.i=null}return this}},{key:"resetSelf",value:function(){var t=arguments.length>0&&void 0!==arguments[0]?arguments[0]:1,n=arguments.length>1&&void 0!==arguments[1]?arguments[1]:0,e=arguments.length>2&&void 0!==arguments[2]?arguments[2]:0,r=arguments.length>3&&void 0!==arguments[3]?arguments[3]:1,i=arguments.length>4&&void 0!==arguments[4]?arguments[4]:0,o=arguments.length>5&&void 0!==arguments[5]?arguments[5]:0,u=this.m;return u[0]=t,u[1]=n,u[2]=e,u[3]=r,u[4]=i,u[5]=o,this.w=this.s=this.i=null,this}},{key:"recomposeSelf",value:function(){var t=arguments.length>0&&void 0!==arguments[0]?arguments[0]:null,n=arguments.length>1&&void 0!==arguments[1]?arguments[1]:null,e=arguments.length>2&&void 0!==arguments[2]?arguments[2]:null,r=arguments.length>3&&void 0!==arguments[3]?arguments[3]:null,i=arguments.length>4&&void 0!==arguments[4]?arguments[4]:null;return this.isIdentity||this.resetSelf(),t&&(t.x||t.y)&&this.translateSelf(t.x,t.y),n&&this.rotateSelf(n),e&&(e.x&&this.skewSelf(e.x,0),e.y&&this.skewSelf(0,e.y)),!r||1===r.x&&1===r.y||this.scaleSelf(r.x,r.y),i&&(i.x||i.y)&&this.translateSelf(i.x,i.y),this}},{key:"decompose",value:function(){var t=arguments.length>0&&void 0!==arguments[0]?arguments[0]:0,n=arguments.length>1&&void 0!==arguments[1]?arguments[1]:0,e=this.m,r=e[0]*e[0]+e[1]*e[1],i=[[e[0],e[1]],[e[2],e[3]]],o=N(r);if(0===o)return{origin:{x:p(e[4]),y:p(e[5])},translate:{x:p(t),y:p(n)},scale:{x:0,y:0},skew:{x:0,y:0},rotate:0};i[0][0]/=o,i[0][1]/=o;var u=e[0]*e[3]-e[1]*e[2]<0;u&&(o=-o);var a=i[0][0]*i[1][0]+i[0][1]*i[1][1];i[1][0]-=i[0][0]*a,i[1][1]-=i[0][1]*a;var l=N(i[1][0]*i[1][0]+i[1][1]*i[1][1]);if(0===l)return{origin:{x:p(e[4]),y:p(e[5])},translate:{x:p(t),y:p(n)},scale:{x:p(o),y:0},skew:{x:0,y:0},rotate:0};i[1][0]/=l,i[1][1]/=l,a/=l;var s=0;return i[1][1]<0?(s=M(i[1][1])*F,i[0][1]<0&&(s=360-s)):s=E(i[0][1])*F,u&&(s=-s),a=I(a,N(i[0][0]*i[0][0]+i[0][1]*i[0][1]))*F,u&&(a=-a),{origin:{x:p(e[4]),y:p(e[5])},translate:{x:p(t),y:p(n)},scale:{x:p(o),y:p(l)},skew:{x:p(a),y:0},rotate:p(s)}}},{key:"clone",value:function(){var t=this.m;return new this.constructor(t[0],t[1],t[2],t[3],t[4],t[5])}},{key:"toString",value:function(){var t=arguments.length>0&&void 0!==arguments[0]?arguments[0]:" ";if(null===this.s){var n=this.m.map((function(t){return p(t)}));1===n[0]&&0===n[1]&&0===n[2]&&1===n[3]?this.s="translate("+n[4]+t+n[5]+")":this.s="matrix("+n.join(t)+")"}return this.s}}],[{key:"create",value:function(t){return t?Array.isArray(t)?f(this,v(t)):t instanceof this?t.clone():(new this).recomposeSelf(t.origin,t.rotate,t.skew,t.scale,t.translate):new this}}]),t}();function q(t,n,e){return t>=.5?e:n}function B(t,n,e){return 0===t||n===e?n:t*(e-n)+n}function D(t,n,e){var r=B(t,n,e);return r<=0?0:r}function L(t,n,e){var r=B(t,n,e);return r<=0?0:r>=1?1:r}function C(t,n,e){return 0===t?n:1===t?e:{x:B(t,n.x,e.x),y:B(t,n.y,e.y)}}function V(t,n,e){var r=function(t,n,e){return Math.round(B(t,n,e))}(t,n,e);return r<=0?0:r>=255?255:r}function G(t,n,e){return 0===t?n:1===t?e:{r:V(t,n.r,e.r),g:V(t,n.g,e.g),b:V(t,n.b,e.b),a:B(t,null==n.a?1:n.a,null==e.a?1:e.a)}}function z(t,n){for(var e=[],r=0;r<t;r++)e.push(n);return e}function Y(t,n){if(--n<=0)return t;var e=(t=Object.assign([],t)).length;do{for(var r=0;r<e;r++)t.push(t[r])}while(--n>0);return t}var $,U=function(){function t(n){r(this,t),this.list=n,this.length=n.length}return o(t,[{key:"setAttribute",value:function(t,n){for(var e=this.list,r=0;r<this.length;r++)e[r].setAttribute(t,n)}},{key:"removeAttribute",value:function(t){for(var n=this.list,e=0;e<this.length;e++)n[e].removeAttribute(t)}},{key:"style",value:function(t,n){for(var e=this.list,r=0;r<this.length;r++)e[r].style[t]=n}}]),t}(),Q=/-./g,H=function(t,n){return n.toUpperCase()};function J(t){return"function"==typeof t?t:q}function Z(t){return t?"function"==typeof t?t:Array.isArray(t)?function(t){var n=arguments.length>1&&void 0!==arguments[1]?arguments[1]:w;if(!Array.isArray(t))return n;switch(t.length){case 1:return S(t[0])||n;case 2:return S(t[0],t[1])||n;case 4:return _(t[0],t[1],t[2],t[3])||n}return n}(t,null):function(t,n){var e=arguments.length>2&&void 0!==arguments[2]?arguments[2]:w;switch(t){case"linear":return w;case"steps":return S(n.steps||1,n.jump||0)||e;case"bezier":case"cubic-bezier":return _(n.x1||0,n.y1||0,n.x2||0,n.y2||0)||e}return e}(t.type,t.value,null):null}function K(t,n,e){var r=arguments.length>3&&void 0!==arguments[3]&&arguments[3],i=n.length-1;if(t<=n[0].t)return r?[0,0,n[0].v]:n[0].v;if(t>=n[i].t)return r?[i,1,n[i].v]:n[i].v;var o,u=n[0],a=null;for(o=1;o<=i;o++){if(!(t>n[o].t)){a=n[o];break}u=n[o]}return null==a?r?[i,1,n[i].v]:n[i].v:u.t===a.t?r?[o,1,a.v]:a.v:(t=(t-u.t)/(a.t-u.t),u.e&&(t=u.e(t)),r?[o,t,e(t,u.v,a.v)]:e(t,u.v,a.v))}function W(t,n){var e=arguments.length>2&&void 0!==arguments[2]?arguments[2]:null;return t&&t.length?"function"!=typeof n?null:("function"!=typeof e&&(e=null),function(r){var i=K(r,t,n);return null!=i&&e&&(i=e(i)),i}):null}function X(t,n){return t.t-n.t}function tt(t,n,r,i,o){var u,a="@"===r[0],l="#"===r[0],s=$[r],f=q;switch(a?(u=r.substr(1),r=u.replace(Q,H)):l&&(r=r.substr(1)),e(s)){case"function":if(f=s(i,o,K,Z,r,a,n,t),l)return f;break;case"string":f=W(i,J(s));break;case"object":if((f=W(i,J(s.i),s.f))&&"function"==typeof s.u)return s.u(n,f,r,a,t)}return f?function(t,n,e){if(arguments.length>3&&void 0!==arguments[3]&&arguments[3])return t instanceof U?function(r){return t.style(n,e(r))}:function(r){return t.style[n]=e(r)};if(Array.isArray(n)){var r=n.length;return function(i){var o=e(i);if(null==o)for(var u=0;u<r;u++)t[u].removeAttribute(n);else for(var a=0;a<r;a++)t[a].setAttribute(n,o)}}return function(r){var i=e(r);null==i?t.removeAttribute(n):t.setAttribute(n,i)}}(n,r,f,a):null}function nt(t,n,r,i){if(!i||"object"!==e(i))return null;var o=null,u=null;return Array.isArray(i)?u=function(t){if(!t||!t.length)return null;for(var n=0;n<t.length;n++)t[n].e&&(t[n].e=Z(t[n].e));return t.sort(X)}(i):(u=i.keys,o=i.data||null),u?tt(t,n,r,u,o):null}function et(t,n,e){if(!e)return null;var r=[];for(var i in e)if(e.hasOwnProperty(i)){var o=nt(t,n,i,e[i]);o&&r.push(o)}return r.length?r:null}function rt(t,n){if(!n.settings.duration||n.settings.duration<0)return null;var e,r,i,o,u,a=function(t,n){if(!n)return null;var e=[];if(Array.isArray(n))for(var r=n.length,i=0;i<r;i++){var o=n[i];if(2===o.length){var u=null;if("string"==typeof o[0])u=t.getElementById(o[0]);else if(Array.isArray(o[0])){u=[];for(var a=0;a<o[0].length;a++)if("string"==typeof o[0][a]){var l=t.getElementById(o[0][a]);l&&u.push(l)}u=u.length?1===u.length?u[0]:new U(u):null}if(u){var s=et(t,u,o[1]);s&&(e=e.concat(s))}}}else for(var f in n)if(n.hasOwnProperty(f)){var c=t.getElementById(f);if(c){var h=et(t,c,n[f]);h&&(e=e.concat(h))}}return e.length?e:null}(t,n.elements);return a?(e=a,r=n.settings,i=r.duration,o=e.length,u=null,function(t,n){var a=r.iterations||1/0,l=(r.alternate&&a%2==0)^r.direction>0?i:0,s=t%i,f=1+(t-s)/i;n*=r.direction,r.alternate&&f%2==0&&(n=-n);var c=!1;if(f>a)s=l,c=!0,-1===r.fill&&(s=r.direction>0?0:i);else if(n<0&&(s=i-s),s===u)return!1;u=s;for(var h=0;h<o;h++)e[h](s);return c}):null}function it(t,n){for(var e=n.querySelectorAll("svg"),r=0;r<e.length;r++)if(e[r].id===t.root&&!e[r].svgatorAnimation)return e[r].svgatorAnimation=!0,e[r];return null}function ot(t){var n=function(t){return t.shadowRoot};return document?Array.from(t.querySelectorAll(":not("+["a","area","audio","br","canvas","circle","datalist","embed","g","head","hr","iframe","img","input","link","object","path","polygon","rect","script","source","style","svg","title","track","video"].join()+")")).filter(n).map(n):[]}function ut(t){var n=arguments.length>1&&void 0!==arguments[1]?arguments[1]:document,e=arguments.length>2&&void 0!==arguments[2]?arguments[2]:0,r=it(t,n);if(r)return r;if(e>=20)return null;for(var i=ot(n),o=0;o<i.length;o++){var u=ut(t,i[o],e+1);if(u)return u}return null}function at(t,n){if($=n,!t||!t.root||!Array.isArray(t.animations))return null;var e=ut(t);if(!e)return null;var r=t.animations.map((function(t){return rt(e,t)})).filter((function(t){return!!t}));return r.length?{svg:e,animations:r,animationSettings:t.animationSettings,options:t.options||void 0}:null}function lt(t){var n=arguments.length>1&&void 0!==arguments[1]?arguments[1]:null,e=arguments.length>2&&void 0!==arguments[2]?arguments[2]:Number,r=arguments.length>3&&void 0!==arguments[3]?arguments[3]:"undefined"!=typeof BigInt&&BigInt,i="0x"+(t.replace(/[^0-9a-fA-F]+/g,"")||27);return n&&r&&e.isSafeInteger&&!e.isSafeInteger(+i)?e(r(i))%n+n:+i}function st(t,n,e){return!t||!e||n>t.length?t:t.substring(0,n)+st(t.substring(n+1),e,e)}function ft(t){var n=arguments.length>1&&void 0!==arguments[1]?arguments[1]:27;return!t||t%n?t%n:[0,1].includes(n)?n:ft(t/n,n)}function ct(t,n,e){if(t&&t.length){var r=lt(e),i=ft(r)+5,o=st(t,ft(r,5),i);return o=o.replace(/\x7c$/g,"==").replace(/\x2f$/g,"="),o=function(t,n,e){var r=+("0x"+t.substring(0,4));t=t.substring(4);for(var i=lt(n,r)%r+e%27,o=[],u=0;u<t.length;u+=2)if("|"!==t[u]){var a=+("0x"+t[u]+t[u+1])-i;o.push(a)}else{var l=+("0x"+t.substring(u+1,u+1+4))-i;u+=3,o.push(l)}return String.fromCharCode.apply(String,o)}(o=(o=atob(o)).replace(/[\x41-\x5A]/g,""),n,r),o=JSON.parse(o)}}var ht=[{key:"alternate",def:!1},{key:"fill",def:1},{key:"iterations",def:0},{key:"direction",def:1},{key:"speed",def:1},{key:"fps",def:100}],vt=function(){function t(n,e){var i=this,o=arguments.length>2&&void 0!==arguments[2]?arguments[2]:null;r(this,t),this._id=0,this._running=!1,this._rollingBack=!1,this._animations=n,this._settings=e,(!o||o<"2022-05-02")&&delete this._settings.speed,ht.forEach((function(t){i._settings[t.key]=i._settings[t.key]||t.def})),this.duration=e.duration,this.offset=e.offset||0,this.rollbackStartOffset=0}return o(t,[{key:"alternate",get:function(){return this._settings.alternate}},{key:"fill",get:function(){return this._settings.fill}},{key:"iterations",get:function(){return this._settings.iterations}},{key:"direction",get:function(){return this._settings.direction}},{key:"speed",get:function(){return this._settings.speed}},{key:"fps",get:function(){return this._settings.fps}},{key:"maxFiniteDuration",get:function(){return this.iterations>0?this.iterations*this.duration:this.duration}},{key:"_apply",value:function(t){for(var n=arguments.length>1&&void 0!==arguments[1]?arguments[1]:{},e=this._animations,r=e.length,i=0,o=0;o<r;o++)n[o]?i++:(n[o]=e[o](t,1),n[o]&&i++);return i}},{key:"_rollback",value:function(t){var n=this,e=1/0,r=null;this.rollbackStartOffset=t,this._rollingBack=!0,this._running=!0;this._id=window.requestAnimationFrame((function i(o){if(n._rollingBack){null==r&&(r=o);var u=Math.round(t-(o-r)*n.speed);if(u>n.duration&&e!==1/0){var a=!!n.alternate&&u/n.duration%2>1,l=u%n.duration;u=(l+=a?n.duration:0)||n.duration}var s=(n.fps?1e3/n.fps:0)*n.speed,f=Math.max(0,u);f<=e-s&&(n.offset=f,e=f,n._apply(f));var c=n.iterations>0&&-1===n.fill&&u>=n.maxFiniteDuration;(u<=0||n.offset<u||c)&&n.stop(),n._id=window.requestAnimationFrame(i)}}))}},{key:"_start",value:function(){var t=this,n=arguments.length>0&&void 0!==arguments[0]?arguments[0]:0,e=-1/0,r=null,i={};this._running=!0;var o=function o(u){null==r&&(r=u);var a=Math.round((u-r)*t.speed+n),l=(t.fps?1e3/t.fps:0)*t.speed;if(a>=e+l&&!t._rollingBack&&(t.offset=a,e=a,t._apply(a,i)===t._animations.length))return void t.pause(!0);t._id=window.requestAnimationFrame(o)};this._id=window.requestAnimationFrame(o)}},{key:"_pause",value:function(){this._id&&window.cancelAnimationFrame(this._id),this._running=!1}},{key:"play",value:function(){if(!this._running)return this._rollingBack?this._rollback(this.offset):this._start(this.offset)}},{key:"stop",value:function(){this._pause(),this.offset=0,this.rollbackStartOffset=0,this._rollingBack=!1,this._apply(0)}},{key:"reachedToEnd",value:function(){return this.iterations>0&&this.offset>=this.iterations*this.duration}},{key:"restart",value:function(){var t=arguments.length>0&&void 0!==arguments[0]&&arguments[0];this.stop(t),this.play(t)}},{key:"pause",value:function(){this._pause()}},{key:"reverse",value:function(){this.direction=-this.direction}}],[{key:"build",value:function(t,n){delete t.animationSettings,t.options=ct(t.options,t.root,"5c7f360c"),t.animations.map((function(n){n.settings=ct(n.s,t.root,"5c7f360c"),delete n.s,t.animationSettings||(t.animationSettings=n.settings)}));var e=t.version;if(!(t=at(t,n)))return null;var r=t.options||{},i=new this(t.animations,t.animationSettings,e);return{el:t.svg,options:r,player:i}}},{key:"push",value:function(t){return this.build(t)}},{key:"init",value:function(){var t=this,n=window.__SVGATOR_PLAYER__&&window.__SVGATOR_PLAYER__["5c7f360c"];Array.isArray(n)&&n.splice(0).forEach((function(n){return t.build(n)}))}}]),t}();function yt(t){return p(t)+""}function gt(t){var n=arguments.length>1&&void 0!==arguments[1]?arguments[1]:" ";return t&&t.length?t.map(yt).join(n):""}function dt(t){if(!t)return"transparent";if(null==t.a||t.a>=1){var n=function(t){return 1===(t=parseInt(t).toString(16)).length?"0"+t:t},e=function(t){return t.charAt(0)===t.charAt(1)},r=n(t.r),i=n(t.g),o=n(t.b);return e(r)&&e(i)&&e(o)&&(r=r.charAt(0),i=i.charAt(0),o=o.charAt(0)),"#"+r+i+o}return"rgba("+t.r+","+t.g+","+t.b+","+t.a+")"}function pt(t){return t?"url(#"+t+")":"none"}!function(){for(var t=0,n=["ms","moz","webkit","o"],e=0;e<n.length&&!window.requestAnimationFrame;++e)window.requestAnimationFrame=window[n[e]+"RequestAnimationFrame"],window.cancelAnimationFrame=window[n[e]+"CancelAnimationFrame"]||window[n[e]+"CancelRequestAnimationFrame"];window.requestAnimationFrame||(window.requestAnimationFrame=function(n){var e=Date.now(),r=Math.max(0,16-(e-t)),i=window.setTimeout((function(){n(e+r)}),r);return t=e+r,i},window.cancelAnimationFrame=window.clearTimeout)}();var mt={f:null,i:function(t,n,e){return 0===t?n:1===t?e:{x:D(t,n.x,e.x),y:D(t,n.y,e.y)}},u:function(t,n){return function(e){var r=n(e);t.setAttribute("rx",yt(r.x)),t.setAttribute("ry",yt(r.y))}}},bt={f:null,i:function(t,n,e){return 0===t?n:1===t?e:{width:D(t,n.width,e.width),height:D(t,n.height,e.height)}},u:function(t,n){return function(e){var r=n(e);t.setAttribute("width",yt(r.width)),t.setAttribute("height",yt(r.height))}}};Object.freeze({M:2,L:2,Z:0,H:1,V:1,C:6,Q:4,T:2,S:4,A:7});var wt={},At=null;function _t(t){var n=function(){if(At)return At;if("object"!==("undefined"==typeof document?"undefined":e(document))||!document.createElementNS)return{};var t=document.createElementNS("http://www.w3.org/2000/svg","svg");return t&&t.style?(t.style.position="absolute",t.style.opacity="0.01",t.style.zIndex="-9999",t.style.left="-9999px",t.style.width="1px",t.style.height="1px",At={svg:t}):{}}().svg;if(!n)return function(t){return null};var r=document.createElementNS(n.namespaceURI,"path");r.setAttributeNS(null,"d",t),r.setAttributeNS(null,"fill","none"),r.setAttributeNS(null,"stroke","none"),n.appendChild(r);var i=r.getTotalLength();return function(t){var n=r.getPointAtLength(i*t);return{x:n.x,y:n.y}}}function xt(t){return wt[t]?wt[t]:wt[t]=_t(t)}function kt(t,n,e,r){if(!t||!r)return!1;var i=["M",t.x,t.y];if(n&&e&&(i.push("C"),i.push(n.x),i.push(n.y),i.push(e.x),i.push(e.y)),n?!e:e){var o=n||e;i.push("Q"),i.push(o.x),i.push(o.y)}return n||e||i.push("L"),i.push(r.x),i.push(r.y),i.join(" ")}function St(t,n,e,r){var i=arguments.length>4&&void 0!==arguments[4]?arguments[4]:1,o=kt(t,n,e,r),u=xt(o);try{return u(i)}catch(t){return null}}function Ot(t,n,e){return t+(n-t)*e}function jt(t,n,e){var r=arguments.length>3&&void 0!==arguments[3]&&arguments[3],i={x:Ot(t.x,n.x,e),y:Ot(t.y,n.y,e)};return r&&(i.a=Mt(t,n)),i}function Mt(t,n){return Math.atan2(n.y-t.y,n.x-t.x)}function Et(t,n,e,r){var i=1-r;return i*i*t+2*i*r*n+r*r*e}function Pt(t,n,e,r){return 2*(1-r)*(n-t)+2*r*(e-n)}function It(t,n,e,r){var i=arguments.length>4&&void 0!==arguments[4]&&arguments[4],o=St(t,n,null,e,r);return o||(o={x:Et(t.x,n.x,e.x,r),y:Et(t.y,n.y,e.y,r)}),i&&(o.a=Rt(t,n,e,r)),o}function Rt(t,n,e,r){return Math.atan2(Pt(t.y,n.y,e.y,r),Pt(t.x,n.x,e.x,r))}function Ft(t,n,e,r,i){var o=i*i;return i*o*(r-t+3*(n-e))+3*o*(t+e-2*n)+3*i*(n-t)+t}function Nt(t,n,e,r,i){var o=1-i;return 3*(o*o*(n-t)+2*o*i*(e-n)+i*i*(r-e))}function Tt(t,n,e,r,i){var o=arguments.length>5&&void 0!==arguments[5]&&arguments[5],u=St(t,n,e,r,i);return u||(u={x:Ft(t.x,n.x,e.x,r.x,i),y:Ft(t.y,n.y,e.y,r.y,i)}),o&&(u.a=qt(t,n,e,r,i)),u}function qt(t,n,e,r,i){return Math.atan2(Nt(t.y,n.y,e.y,r.y,i),Nt(t.x,n.x,e.x,r.x,i))}function Bt(t,n,e){var r=arguments.length>3&&void 0!==arguments[3]&&arguments[3];if(Lt(n)){if(Ct(e))return It(n,e.start,e,t,r)}else if(Lt(e)){if(Vt(n))return It(n,n.end,e,t,r)}else{if(Vt(n))return Ct(e)?Tt(n,n.end,e.start,e,t,r):It(n,n.end,e,t,r);if(Ct(e))return It(n,e.start,e,t,r)}return jt(n,e,t,r)}function Dt(t,n,e){var r=Bt(t,n,e,!0);return r.a=function(t){return arguments.length>1&&void 0!==arguments[1]&&arguments[1]?t+Math.PI:t}(r.a)/b,r}function Lt(t){return!t.type||"corner"===t.type}function Ct(t){return null!=t.start&&!Lt(t)}function Vt(t){return null!=t.end&&!Lt(t)}var Gt=new T;var zt={f:yt,i:B},Yt={f:yt,i:L};function $t(t,n,e){return t.map((function(t){return function(t,n,e){var r=t.v;if(!r||"g"!==r.t||r.s||!r.v||!r.r)return t;var i=e.getElementById(r.r),o=i&&i.querySelectorAll("stop")||[];return r.s=r.v.map((function(t,n){var e=o[n]&&o[n].getAttribute("offset");return{c:t,o:e=p(parseInt(e)/100)}})),delete r.v,t}(t,0,e)}))}var Ut={gt:"gradientTransform",c:{x:"cx",y:"cy"},rd:"r",f:{x:"x1",y:"y1"},to:{x:"x2",y:"y2"}};function Qt(t,n,r,i,o,u,a,l){return $t(t,0,l),n=function(t,n,e){for(var r,i,o,u=t.length-1,a={},l=0;l<=u;l++)(r=t[l]).e&&(r.e=n(r.e)),r.v&&"g"===(i=r.v).t&&i.r&&(o=e.getElementById(i.r))&&(a[i.r]={e:o,s:o.querySelectorAll("stop")});return a}(t,i,l),function(i){var o=r(i,t,Ht);if(!o)return"none";if("c"===o.t)return dt(o.v);if("g"===o.t){if(!n[o.r])return pt(o.r);var u=n[o.r];return function(t,n){for(var e=t.s,r=e.length;r<n.length;r++){var i=e[e.length-1].cloneNode();i.id=Kt(i.id),t.e.appendChild(i),e=t.s=t.e.querySelectorAll("stop")}for(var o=0,u=e.length,a=n.length-1;o<u;o++)e[o].setAttribute("stop-color",dt(n[Math.min(o,a)].c)),e[o].setAttribute("offset",n[Math.min(o,a)].o)}(u,o.s),Object.keys(Ut).forEach((function(t){if(void 0!==o[t])if("object"!==e(Ut[t])){var n,r="gt"===t?(n=o[t],Array.isArray(n)?"matrix("+n.join(" ")+")":""):o[t],i=Ut[t];u.e.setAttribute(i,r)}else Object.keys(Ut[t]).forEach((function(n){if(void 0!==o[t][n]){var e=o[t][n],r=Ut[t][n];u.e.setAttribute(r,e)}}))})),pt(o.r)}return"none"}}function Ht(t,e,r){if(0===t)return e;if(1===t)return r;if(e&&r){var i=e.t;if(i===r.t)switch(e.t){case"c":return{t:i,v:G(t,e.v,r.v)};case"g":if(e.r===r.r){var o={t:i,s:Jt(t,e.s,r.s),r:e.r};return e.gt&&r.gt&&(o.gt=function(t,n,e){var r=n.length;if(r!==e.length)return q(t,n,e);for(var i=new Array(r),o=0;o<r;o++)i[o]=B(t,n[o],e[o]);return i}(t,e.gt,r.gt)),e.c?(o.c=C(t,e.c,r.c),o.rd=D(t,e.rd,r.rd)):e.f&&(o.f=C(t,e.f,r.f),o.to=C(t,e.to,r.to)),o}}if("c"===e.t&&"g"===r.t||"c"===r.t&&"g"===e.t){var u="c"===e.t?e:r,a="g"===e.t?n({},e):n({},r),l=a.s.map((function(t){return{c:u.v,o:t.o}}));return a.s="c"===e.t?Jt(t,l,a.s):Jt(t,a.s,l),a}}return q(t,e,r)}function Jt(t,n,e){if(n.length===e.length)return n.map((function(n,r){return Zt(t,n,e[r])}));for(var r=Math.max(n.length,e.length),i=[],o=0;o<r;o++){var u=Zt(t,n[Math.min(o,n.length-1)],e[Math.min(o,e.length-1)]);i.push(u)}return i}function Zt(t,n,e){return{o:L(t,n.o,e.o||0),c:G(t,n.c,e.c||{})}}function Kt(t){return t.replace(/-fill-([0-9]+)$/,(function(t,n){return"-fill-"+(+n+1)}))}var Wt={fill:Qt,"fill-opacity":Yt,stroke:Qt,"stroke-opacity":Yt,"stroke-width":zt,"stroke-dashoffset":{f:yt,i:B},"stroke-dasharray":{f:function(t){var n=arguments.length>1&&void 0!==arguments[1]?arguments[1]:" ";return t&&t.length>0&&(t=t.map((function(t){return p(t,4)}))),gt(t,n)},i:function(t,n,e){var r,i,o,u=n.length,a=e.length;if(u!==a)if(0===u)n=z(u=a,0);else if(0===a)a=u,e=z(u,0);else{var l=(o=(r=u)*(i=a)/function(t,n){for(var e;n;)e=n,n=t%n,t=e;return t||1}(r,i))<0?-o:o;n=Y(n,Math.floor(l/u)),e=Y(e,Math.floor(l/a)),u=a=l}for(var s=[],f=0;f<u;f++)s.push(p(D(t,n[f],e[f])));return s}},opacity:Yt,transform:function(t,n,r,i){if(!(t=function(t,n){if(!t||"object"!==e(t))return null;var r=!1;for(var i in t)t.hasOwnProperty(i)&&(t[i]&&t[i].length?(t[i].forEach((function(t){t.e&&(t.e=n(t.e))})),r=!0):delete t[i]);return r?t:null}(t,i)))return null;var o=function(e,i,o){var u=arguments.length>3&&void 0!==arguments[3]?arguments[3]:null;return t[e]?r(i,t[e],o):n&&n[e]?n[e]:u};return n&&n.a&&t.o?function(n){var e=r(n,t.o,Dt);return Gt.recomposeSelf(e,o("r",n,B,0)+e.a,o("k",n,C),o("s",n,C),o("t",n,C)).toString()}:function(t){return Gt.recomposeSelf(o("o",t,Bt,null),o("r",t,B,0),o("k",t,C),o("s",t,C),o("t",t,C)).toString()}},r:zt,"#size":bt,"#radius":mt,_:function(t,n){if(Array.isArray(t))for(var e=0;e<t.length;e++)this[t[e]]=n;else this[t]=n}},Xt=function(t){!function(t,n){if("function"!=typeof n&&null!==n)throw new TypeError("Super expression must either be null or a function");t.prototype=Object.create(n&&n.prototype,{constructor:{value:t,writable:!0,configurable:!0}}),n&&l(t,n)}(u,t);var n,e,i=(n=u,e=s(),function(){var t,r=a(n);if(e){var i=a(this).constructor;t=Reflect.construct(r,arguments,i)}else t=r.apply(this,arguments);return c(this,t)});function u(){return r(this,u),i.apply(this,arguments)}return o(u,null,[{key:"build",value:function(t){var n=h(a(u),"build",this).call(this,t,Wt);if(!n)return null;n.el,n.options,function(t,n,e){t.play()}(n.player)}}]),u}(vt);return Xt.init(),Xt}));
(function(s,i,o,w,d,a,b){w[o]=w[o]||{};w[o][s]=w[o][s]||[];w[o][s].push(i);})('5c7f360c',{"root":"eol9s3GqjPE1","version":"2022-05-04","animations":[{"elements":{"eol9s3GqjPE25":{"transform":{"data":{"t":{"x":-268.028397,"y":-427.331604}},"keys":{"o":[{"t":50,"v":{"x":-124.929299,"y":422.489521,"type":"corner"}},{"t":900,"v":{"x":268.028397,"y":425.992432,"type":"corner"}}]}}},"eol9s3GqjPE26":{"transform":{"data":{"t":{"x":-842.1716,"y":-427.309998}},"keys":{"o":[{"t":0,"v":{"x":1102.405158,"y":427.309998,"type":"corner"}},{"t":900,"v":{"x":842.171661,"y":425.992399,"type":"corner"}}]}}},"eol9s3GqjPE28":{"transform":{"data":{"t":{"x":-234.221252,"y":-593.159988}},"keys":{"o":[{"t":0,"v":{"x":-154.311632,"y":593.259988,"type":"corner"}},{"t":900,"v":{"x":234.22116,"y":591.745037,"type":"corner"}}]}}},"eol9s3GqjPE29":{"transform":{"data":{"t":{"x":-838.202301,"y":-593.170013}},"keys":{"o":[{"t":0,"v":{"x":1102.404662,"y":600.097537,"type":"corner"}},{"t":900,"v":{"x":838.202301,"y":593.310013,"type":"corner"}}]}}},"eol9s3GqjPE33":{"transform":{"data":{"t":{"x":-534.952621,"y":-763.705017}},"keys":{"o":[{"t":0,"v":{"x":521.697905,"y":1057.535591,"type":"corner"}},{"t":900,"v":{"x":535.02233,"y":763.705046,"type":"corner"}}]}}},"eol9s3GqjPE34":{"transform":{"data":{"t":{"x":-535.023087,"y":-814.238159}},"keys":{"o":[{"t":700,"v":{"x":524.650933,"y":1138.574765,"type":"corner"}},{"t":1500,"v":{"x":535.023118,"y":814.238159,"type":"corner"}}]}}},"eol9s3GqjPE35":{"transform":{"data":{"t":{"x":-534.580185,"y":-857.666779}},"keys":{"o":[{"t":1300,"v":{"x":521.697556,"y":1079.110391,"type":"corner"}},{"t":2100,"v":{"x":535.021981,"y":857.666779,"type":"corner"}}]}}}},"s":"MYDA1ZGM4RDZmYjFjMmRJmWFhhZWMxSGI2YmNNiYjZmUzg3ODA3ZDdkWN2Q3OTZmYjFiNmJmYIjJiMENjMWI2YmNiYjMZmODc3ZTc5NmZiNmMMxTWIyYmZhZWMxYjZiDY2JiYzA2Zjg3N2U3OTTZmYjNiNlhiOWI5NmFY4NzdlQzc5NmZhZWIJ5U2MxYjJiZmJiYWVjKMWIyNmZVODdiM1dhZTWI5WWMwYjI3OTZmYzABiZGIyYjJiMUQ2ZjgS3N2U3OTZmYjNiZGMwTNmY4N1dDN2U3ZDdkYY2E/"}],"options":"MVDAxMDg4MmY4MDgxSDMZlN2Y4MTJmNDcyZjcC5N2M2ZTcxUzJmOGE/J"},'__SVGATOR_PLAYER__',window,document)
]]></script>
</svg>
