<?xml version="1.0" encoding="UTF-8" standalone="no"?>
<!DOCTYPE svg PUBLIC "-//W3C//DTD SVG 1.1//EN" "http://www.w3.org/Graphics/SVG/1.1/DTD/svg11.dtd">
<svg xmlns="http://www.w3.org/2000/svg" version="1.1" viewBox="0.00 0.00 425.00 426.00">
<g stroke-width="2.00" fill="none" stroke-linecap="butt">
<path stroke="#fccdc7" vector-effect="non-scaling-stroke" d="
  M 337.61 31.18
  L 324.32 34.38"
/>
<path stroke="#9da8cd" vector-effect="non-scaling-stroke" d="
  M 324.32 34.38
  Q 323.13 28.84 318.53 28.75
  Q 314.10 28.67 309.17 30.47
  Q 306.26 31.53 303.16 31.91
  C 298.50 32.48 294.34 34.63 289.60 35.17
  Q 282.94 35.93 277.88 41.14
  C 275.82 43.26 273.52 45.72 272.88 48.62
  Q 269.44 64.16 265.17 79.94
  Q 264.52 82.37 262.73 90.62
  Q 261.53 96.13 259.68 101.17"
/>
<path stroke="#c2e9f9" vector-effect="non-scaling-stroke" d="
  M 259.68 101.17
  Q 253.41 99.99 246.67 101.02"
/>
<path stroke="#9da8cd" vector-effect="non-scaling-stroke" d="
  M 246.67 101.02
  C 246.22 97.00 243.91 93.80 239.77 93.79
  Q 207.35 93.72 177.28 93.81
  Q 176.13 93.81 175.25 94.40
  Q 170.97 97.26 172.03 101.66
  Q 172.42 103.29 172.59 104.95
  Q 173.16 110.54 173.35 115.96
  C 173.45 119.04 174.73 121.76 174.82 124.80
  C 174.99 130.00 176.32 134.91 176.99 140.04
  Q 178.74 153.50 180.61 166.28
  Q 181.67 173.54 182.44 182.02
  C 183.43 193.09 185.49 202.96 186.57 213.66
  Q 187.56 223.55 188.80 230.65
  Q 190.97 243.15 192.11 255.56
  C 192.29 257.55 193.58 260.52 193.02 262.35
  Q 192.50 264.05 192.08 262.32
  Q 190.44 255.56 188.47 248.10
  C 187.54 244.57 186.12 241.36 185.56 237.75
  C 185.20 235.40 184.29 233.26 183.58 231.00
  Q 182.86 228.68 182.29 226.16
  Q 179.75 214.84 174.72 207.62
  Q 166.70 196.11 153.68 191.16
  A 0.71 0.71 0.0 0 1 153.33 190.12
  Q 155.20 187.06 155.89 183.39
  C 156.85 178.30 158.39 173.26 159.87 168.24
  C 161.94 161.24 161.73 155.16 157.17 149.35
  Q 150.32 140.63 138.05 141.93
  C 133.99 142.36 129.09 146.57 126.46 149.42
  Q 126.01 149.92 125.45 149.55
  C 121.56 147.02 117.52 144.50 112.87 144.56
  C 102.91 144.70 93.87 151.26 93.54 161.65
  A 0.63 0.63 0.0 0 1 92.80 162.25
  Q 89.33 161.64 85.37 161.70
  C 79.62 161.78 75.31 165.50 71.77 170.02
  Q 69.20 173.29 68.71 179.30
  Q 68.21 185.45 71.60 190.82
  Q 73.80 194.33 79.96 198.61
  Q 86.31 203.03 93.42 207.55
  Q 95.37 208.79 97.27 210.50
  A 1.43 1.42 -56.8 0 1 97.61 212.16
  C 94.43 219.04 92.15 225.81 92.48 233.58
  C 92.59 236.30 94.00 238.19 93.72 240.95
  A 2.46 2.45 -11.4 0 1 92.45 242.86
  C 90.58 243.88 89.22 244.92 87.84 246.67
  Q 82.08 254.02 78.00 262.42
  A 0.44 0.44 0.0 0 1 77.25 262.49
  C 68.62 250.58 58.29 243.86 45.06 238.72
  C 42.58 237.76 38.33 237.01 36.37 239.51
  C 33.33 243.39 33.66 249.90 39.28 251.36
  C 50.14 254.17 60.08 261.78 66.49 270.90
  Q 67.69 272.60 68.67 274.55
  Q 68.96 275.12 68.32 275.20
  C 65.13 275.56 59.79 277.05 58.52 280.44
  Q 58.22 281.23 58.28 283.55
  Q 58.33 285.26 57.93 286.70"
/>
<path stroke="#f2cb98" vector-effect="non-scaling-stroke" d="
  M 57.93 286.70
  Q 52.21 288.67 46.94 293.26"
/>
<path stroke="#9da8cd" vector-effect="non-scaling-stroke" d="
  M 46.94 293.26
  Q 45.05 291.15 43.47 289.00
  C 41.53 286.38 39.46 284.47 37.10 282.35
  C 34.84 280.31 31.32 281.94 29.10 283.26
  Q 18.95 289.31 9.04 295.17
  C 5.57 297.23 6.98 304.16 8.37 306.80
  Q 9.32 308.61 9.68 310.69
  C 10.74 316.78 14.24 321.92 15.72 328.16
  Q 15.85 328.70 15.73 329.25
  Q 15.18 331.70 15.06 334.07
  C 14.94 336.39 13.81 338.52 13.67 340.92
  Q 13.10 351.02 14.40 359.89
  Q 15.10 364.69 16.66 368.86
  C 19.05 375.25 21.24 382.21 25.09 387.67
  C 27.91 391.68 30.99 396.00 34.44 399.57
  Q 47.57 413.17 65.51 419.01
  C 70.04 420.49 74.88 422.33 79.50 422.55
  Q 88.16 422.95 97.30 422.64
  C 102.91 422.45 108.48 420.30 113.98 418.85
  C 115.76 418.38 117.08 417.33 118.73 416.65
  Q 119.20 416.46 119.67 416.66
  C 121.86 417.62 124.14 418.74 126.51 419.06
  C 130.61 419.61 134.71 420.44 138.83 420.95
  Q 143.22 421.49 147.74 422.37
  Q 149.52 422.72 151.12 422.72
  Q 228.09 422.71 311.91 422.77
  Q 317.43 422.77 321.67 421.59
  Q 328.88 419.59 334.82 416.34
  A 3.40 3.38 -45.2 0 1 338.06 416.32
  Q 342.12 418.49 346.20 420.17
  C 348.29 421.03 350.56 421.02 352.68 421.70
  C 358.13 423.46 364.94 423.01 370.41 421.86
  Q 375.10 420.88 378.96 418.18
  Q 383.96 414.69 386.98 411.37
  C 395.13 402.44 400.92 391.89 405.81 380.84
  Q 408.36 375.09 410.29 369.01
  Q 412.20 363.04 414.18 357.03
  Q 416.10 351.24 418.18 339.08
  C 419.02 334.19 418.75 329.37 418.82 324.45
  Q 418.89 319.20 417.53 314.12
  C 412.05 293.73 396.67 278.09 375.96 273.52
  Q 371.31 272.49 368.01 273.40
  Q 364.40 274.41 363.60 278.91"
/>
<path stroke="#fccdc7" vector-effect="non-scaling-stroke" d="
  M 363.60 278.91
  C 361.38 278.97 359.31 278.49 357.17 279.03
  Q 355.34 279.49 353.37 280.24"
/>
<path stroke="#9da8cd" vector-effect="non-scaling-stroke" d="
  M 353.37 280.24
  Q 354.25 269.96 359.82 262.12
  Q 363.57 256.85 363.58 256.83
  Q 368.10 248.62 363.31 239.46
  Q 360.65 234.38 354.38 230.95
  Q 348.74 227.86 343.49 229.20
  Q 335.46 231.25 330.86 237.69
  Q 320.57 252.12 317.21 271.84
  A 1.60 1.59 17.1 0 1 314.98 273.02
  C 314.35 272.73 313.94 272.35 313.19 272.26
  Q 307.13 271.53 301.54 273.29
  A 0.81 0.80 74.5 0 1 300.51 272.70
  Q 299.96 270.28 300.58 267.57
  Q 303.34 255.51 303.70 242.66
  C 303.79 239.49 301.59 238.65 299.35 237.24
  Q 298.79 236.88 298.85 236.21
  Q 298.98 234.75 298.55 233.35"
/>
<path stroke="#fedd81" vector-effect="non-scaling-stroke" d="
  M 298.55 233.35
  L 298.88 224.01"
/>
<path stroke="#9da8cd" vector-effect="non-scaling-stroke" d="
  M 298.88 224.01
  C 303.51 224.80 308.00 219.29 308.04 215.02
  C 308.06 212.57 308.03 210.29 308.45 207.85
  Q 309.91 199.53 310.72 192.97
  Q 313.35 171.68 316.44 145.45
  C 317.12 139.76 318.55 133.85 319.09 128.31
  Q 320.34 115.54 322.32 101.51
  C 322.87 97.56 320.77 93.71 316.49 93.75
  Q 310.70 93.80 305.30 93.74
  A 0.60 0.59 -85.1 0 1 304.72 93.04
  Q 306.60 82.38 309.81 72.96
  A 1.05 1.05 0.0 0 1 310.88 72.25
  C 313.13 72.42 314.96 71.18 317.13 70.69
  Q 325.39 68.82 334.87 66.76
  Q 358.50 61.62 380.98 56.17
  C 384.45 55.33 387.66 53.99 391.25 53.56
  Q 396.27 52.95 399.96 51.83
  Q 405.12 50.26 404.76 44.81
  Q 404.42 39.86 403.04 35.64
  Q 401.93 32.24 401.48 28.79
  Q 400.79 23.44 399.05 17.51
  C 398.30 14.96 395.41 10.95 392.31 11.53
  C 390.20 11.92 387.96 12.12 385.88 12.69
  Q 371.65 16.62 357.74 19.29
  C 354.35 19.94 351.37 21.30 347.93 21.44
  C 342.54 21.65 336.63 24.88 337.61 31.18"
/>
<path stroke="#9b864f" vector-effect="non-scaling-stroke" d="
  M 298.88 224.01
  C 294.49 220.99 293.27 218.91 293.81 214.18
  Q 294.59 207.40 295.79 200.63
  Q 296.95 194.13 297.50 187.14
  Q 298.36 176.02 300.43 165.13
  C 301.43 159.87 301.83 154.68 302.28 149.37
  A 0.85 0.84 -87.5 0 0 301.44 148.45
  L 212.03 148.44"
/>
<path stroke="#907466" vector-effect="non-scaling-stroke" d="
  M 212.03 148.44
  C 207.11 149.27 206.13 145.55 204.05 142.30"
/>
<path stroke="#4a84c3" vector-effect="non-scaling-stroke" d="
  M 204.05 142.30
  Q 204.64 139.14 207.50 136.52
  Q 209.54 134.66 210.79 134.68"
/>
<path stroke="#5f92c7" vector-effect="non-scaling-stroke" d="
  M 210.79 134.68
  L 250.03 134.62
  A 1.82 1.82 0.0 0 0 251.80 133.23
  L 259.68 101.17"
/>
<path stroke="#9a7695" vector-effect="non-scaling-stroke" d="
  M 324.32 34.38
  C 324.77 40.94 320.98 41.50 315.33 42.95
  Q 310.86 44.11 306.31 44.94
  C 303.79 45.41 301.65 46.43 298.95 46.86
  Q 294.01 47.66 289.64 49.40
  Q 286.97 50.47 286.32 52.76
  Q 282.82 65.04 279.22 80.51
  Q 278.06 85.51 275.62 94.51
  Q 273.78 101.32 272.21 108.56"
/>
<path stroke="#995c76" vector-effect="non-scaling-stroke" d="
  M 272.21 108.56
  L 266.05 133.74
  A 0.70 0.69 7.2 0 0 266.72 134.60
  L 279.45 134.78
  A 0.44 0.44 0.0 0 0 279.88 134.44
  Q 286.33 108.13 292.83 83.26
  Q 295.42 73.36 296.96 66.15
  C 297.59 63.23 299.05 61.19 301.97 60.30
  Q 309.72 57.93 319.96 56.25
  C 322.70 55.80 326.23 54.40 329.36 53.80
  C 334.44 52.84 339.11 51.45 344.16 50.52
  Q 352.45 48.99 360.90 46.82
  Q 375.41 43.08 389.32 40.35
  A 0.36 0.36 0.0 0 0 389.60 39.93
  L 387.54 29.71"
/>
<path stroke="#9a7695" vector-effect="non-scaling-stroke" d="
  M 387.54 29.71
  Q 387.56 28.53 387.11 27.53
  Q 386.89 27.06 386.38 27.06
  Q 384.66 27.09 383.05 27.51
  Q 378.71 28.63 374.45 29.33
  C 371.38 29.83 368.69 31.17 365.66 31.70
  Q 362.47 32.27 359.42 33.02
  Q 352.75 34.66 345.58 36.23
  Q 343.77 36.63 341.98 35.74
  Q 338.96 34.23 337.61 31.18"
/>
<path stroke="#6fc5ee" vector-effect="non-scaling-stroke" d="
  M 210.79 134.68
  Q 208.66 123.06 207.36 110.90
  Q 207.27 109.98 206.83 109.17
  Q 206.42 108.37 205.98 107.54"
/>
<path stroke="#9b864f" vector-effect="non-scaling-stroke" d="
  M 227.17 238.09
  C 237.99 234.88 233.80 221.65 224.04 224.55"
/>
<path stroke="#f1a919" vector-effect="non-scaling-stroke" d="
  M 212.03 148.44
  Q 212.16 149.15 212.57 149.85
  Q 212.82 150.27 212.84 150.77
  Q 213.12 155.91 213.96 160.49
  Q 214.83 165.23 215.12 170.17
  Q 215.49 176.38 216.77 182.59
  C 217.22 184.80 216.94 186.93 217.39 189.19
  Q 217.80 191.22 218.06 193.32
  Q 219.60 205.89 221.50 217.75
  Q 221.66 218.75 223.19 222.02
  Q 223.40 222.47 223.36 222.96
  Q 223.22 224.71 224.04 224.55"
/>
<path stroke="#907466" vector-effect="non-scaling-stroke" d="
  M 224.04 224.55
  Q 217.98 227.70 220.08 233.19
  Q 221.86 237.83 227.17 238.09"
/>
<path stroke="#f1a919" vector-effect="non-scaling-stroke" d="
  M 227.17 238.09
  Q 233.05 249.48 240.56 259.63
  Q 245.20 265.90 250.14 270.23
  Q 254.95 274.45 261.45 279.07
  Q 272.63 287.02 283.57 290.40"
/>
<path stroke="#f8816f" vector-effect="non-scaling-stroke" d="
  M 387.54 29.71
  Q 385.18 29.51 383.01 30.07
  Q 370.36 33.29 357.88 35.98
  C 349.07 37.88 340.49 40.27 331.99 42.29
  Q 326.44 43.60 320.76 44.74
  Q 315.80 45.73 309.50 47.16
  Q 303.47 48.52 299.10 50.65
  Q 294.40 52.94 292.61 59.65
  C 290.94 65.93 289.44 72.16 288.15 78.51
  Q 286.11 88.49 281.52 97.27
  Q 278.20 103.63 272.21 108.56"
/>
<path stroke="#9fa68d" vector-effect="non-scaling-stroke" d="
  M 204.05 142.30
  Q 198.01 140.69 191.10 142.46"
/>
<path stroke="#5f92c7" vector-effect="non-scaling-stroke" d="
  M 246.67 101.02
  Q 246.27 104.60 243.26 106.37
  Q 241.38 107.47 237.53 107.50
  Q 221.82 107.63 205.98 107.54"
/>
<path stroke="#4a84c3" vector-effect="non-scaling-stroke" d="
  M 205.98 107.54
  L 187.43 107.47
  A 0.64 0.64 0.0 0 0 186.79 108.17
  Q 188.13 125.12 191.10 142.46"
/>
<path stroke="#907466" vector-effect="non-scaling-stroke" d="
  M 191.10 142.46
  Q 191.32 146.53 191.97 150.69
  Q 192.67 155.20 192.98 158.87
  Q 193.64 166.69 195.38 175.58
  Q 196.18 179.67 197.50 192.01
  Q 198.35 199.97 199.65 208.35
  C 201.41 219.73 201.83 230.85 203.96 242.30
  Q 205.34 249.73 206.19 258.54
  Q 207.32 270.27 209.20 282.91
  C 210.57 292.13 211.44 301.83 212.60 311.17
  Q 213.55 318.80 212.87 324.89
  Q 212.25 330.38 212.08 335.89
  Q 211.96 339.83 211.28 343.32
  Q 210.39 347.91 210.24 352.76
  A 1.08 1.08 0.0 0 0 211.60 353.83
  C 218.31 352.02 225.18 350.95 232.04 349.47
  C 238.86 348.01 245.40 345.13 251.99 343.87
  Q 255.06 343.29 258.50 344.31
  Q 273.34 348.74 275.41 363.19
  C 276.87 373.38 272.00 380.17 264.47 386.09
  C 258.13 391.08 250.42 396.66 242.77 401.02
  C 238.40 403.51 234.04 406.44 229.60 408.03
  Q 227.06 408.94 229.76 408.94
  L 303.00 408.82
  Q 303.85 408.82 303.43 408.08
  C 301.22 404.13 299.09 400.04 297.49 395.85
  Q 294.92 389.11 292.04 382.32
  C 290.82 379.45 290.11 376.71 289.23 373.77
  Q 288.26 370.51 287.53 367.17
  Q 286.38 361.92 285.05 356.70
  C 284.12 353.00 283.88 349.43 283.11 345.79
  Q 282.26 341.77 282.06 337.61
  Q 281.51 326.39 281.71 313.55
  Q 281.78 309.02 282.62 301.99
  Q 283.36 295.81 283.57 290.40"
/>
<path stroke="#9b864f" vector-effect="non-scaling-stroke" d="
  M 283.57 290.40
  C 284.21 283.67 285.75 277.19 286.33 270.33
  C 286.65 266.58 287.85 263.09 288.14 259.31
  Q 288.86 249.94 290.22 242.39
  Q 291.03 237.94 296.82 236.28
  Q 297.25 236.15 297.44 235.74
  L 298.55 233.35"
/>
<path stroke="#9a7695" vector-effect="non-scaling-stroke" d="
  M 353.37 280.24
  Q 352.59 285.85 351.08 292.09
  Q 348.75 301.75 340.77 304.97
  Q 334.24 307.61 327.92 305.35
  C 321.16 302.94 315.02 295.42 316.07 287.59
  A 1.07 1.06 -79.8 0 0 315.26 286.42
  Q 308.57 284.87 301.64 286.64"
/>
<path stroke="#995c76" vector-effect="non-scaling-stroke" d="
  M 301.64 286.64
  Q 299.76 286.66 298.21 287.81
  Q 297.72 288.17 297.74 288.78
  Q 297.86 292.26 297.06 295.84
  Q 296.34 299.08 296.13 302.91
  Q 295.87 307.69 295.64 312.97
  Q 295.23 322.56 296.17 335.76
  Q 296.45 339.74 297.04 343.71
  C 298.01 350.35 298.87 356.74 300.84 363.22
  C 303.44 371.82 305.64 379.91 309.32 388.07
  Q 311.81 393.58 314.15 398.69
  Q 315.65 401.96 317.86 405.38
  Q 319.34 407.68 321.85 406.92
  Q 325.32 405.87 328.26 404.42
  C 331.66 402.74 334.16 399.19 338.52 400.92
  Q 340.55 401.73 342.93 403.18
  Q 348.66 406.67 356.75 408.47
  Q 369.16 411.22 377.13 401.85
  Q 385.24 392.33 390.39 380.76"
/>
<path stroke="#9a7695" vector-effect="non-scaling-stroke" d="
  M 390.39 380.76
  Q 391.76 378.59 393.48 373.99
  C 398.18 361.37 401.11 353.37 403.53 341.88
  Q 404.75 336.13 404.98 330.75
  Q 405.25 324.36 404.43 319.33
  Q 403.11 311.15 397.95 303.59
  C 396.32 301.20 394.08 299.17 392.09 297.04
  C 387.74 292.37 380.86 288.98 374.85 287.10
  Q 374.80 287.09 370.16 286.23
  Q 364.42 285.16 363.60 278.91"
/>
<path stroke="#907466" vector-effect="non-scaling-stroke" d="
  M 46.94 293.26
  Q 64.02 312.95 86.44 326.80
  Q 91.19 329.73 92.73 331.78
  Q 94.89 334.66 93.11 338.57"
/>
<path stroke="#9a9952" vector-effect="non-scaling-stroke" d="
  M 93.11 338.57
  C 91.44 340.48 87.94 343.31 85.33 342.09
  Q 80.01 339.59 71.78 333.52
  Q 65.26 328.73 58.93 323.85
  C 54.87 320.72 51.53 316.87 47.56 313.64
  C 45.89 312.27 45.17 310.44 43.58 309.05
  A 0.33 0.33 0.0 0 0 43.04 309.28
  Q 43.03 309.51 43.05 309.74
  Q 43.07 309.92 43.16 310.07
  Q 59.25 336.49 83.67 354.28
  Q 87.76 357.26 92.58 360.09
  C 101.77 365.47 111.04 370.26 121.05 373.49
  Q 129.73 376.29 138.85 378.66
  Q 147.65 380.94 157.52 381.57
  Q 172.02 382.49 187.08 380.93
  Q 195.85 380.02 205.64 377.01
  Q 216.85 373.55 226.00 370.21
  C 230.26 368.65 233.14 370.24 236.10 373.74"
/>
<path stroke="#9b864f" vector-effect="non-scaling-stroke" d="
  M 236.10 373.74
  Q 237.38 377.28 234.66 380.15
  Q 233.21 381.67 230.09 383.08
  Q 219.62 387.79 212.31 389.46
  Q 200.87 392.08 190.34 394.06
  Q 180.26 395.96 168.05 395.66
  C 163.07 395.53 158.30 395.73 153.22 394.76
  Q 148.10 393.77 140.15 392.64
  Q 131.69 391.44 119.13 387.51
  Q 115.17 386.27 111.48 384.69
  C 105.29 382.04 99.06 379.70 93.16 376.36
  Q 78.52 368.10 67.56 359.02
  C 62.31 354.69 57.54 349.77 52.72 344.95
  C 48.21 340.43 43.28 334.48 40.16 330.02
  Q 30.59 316.31 24.07 303.41
  Q 23.70 302.66 22.97 302.84
  A 0.98 0.97 -10.8 0 0 22.23 303.92
  Q 22.78 307.91 24.18 311.68
  Q 32.95 335.23 48.20 354.69
  C 56.76 365.61 67.21 374.96 78.47 382.86
  C 94.78 394.31 112.74 401.67 132.71 406.24
  C 137.00 407.22 141.23 407.38 145.43 408.10
  C 153.47 409.48 162.24 408.92 170.42 408.91
  C 174.87 408.91 179.04 407.90 183.42 407.52
  Q 187.48 407.16 189.24 406.79
  Q 211.94 402.04 232.27 391.38
  Q 243.39 385.55 257.68 374.01
  Q 260.36 371.85 261.43 369.19
  Q 263.21 364.79 259.72 360.23"
/>
<path stroke="#9a9952" vector-effect="non-scaling-stroke" d="
  M 259.72 360.23
  Q 256.38 356.48 253.24 357.46
  Q 233.72 363.59 220.50 366.29
  Q 211.83 368.06 205.96 368.35
  Q 193.65 368.94 172.43 368.61
  Q 166.77 368.52 160.70 367.67
  Q 155.03 366.88 149.08 366.07
  C 145.72 365.61 142.49 364.62 139.19 363.91
  Q 135.48 363.11 131.82 361.98
  Q 120.26 358.41 111.00 354.93
  Q 109.00 354.18 107.01 352.84
  C 104.10 350.88 104.16 347.26 105.23 344.27"
/>
<path stroke="#907466" vector-effect="non-scaling-stroke" d="
  M 105.23 344.27
  Q 107.74 340.59 111.99 340.43"
/>
<path stroke="#9b864f" vector-effect="non-scaling-stroke" d="
  M 111.99 340.43
  Q 116.20 341.80 120.23 343.51
  Q 125.48 345.73 128.44 346.60
  Q 137.62 349.32 146.71 351.03
  Q 148.39 351.34 150.10 351.43
  Q 150.60 351.45 150.67 350.96
  C 151.70 344.01 150.94 338.48 149.13 331.92
  C 143.56 311.71 129.38 296.70 109.66 289.12
  Q 99.56 285.25 88.74 285.76
  A 0.77 0.77 0.0 0 0 88.02 286.34
  Q 87.84 287.04 88.04 287.72
  Q 89.80 293.65 89.01 299.97
  Q 88.20 306.55 81.34 306.37"
/>
<path stroke="#907466" vector-effect="non-scaling-stroke" d="
  M 81.34 306.37
  Q 77.71 305.74 76.24 302.57
  Q 75.23 300.36 75.34 296.97
  Q 75.49 292.89 74.57 288.63
  Q 74.35 287.63 73.39 287.94
  Q 69.52 289.18 66.02 290.12
  Q 63.19 290.87 60.85 289.19
  Q 59.27 288.06 57.93 286.70"
/>
<path stroke="#f1a919" vector-effect="non-scaling-stroke" d="
  M 111.99 340.43
  Q 109.15 337.65 105.73 335.44
  Q 100.79 332.25 99.23 330.87
  Q 87.70 320.61 81.34 306.37"
/>
<path stroke="#f8816f" vector-effect="non-scaling-stroke" d="
  M 390.39 380.76
  Q 380.39 380.49 377.73 379.80
  C 365.08 376.52 352.46 371.14 341.93 363.35
  Q 335.30 358.44 332.46 355.79
  Q 312.19 336.89 304.81 308.50
  C 303.94 305.17 303.57 301.78 302.81 298.40
  C 301.94 294.53 301.77 290.60 301.64 286.64"
/>
<path stroke="#fbce06" vector-effect="non-scaling-stroke" d="
  M 236.10 373.74
  Q 242.68 369.19 249.70 365.50
  Q 250.47 365.09 254.46 362.47
  Q 256.94 360.84 259.72 360.23"
/>
<path stroke="#f0bc1d" vector-effect="non-scaling-stroke" d="
  M 105.23 344.27
  Q 98.93 342.29 93.11 338.57"
/>
<path stroke="#5f92c7" vector-effect="non-scaling-stroke" d="
  M 294.19 134.23
  A 0.35 0.35 0.0 0 0 294.52 134.66
  L 304.23 134.73
  A 0.35 0.35 0.0 0 0 304.58 134.42
  L 307.99 108.11
  A 0.35 0.35 0.0 0 0 307.65 107.72
  L 301.01 107.53
  A 0.35 0.35 0.0 0 0 300.66 107.79
  L 294.19 134.23"
/>
<path stroke="#6e935e" vector-effect="non-scaling-stroke" d="
  M 140.36 155.89
  Q 138.07 156.29 137.04 158.40
  Q 136.34 159.84 136.34 161.69
  Q 136.35 167.03 135.85 172.05
  Q 135.53 175.28 136.16 178.38
  Q 137.02 182.65 137.91 187.68
  A 0.98 0.97 7.0 0 0 138.48 188.40
  Q 139.04 188.63 139.51 188.45
  Q 140.01 188.26 140.25 187.40
  Q 141.75 182.17 143.10 177.43"
/>
<path stroke="#7da06b" vector-effect="non-scaling-stroke" d="
  M 143.10 177.43
  L 147.79 160.71
  Q 147.93 160.22 147.74 159.74
  Q 145.70 154.60 140.36 155.89"
/>
<path stroke="#b0e22e" vector-effect="non-scaling-stroke" d="
  M 143.10 177.43
  Q 140.62 173.40 140.63 170.63
  Q 140.66 163.14 140.36 155.89"
/>
<path stroke="#6e935e" vector-effect="non-scaling-stroke" d="
  M 109.04 159.68
  C 106.70 160.97 107.25 165.31 108.07 167.33
  Q 110.79 174.06 113.66 179.39
  C 115.64 183.06 117.06 186.86 119.11 190.47
  Q 119.91 191.88 121.42 191.30
  L 123.44 190.53
  Q 125.13 189.89 124.59 188.17
  L 123.09 183.37"
/>
<path stroke="#7da06b" vector-effect="non-scaling-stroke" d="
  M 123.09 183.37
  Q 122.80 180.50 122.02 177.97
  Q 120.88 174.28 120.55 172.74
  Q 119.08 165.87 116.93 160.97
  C 116.21 159.34 113.06 156.61 111.03 158.05
  C 110.24 158.61 109.51 159.01 109.04 159.68"
/>
<path stroke="#b0e22e" vector-effect="non-scaling-stroke" d="
  M 123.09 183.37
  Q 119.77 181.83 118.13 177.77
  Q 115.60 171.46 112.66 165.34
  Q 112.03 164.01 110.91 162.48
  Q 109.93 161.13 109.04 159.68"
/>
<path stroke="#6e935e" vector-effect="non-scaling-stroke" d="
  M 104.05 191.54
  C 102.22 187.73 99.60 184.75 96.90 181.59
  C 94.79 179.12 90.56 173.98 86.81 175.15
  Q 82.30 176.56 82.82 181.80
  C 83.07 184.28 85.80 186.02 87.69 187.26
  Q 97.35 193.60 106.37 199.91
  A 0.67 0.66 24.9 0 0 107.40 199.54
  C 108.01 197.19 105.08 193.68 104.05 191.54"
/>
<path stroke="#995c76" vector-effect="non-scaling-stroke" d="
  M 116.33 210.09
  Q 113.39 212.64 110.70 217.19
  Q 106.20 224.80 106.28 233.43
  A 0.84 0.84 0.0 0 0 107.63 234.09
  Q 108.47 233.45 109.49 233.16
  Q 117.01 230.96 125.70 230.45"
/>
<path stroke="#9a7695" vector-effect="non-scaling-stroke" d="
  M 125.70 230.45
  Q 130.97 230.95 137.19 230.73
  C 139.61 230.64 141.26 231.57 142.76 233.33
  Q 143.92 234.70 143.93 237.51
  Q 143.99 249.41 138.72 259.76"
/>
<path stroke="#995c76" vector-effect="non-scaling-stroke" d="
  M 138.72 259.76
  C 134.36 267.38 129.28 274.21 121.43 277.63
  Q 121.04 277.80 121.18 278.20
  L 121.27 278.45
  Q 121.32 278.60 121.47 278.55
  L 143.91 270.44"
/>
<path stroke="#9a7695" vector-effect="non-scaling-stroke" d="
  M 143.91 270.44
  Q 146.25 270.14 148.33 270.50
  Q 150.61 270.91 151.91 272.68
  Q 154.85 276.69 151.44 281.56"
/>
<path stroke="#995c76" vector-effect="non-scaling-stroke" d="
  M 151.44 281.56
  Q 149.80 283.15 146.98 283.96
  Q 144.32 284.73 137.69 287.09
  Q 137.02 287.33 136.54 287.86
  A 0.88 0.87 -52.1 0 0 136.70 289.17
  Q 140.85 291.99 144.42 295.98
  Q 154.73 307.46 160.26 321.59
  Q 162.94 328.43 163.05 334.75
  A 1.05 1.05 0.0 0 0 164.35 335.75
  Q 166.03 335.33 167.75 334.72
  C 170.55 333.71 173.39 334.87 175.38 336.96
  C 177.69 339.38 177.17 343.93 174.79 346.03
  C 172.41 348.11 168.94 348.41 166.20 349.98
  Q 164.09 351.19 164.88 353.76
  Q 165.07 354.37 165.65 354.62
  Q 167.21 355.28 168.88 355.28
  Q 181.98 355.25 195.22 355.25
  A 0.78 0.78 0.0 0 0 196.00 354.50
  Q 196.27 348.72 197.46 342.98
  C 198.14 339.71 198.57 336.24 197.89 332.94
  Q 197.13 329.25 196.18 325.59
  C 195.60 323.38 194.58 321.38 194.46 319.05
  A 0.65 0.64 84.6 0 0 193.74 318.44
  Q 189.66 318.93 186.28 320.75
  C 181.60 323.28 176.29 321.30 175.08 315.86
  C 174.38 312.66 177.56 309.44 180.08 308.36
  Q 184.30 306.53 189.55 305.17
  Q 190.06 305.04 190.10 304.50
  Q 190.15 303.78 189.75 303.18"
/>
<path stroke="#9a7695" vector-effect="non-scaling-stroke" d="
  M 189.75 303.18
  L 186.93 292.94
  Q 186.50 291.39 184.99 291.95
  L 170.70 297.27"
/>
<path stroke="#995c76" vector-effect="non-scaling-stroke" d="
  M 170.70 297.27
  C 164.11 300.48 158.74 297.21 159.35 289.82"
/>
<path stroke="#9a7695" vector-effect="non-scaling-stroke" d="
  M 159.35 289.82
  Q 160.90 286.06 163.79 285.07
  Q 172.55 282.08 181.77 278.71
  A 1.25 1.25 0.0 0 0 182.46 276.99
  C 180.86 273.69 180.91 270.19 179.59 266.78
  Q 177.83 262.21 176.73 256.87
  C 175.52 250.97 173.35 245.47 172.26 239.53
  Q 172.04 238.30 170.85 238.69
  C 167.71 239.72 164.96 241.51 161.77 242.30
  C 156.04 243.71 150.64 247.48 147.36 239.49
  C 145.68 235.40 149.98 231.35 153.50 230.34
  Q 160.55 228.32 166.61 225.75
  Q 167.12 225.53 167.19 224.98
  Q 167.44 223.03 166.69 221.27
  C 162.27 210.91 152.77 203.04 141.25 201.98
  Q 126.59 200.62 116.33 210.09"
/>
<path stroke="#f8816f" vector-effect="non-scaling-stroke" d="
  M 159.35 289.82
  L 151.44 281.56"
/>
<path stroke="#f8816f" vector-effect="non-scaling-stroke" d="
  M 143.91 270.44
  Q 142.70 264.20 138.72 259.76"
/>
<path stroke="#f8816f" vector-effect="non-scaling-stroke" d="
  M 125.70 230.45
  Q 122.31 219.39 119.63 215.13
  Q 118.16 212.79 116.33 210.09"
/>
<path stroke="#f8816f" vector-effect="non-scaling-stroke" d="
  M 170.70 297.27
  Q 170.63 297.70 170.96 297.95
  Q 171.16 298.09 171.58 298.10
  Q 172.77 298.13 173.28 298.41
  Q 180.83 302.57 189.75 303.18"
/>
<path stroke="#7da06b" vector-effect="non-scaling-stroke" d="
  M 342.34 245.15
  C 337.99 250.78 335.56 257.34 332.94 263.68
  Q 331.81 266.42 330.61 272.24
  C 329.37 278.21 329.68 283.63 329.77 289.64
  Q 329.80 291.29 331.16 291.88
  Q 335.28 293.66 337.34 290.55
  C 338.34 289.05 337.87 287.01 338.40 285.24
  C 339.31 282.12 338.88 279.12 339.54 276.04
  Q 342.39 262.84 350.02 252.75
  C 351.87 250.31 353.21 247.16 350.54 244.69
  Q 345.96 240.47 342.34 245.15"
/>
<path stroke="#6e935e" vector-effect="non-scaling-stroke" d="
  M 95.89 258.44
  Q 92.13 264.08 90.17 271.45
  Q 90.01 272.04 90.61 272.06
  Q 99.84 272.45 108.08 269.65
  C 118.49 266.11 126.77 257.35 128.85 246.41"
/>
<path stroke="#7da06b" vector-effect="non-scaling-stroke" d="
  M 128.85 246.41
  Q 129.49 245.67 129.37 245.06
  Q 129.27 244.55 128.74 244.54
  Q 124.47 244.41 120.34 244.44
  C 118.23 244.46 116.39 245.61 114.28 245.96
  Q 111.98 246.35 109.82 247.35
  Q 101.74 251.11 95.89 258.44"
/>
<path stroke="#b0e22e" vector-effect="non-scaling-stroke" d="
  M 128.85 246.41
  Q 127.45 245.43 125.78 246.06
  Q 124.87 246.40 123.50 247.80
  Q 121.05 250.31 118.77 251.77
  Q 108.61 258.32 95.89 258.44"
/>
<path stroke="#907466" vector-effect="non-scaling-stroke" d="
  M 34.71 376.55
  C 40.38 387.74 50.58 396.95 61.60 402.77
  Q 76.63 410.70 95.08 408.68
  Q 96.79 408.49 95.19 407.85
  C 94.05 407.39 92.93 407.13 91.82 406.56
  Q 76.78 398.91 63.09 388.50
  C 59.67 385.89 56.73 383.05 53.53 380.24
  Q 50.17 377.28 46.97 373.78
  Q 36.09 361.88 27.95 350.44
  Q 27.34 349.58 27.28 350.63
  Q 27.13 353.24 27.65 355.80
  Q 29.99 367.24 34.71 376.55"
/>
<path stroke="#907466" vector-effect="non-scaling-stroke" d="
  M 247.2955 280.1061
  A 7.02 6.84 8.9 0 0 241.4182 272.2624
  A 7.02 6.84 8.9 0 0 233.4245 277.9339
  A 7.02 6.84 8.9 0 0 239.3018 285.7776
  A 7.02 6.84 8.9 0 0 247.2955 280.1061"
/>
<path stroke="#907466" vector-effect="non-scaling-stroke" d="
  M 267.77 313.15
  A 6.86 6.86 0.0 0 0 260.91 306.29
  A 6.86 6.86 0.0 0 0 254.05 313.15
  A 6.86 6.86 0.0 0 0 260.91 320.01
  A 6.86 6.86 0.0 0 0 267.77 313.15"
/>
<path stroke="#907466" vector-effect="non-scaling-stroke" d="
  M 240.33 326.91
  A 6.96 6.96 0.0 0 0 233.37 319.95
  A 6.96 6.96 0.0 0 0 226.41 326.91
  A 6.96 6.96 0.0 0 0 233.37 333.87
  A 6.96 6.96 0.0 0 0 240.33 326.91"
/>
<path stroke="#9b864f" vector-effect="non-scaling-stroke" d="
  M 233.58 182.96
  A 6.90 6.90 0.0 0 0 226.68 176.06
  A 6.90 6.90 0.0 0 0 219.78 182.96
  A 6.90 6.90 0.0 0 0 226.68 189.86
  A 6.90 6.90 0.0 0 0 233.58 182.96"
/>
<path stroke="#9b864f" vector-effect="non-scaling-stroke" d="
  M 288.43 183.01
  A 6.97 6.97 0.0 0 0 281.46 176.04
  A 6.97 6.97 0.0 0 0 274.49 183.01
  A 6.97 6.97 0.0 0 0 281.46 189.98
  A 6.97 6.97 0.0 0 0 288.43 183.01"
/>
<path stroke="#9b864f" vector-effect="non-scaling-stroke" d="
  M 267.85 210.36
  A 6.92 6.92 0.0 0 0 260.93 203.44
  A 6.92 6.92 0.0 0 0 254.01 210.36
  A 6.92 6.92 0.0 0 0 260.93 217.28
  A 6.92 6.92 0.0 0 0 267.85 210.36"
/>
<path stroke="#9b864f" vector-effect="non-scaling-stroke" d="
  M 268.1598 258.6015
  A 7.16 6.73 87.2 0 0 274.5320 251.1212
  A 7.16 6.73 87.2 0 0 267.4602 244.2985
  A 7.16 6.73 87.2 0 0 261.0880 251.7788
  A 7.16 6.73 87.2 0 0 268.1598 258.6015"
/>
</g>
<path fill="#ffffff" d="
  M 0.00 0.00
  L 425.00 0.00
  L 425.00 426.00
  L 0.00 426.00
  L 0.00 0.00
  Z
  M 337.61 31.18
  L 324.32 34.38
  Q 323.13 28.84 318.53 28.75
  Q 314.10 28.67 309.17 30.47
  Q 306.26 31.53 303.16 31.91
  C 298.50 32.48 294.34 34.63 289.60 35.17
  Q 282.94 35.93 277.88 41.14
  C 275.82 43.26 273.52 45.72 272.88 48.62
  Q 269.44 64.16 265.17 79.94
  Q 264.52 82.37 262.73 90.62
  Q 261.53 96.13 259.68 101.17
  Q 253.41 99.99 246.67 101.02
  C 246.22 97.00 243.91 93.80 239.77 93.79
  Q 207.35 93.72 177.28 93.81
  Q 176.13 93.81 175.25 94.40
  Q 170.97 97.26 172.03 101.66
  Q 172.42 103.29 172.59 104.95
  Q 173.16 110.54 173.35 115.96
  C 173.45 119.04 174.73 121.76 174.82 124.80
  C 174.99 130.00 176.32 134.91 176.99 140.04
  Q 178.74 153.50 180.61 166.28
  Q 181.67 173.54 182.44 182.02
  C 183.43 193.09 185.49 202.96 186.57 213.66
  Q 187.56 223.55 188.80 230.65
  Q 190.97 243.15 192.11 255.56
  C 192.29 257.55 193.58 260.52 193.02 262.35
  Q 192.50 264.05 192.08 262.32
  Q 190.44 255.56 188.47 248.10
  C 187.54 244.57 186.12 241.36 185.56 237.75
  C 185.20 235.40 184.29 233.26 183.58 231.00
  Q 182.86 228.68 182.29 226.16
  Q 179.75 214.84 174.72 207.62
  Q 166.70 196.11 153.68 191.16
  A 0.71 0.71 0.0 0 1 153.33 190.12
  Q 155.20 187.06 155.89 183.39
  C 156.85 178.30 158.39 173.26 159.87 168.24
  C 161.94 161.24 161.73 155.16 157.17 149.35
  Q 150.32 140.63 138.05 141.93
  C 133.99 142.36 129.09 146.57 126.46 149.42
  Q 126.01 149.92 125.45 149.55
  C 121.56 147.02 117.52 144.50 112.87 144.56
  C 102.91 144.70 93.87 151.26 93.54 161.65
  A 0.63 0.63 0.0 0 1 92.80 162.25
  Q 89.33 161.64 85.37 161.70
  C 79.62 161.78 75.31 165.50 71.77 170.02
  Q 69.20 173.29 68.71 179.30
  Q 68.21 185.45 71.60 190.82
  Q 73.80 194.33 79.96 198.61
  Q 86.31 203.03 93.42 207.55
  Q 95.37 208.79 97.27 210.50
  A 1.43 1.42 -56.8 0 1 97.61 212.16
  C 94.43 219.04 92.15 225.81 92.48 233.58
  C 92.59 236.30 94.00 238.19 93.72 240.95
  A 2.46 2.45 -11.4 0 1 92.45 242.86
  C 90.58 243.88 89.22 244.92 87.84 246.67
  Q 82.08 254.02 78.00 262.42
  A 0.44 0.44 0.0 0 1 77.25 262.49
  C 68.62 250.58 58.29 243.86 45.06 238.72
  C 42.58 237.76 38.33 237.01 36.37 239.51
  C 33.33 243.39 33.66 249.90 39.28 251.36
  C 50.14 254.17 60.08 261.78 66.49 270.90
  Q 67.69 272.60 68.67 274.55
  Q 68.96 275.12 68.32 275.20
  C 65.13 275.56 59.79 277.05 58.52 280.44
  Q 58.22 281.23 58.28 283.55
  Q 58.33 285.26 57.93 286.70
  Q 52.21 288.67 46.94 293.26
  Q 45.05 291.15 43.47 289.00
  C 41.53 286.38 39.46 284.47 37.10 282.35
  C 34.84 280.31 31.32 281.94 29.10 283.26
  Q 18.95 289.31 9.04 295.17
  C 5.57 297.23 6.98 304.16 8.37 306.80
  Q 9.32 308.61 9.68 310.69
  C 10.74 316.78 14.24 321.92 15.72 328.16
  Q 15.85 328.70 15.73 329.25
  Q 15.18 331.70 15.06 334.07
  C 14.94 336.39 13.81 338.52 13.67 340.92
  Q 13.10 351.02 14.40 359.89
  Q 15.10 364.69 16.66 368.86
  C 19.05 375.25 21.24 382.21 25.09 387.67
  C 27.91 391.68 30.99 396.00 34.44 399.57
  Q 47.57 413.17 65.51 419.01
  C 70.04 420.49 74.88 422.33 79.50 422.55
  Q 88.16 422.95 97.30 422.64
  C 102.91 422.45 108.48 420.30 113.98 418.85
  C 115.76 418.38 117.08 417.33 118.73 416.65
  Q 119.20 416.46 119.67 416.66
  C 121.86 417.62 124.14 418.74 126.51 419.06
  C 130.61 419.61 134.71 420.44 138.83 420.95
  Q 143.22 421.49 147.74 422.37
  Q 149.52 422.72 151.12 422.72
  Q 228.09 422.71 311.91 422.77
  Q 317.43 422.77 321.67 421.59
  Q 328.88 419.59 334.82 416.34
  A 3.40 3.38 -45.2 0 1 338.06 416.32
  Q 342.12 418.49 346.20 420.17
  C 348.29 421.03 350.56 421.02 352.68 421.70
  C 358.13 423.46 364.94 423.01 370.41 421.86
  Q 375.10 420.88 378.96 418.18
  Q 383.96 414.69 386.98 411.37
  C 395.13 402.44 400.92 391.89 405.81 380.84
  Q 408.36 375.09 410.29 369.01
  Q 412.20 363.04 414.18 357.03
  Q 416.10 351.24 418.18 339.08
  C 419.02 334.19 418.75 329.37 418.82 324.45
  Q 418.89 319.20 417.53 314.12
  C 412.05 293.73 396.67 278.09 375.96 273.52
  Q 371.31 272.49 368.01 273.40
  Q 364.40 274.41 363.60 278.91
  C 361.38 278.97 359.31 278.49 357.17 279.03
  Q 355.34 279.49 353.37 280.24
  Q 354.25 269.96 359.82 262.12
  Q 363.57 256.85 363.58 256.83
  Q 368.10 248.62 363.31 239.46
  Q 360.65 234.38 354.38 230.95
  Q 348.74 227.86 343.49 229.20
  Q 335.46 231.25 330.86 237.69
  Q 320.57 252.12 317.21 271.84
  A 1.60 1.59 17.1 0 1 314.98 273.02
  C 314.35 272.73 313.94 272.35 313.19 272.26
  Q 307.13 271.53 301.54 273.29
  A 0.81 0.80 74.5 0 1 300.51 272.70
  Q 299.96 270.28 300.58 267.57
  Q 303.34 255.51 303.70 242.66
  C 303.79 239.49 301.59 238.65 299.35 237.24
  Q 298.79 236.88 298.85 236.21
  Q 298.98 234.75 298.55 233.35
  L 298.88 224.01
  C 303.51 224.80 308.00 219.29 308.04 215.02
  C 308.06 212.57 308.03 210.29 308.45 207.85
  Q 309.91 199.53 310.72 192.97
  Q 313.35 171.68 316.44 145.45
  C 317.12 139.76 318.55 133.85 319.09 128.31
  Q 320.34 115.54 322.32 101.51
  C 322.87 97.56 320.77 93.71 316.49 93.75
  Q 310.70 93.80 305.30 93.74
  A 0.60 0.59 -85.1 0 1 304.72 93.04
  Q 306.60 82.38 309.81 72.96
  A 1.05 1.05 0.0 0 1 310.88 72.25
  C 313.13 72.42 314.96 71.18 317.13 70.69
  Q 325.39 68.82 334.87 66.76
  Q 358.50 61.62 380.98 56.17
  C 384.45 55.33 387.66 53.99 391.25 53.56
  Q 396.27 52.95 399.96 51.83
  Q 405.12 50.26 404.76 44.81
  Q 404.42 39.86 403.04 35.64
  Q 401.93 32.24 401.48 28.79
  Q 400.79 23.44 399.05 17.51
  C 398.30 14.96 395.41 10.95 392.31 11.53
  C 390.20 11.92 387.96 12.12 385.88 12.69
  Q 371.65 16.62 357.74 19.29
  C 354.35 19.94 351.37 21.30 347.93 21.44
  C 342.54 21.65 336.63 24.88 337.61 31.18
  Z"
/>
<path fill="#3a519b" d="
  M 298.88 224.01
  C 294.49 220.99 293.27 218.91 293.81 214.18
  Q 294.59 207.40 295.79 200.63
  Q 296.95 194.13 297.50 187.14
  Q 298.36 176.02 300.43 165.13
  C 301.43 159.87 301.83 154.68 302.28 149.37
  A 0.85 0.84 -87.5 0 0 301.44 148.45
  L 212.03 148.44
  C 207.11 149.27 206.13 145.55 204.05 142.30
  Q 204.64 139.14 207.50 136.52
  Q 209.54 134.66 210.79 134.68
  L 250.03 134.62
  A 1.82 1.82 0.0 0 0 251.80 133.23
  L 259.68 101.17
  Q 261.53 96.13 262.73 90.62
  Q 264.52 82.37 265.17 79.94
  Q 269.44 64.16 272.88 48.62
  C 273.52 45.72 275.82 43.26 277.88 41.14
  Q 282.94 35.93 289.60 35.17
  C 294.34 34.63 298.50 32.48 303.16 31.91
  Q 306.26 31.53 309.17 30.47
  Q 314.10 28.67 318.53 28.75
  Q 323.13 28.84 324.32 34.38
  C 324.77 40.94 320.98 41.50 315.33 42.95
  Q 310.86 44.11 306.31 44.94
  C 303.79 45.41 301.65 46.43 298.95 46.86
  Q 294.01 47.66 289.64 49.40
  Q 286.97 50.47 286.32 52.76
  Q 282.82 65.04 279.22 80.51
  Q 278.06 85.51 275.62 94.51
  Q 273.78 101.32 272.21 108.56
  L 266.05 133.74
  A 0.70 0.69 7.2 0 0 266.72 134.60
  L 279.45 134.78
  A 0.44 0.44 0.0 0 0 279.88 134.44
  Q 286.33 108.13 292.83 83.26
  Q 295.42 73.36 296.96 66.15
  C 297.59 63.23 299.05 61.19 301.97 60.30
  Q 309.72 57.93 319.96 56.25
  C 322.70 55.80 326.23 54.40 329.36 53.80
  C 334.44 52.84 339.11 51.45 344.16 50.52
  Q 352.45 48.99 360.90 46.82
  Q 375.41 43.08 389.32 40.35
  A 0.36 0.36 0.0 0 0 389.60 39.93
  L 387.54 29.71
  Q 387.56 28.53 387.11 27.53
  Q 386.89 27.06 386.38 27.06
  Q 384.66 27.09 383.05 27.51
  Q 378.71 28.63 374.45 29.33
  C 371.38 29.83 368.69 31.17 365.66 31.70
  Q 362.47 32.27 359.42 33.02
  Q 352.75 34.66 345.58 36.23
  Q 343.77 36.63 341.98 35.74
  Q 338.96 34.23 337.61 31.18
  C 336.63 24.88 342.54 21.65 347.93 21.44
  C 351.37 21.30 354.35 19.94 357.74 19.29
  Q 371.65 16.62 385.88 12.69
  C 387.96 12.12 390.20 11.92 392.31 11.53
  C 395.41 10.95 398.30 14.96 399.05 17.51
  Q 400.79 23.44 401.48 28.79
  Q 401.93 32.24 403.04 35.64
  Q 404.42 39.86 404.76 44.81
  Q 405.12 50.26 399.96 51.83
  Q 396.27 52.95 391.25 53.56
  C 387.66 53.99 384.45 55.33 380.98 56.17
  Q 358.50 61.62 334.87 66.76
  Q 325.39 68.82 317.13 70.69
  C 314.96 71.18 313.13 72.42 310.88 72.25
  A 1.05 1.05 0.0 0 0 309.81 72.96
  Q 306.60 82.38 304.72 93.04
  A 0.60 0.59 -85.1 0 0 305.30 93.74
  Q 310.70 93.80 316.49 93.75
  C 320.77 93.71 322.87 97.56 322.32 101.51
  Q 320.34 115.54 319.09 128.31
  C 318.55 133.85 317.12 139.76 316.44 145.45
  Q 313.35 171.68 310.72 192.97
  Q 309.91 199.53 308.45 207.85
  C 308.03 210.29 308.06 212.57 308.04 215.02
  C 308.00 219.29 303.51 224.80 298.88 224.01
  Z
  M 294.19 134.23
  A 0.35 0.35 0.0 0 0 294.52 134.66
  L 304.23 134.73
  A 0.35 0.35 0.0 0 0 304.58 134.42
  L 307.99 108.11
  A 0.35 0.35 0.0 0 0 307.65 107.72
  L 301.01 107.53
  A 0.35 0.35 0.0 0 0 300.66 107.79
  L 294.19 134.23
  Z"
/>
<path fill="#f99b8e" d="
  M 387.54 29.71
  Q 385.18 29.51 383.01 30.07
  Q 370.36 33.29 357.88 35.98
  C 349.07 37.88 340.49 40.27 331.99 42.29
  Q 326.44 43.60 320.76 44.74
  Q 315.80 45.73 309.50 47.16
  Q 303.47 48.52 299.10 50.65
  Q 294.40 52.94 292.61 59.65
  C 290.94 65.93 289.44 72.16 288.15 78.51
  Q 286.11 88.49 281.52 97.27
  Q 278.20 103.63 272.21 108.56
  Q 273.78 101.32 275.62 94.51
  Q 278.06 85.51 279.22 80.51
  Q 282.82 65.04 286.32 52.76
  Q 286.97 50.47 289.64 49.40
  Q 294.01 47.66 298.95 46.86
  C 301.65 46.43 303.79 45.41 306.31 44.94
  Q 310.86 44.11 315.33 42.95
  C 320.98 41.50 324.77 40.94 324.32 34.38
  L 337.61 31.18
  Q 338.96 34.23 341.98 35.74
  Q 343.77 36.63 345.58 36.23
  Q 352.75 34.66 359.42 33.02
  Q 362.47 32.27 365.66 31.70
  C 368.69 31.17 371.38 29.83 374.45 29.33
  Q 378.71 28.63 383.05 27.51
  Q 384.66 27.09 386.38 27.06
  Q 386.89 27.06 387.11 27.53
  Q 387.56 28.53 387.54 29.71
  Z"
/>
<path fill="#f76750" d="
  M 387.54 29.71
  L 389.60 39.93
  A 0.36 0.36 0.0 0 1 389.32 40.35
  Q 375.41 43.08 360.90 46.82
  Q 352.45 48.99 344.16 50.52
  C 339.11 51.45 334.44 52.84 329.36 53.80
  C 326.23 54.40 322.70 55.80 319.96 56.25
  Q 309.72 57.93 301.97 60.30
  C 299.05 61.19 297.59 63.23 296.96 66.15
  Q 295.42 73.36 292.83 83.26
  Q 286.33 108.13 279.88 134.44
  A 0.44 0.44 0.0 0 1 279.45 134.78
  L 266.72 134.60
  A 0.70 0.69 7.2 0 1 266.05 133.74
  L 272.21 108.56
  Q 278.20 103.63 281.52 97.27
  Q 286.11 88.49 288.15 78.51
  C 289.44 72.16 290.94 65.93 292.61 59.65
  Q 294.40 52.94 299.10 50.65
  Q 303.47 48.52 309.50 47.16
  Q 315.80 45.73 320.76 44.74
  Q 326.44 43.60 331.99 42.29
  C 340.49 40.27 349.07 37.88 357.88 35.98
  Q 370.36 33.29 383.01 30.07
  Q 385.18 29.51 387.54 29.71
  Z"
/>
<path fill="#3a519b" d="
  M 246.67 101.02
  Q 246.27 104.60 243.26 106.37
  Q 241.38 107.47 237.53 107.50
  Q 221.82 107.63 205.98 107.54
  L 187.43 107.47
  A 0.64 0.64 0.0 0 0 186.79 108.17
  Q 188.13 125.12 191.10 142.46
  Q 191.32 146.53 191.97 150.69
  Q 192.67 155.20 192.98 158.87
  Q 193.64 166.69 195.38 175.58
  Q 196.18 179.67 197.50 192.01
  Q 198.35 199.97 199.65 208.35
  C 201.41 219.73 201.83 230.85 203.96 242.30
  Q 205.34 249.73 206.19 258.54
  Q 207.32 270.27 209.20 282.91
  C 210.57 292.13 211.44 301.83 212.60 311.17
  Q 213.55 318.80 212.87 324.89
  Q 212.25 330.38 212.08 335.89
  Q 211.96 339.83 211.28 343.32
  Q 210.39 347.91 210.24 352.76
  A 1.08 1.08 0.0 0 0 211.60 353.83
  C 218.31 352.02 225.18 350.95 232.04 349.47
  C 238.86 348.01 245.40 345.13 251.99 343.87
  Q 255.06 343.29 258.50 344.31
  Q 273.34 348.74 275.41 363.19
  C 276.87 373.38 272.00 380.17 264.47 386.09
  C 258.13 391.08 250.42 396.66 242.77 401.02
  C 238.40 403.51 234.04 406.44 229.60 408.03
  Q 227.06 408.94 229.76 408.94
  L 303.00 408.82
  Q 303.85 408.82 303.43 408.08
  C 301.22 404.13 299.09 400.04 297.49 395.85
  Q 294.92 389.11 292.04 382.32
  C 290.82 379.45 290.11 376.71 289.23 373.77
  Q 288.26 370.51 287.53 367.17
  Q 286.38 361.92 285.05 356.70
  C 284.12 353.00 283.88 349.43 283.11 345.79
  Q 282.26 341.77 282.06 337.61
  Q 281.51 326.39 281.71 313.55
  Q 281.78 309.02 282.62 301.99
  Q 283.36 295.81 283.57 290.40
  C 284.21 283.67 285.75 277.19 286.33 270.33
  C 286.65 266.58 287.85 263.09 288.14 259.31
  Q 288.86 249.94 290.22 242.39
  Q 291.03 237.94 296.82 236.28
  Q 297.25 236.15 297.44 235.74
  L 298.55 233.35
  Q 298.98 234.75 298.85 236.21
  Q 298.79 236.88 299.35 237.24
  C 301.59 238.65 303.79 239.49 303.70 242.66
  Q 303.34 255.51 300.58 267.57
  Q 299.96 270.28 300.51 272.70
  A 0.81 0.80 74.5 0 0 301.54 273.29
  Q 307.13 271.53 313.19 272.26
  C 313.94 272.35 314.35 272.73 314.98 273.02
  A 1.60 1.59 17.1 0 0 317.21 271.84
  Q 320.57 252.12 330.86 237.69
  Q 335.46 231.25 343.49 229.20
  Q 348.74 227.86 354.38 230.95
  Q 360.65 234.38 363.31 239.46
  Q 368.10 248.62 363.58 256.83
  Q 363.57 256.85 359.82 262.12
  Q 354.25 269.96 353.37 280.24
  Q 352.59 285.85 351.08 292.09
  Q 348.75 301.75 340.77 304.97
  Q 334.24 307.61 327.92 305.35
  C 321.16 302.94 315.02 295.42 316.07 287.59
  A 1.07 1.06 -79.8 0 0 315.26 286.42
  Q 308.57 284.87 301.64 286.64
  Q 299.76 286.66 298.21 287.81
  Q 297.72 288.17 297.74 288.78
  Q 297.86 292.26 297.06 295.84
  Q 296.34 299.08 296.13 302.91
  Q 295.87 307.69 295.64 312.97
  Q 295.23 322.56 296.17 335.76
  Q 296.45 339.74 297.04 343.71
  C 298.01 350.35 298.87 356.74 300.84 363.22
  C 303.44 371.82 305.64 379.91 309.32 388.07
  Q 311.81 393.58 314.15 398.69
  Q 315.65 401.96 317.86 405.38
  Q 319.34 407.68 321.85 406.92
  Q 325.32 405.87 328.26 404.42
  C 331.66 402.74 334.16 399.19 338.52 400.92
  Q 340.55 401.73 342.93 403.18
  Q 348.66 406.67 356.75 408.47
  Q 369.16 411.22 377.13 401.85
  Q 385.24 392.33 390.39 380.76
  Q 391.76 378.59 393.48 373.99
  C 398.18 361.37 401.11 353.37 403.53 341.88
  Q 404.75 336.13 404.98 330.75
  Q 405.25 324.36 404.43 319.33
  Q 403.11 311.15 397.95 303.59
  C 396.32 301.20 394.08 299.17 392.09 297.04
  C 387.74 292.37 380.86 288.98 374.85 287.10
  Q 374.80 287.09 370.16 286.23
  Q 364.42 285.16 363.60 278.91
  Q 364.40 274.41 368.01 273.40
  Q 371.31 272.49 375.96 273.52
  C 396.67 278.09 412.05 293.73 417.53 314.12
  Q 418.89 319.20 418.82 324.45
  C 418.75 329.37 419.02 334.19 418.18 339.08
  Q 416.10 351.24 414.18 357.03
  Q 412.20 363.04 410.29 369.01
  Q 408.36 375.09 405.81 380.84
  C 400.92 391.89 395.13 402.44 386.98 411.37
  Q 383.96 414.69 378.96 418.18
  Q 375.10 420.88 370.41 421.86
  C 364.94 423.01 358.13 423.46 352.68 421.70
  C 350.56 421.02 348.29 421.03 346.20 420.17
  Q 342.12 418.49 338.06 416.32
  A 3.40 3.38 -45.2 0 0 334.82 416.34
  Q 328.88 419.59 321.67 421.59
  Q 317.43 422.77 311.91 422.77
  Q 228.09 422.71 151.12 422.72
  Q 149.52 422.72 147.74 422.37
  Q 143.22 421.49 138.83 420.95
  C 134.71 420.44 130.61 419.61 126.51 419.06
  C 124.14 418.74 121.86 417.62 119.67 416.66
  Q 119.20 416.46 118.73 416.65
  C 117.08 417.33 115.76 418.38 113.98 418.85
  C 108.48 420.30 102.91 422.45 97.30 422.64
  Q 88.16 422.95 79.50 422.55
  C 74.88 422.33 70.04 420.49 65.51 419.01
  Q 47.57 413.17 34.44 399.57
  C 30.99 396.00 27.91 391.68 25.09 387.67
  C 21.24 382.21 19.05 375.25 16.66 368.86
  Q 15.10 364.69 14.40 359.89
  Q 13.10 351.02 13.67 340.92
  C 13.81 338.52 14.94 336.39 15.06 334.07
  Q 15.18 331.70 15.73 329.25
  Q 15.85 328.70 15.72 328.16
  C 14.24 321.92 10.74 316.78 9.68 310.69
  Q 9.32 308.61 8.37 306.80
  C 6.98 304.16 5.57 297.23 9.04 295.17
  Q 18.95 289.31 29.10 283.26
  C 31.32 281.94 34.84 280.31 37.10 282.35
  C 39.46 284.47 41.53 286.38 43.47 289.00
  Q 45.05 291.15 46.94 293.26
  Q 64.02 312.95 86.44 326.80
  Q 91.19 329.73 92.73 331.78
  Q 94.89 334.66 93.11 338.57
  C 91.44 340.48 87.94 343.31 85.33 342.09
  Q 80.01 339.59 71.78 333.52
  Q 65.26 328.73 58.93 323.85
  C 54.87 320.72 51.53 316.87 47.56 313.64
  C 45.89 312.27 45.17 310.44 43.58 309.05
  A 0.33 0.33 0.0 0 0 43.04 309.28
  Q 43.03 309.51 43.05 309.74
  Q 43.07 309.92 43.16 310.07
  Q 59.25 336.49 83.67 354.28
  Q 87.76 357.26 92.58 360.09
  C 101.77 365.47 111.04 370.26 121.05 373.49
  Q 129.73 376.29 138.85 378.66
  Q 147.65 380.94 157.52 381.57
  Q 172.02 382.49 187.08 380.93
  Q 195.85 380.02 205.64 377.01
  Q 216.85 373.55 226.00 370.21
  C 230.26 368.65 233.14 370.24 236.10 373.74
  Q 237.38 377.28 234.66 380.15
  Q 233.21 381.67 230.09 383.08
  Q 219.62 387.79 212.31 389.46
  Q 200.87 392.08 190.34 394.06
  Q 180.26 395.96 168.05 395.66
  C 163.07 395.53 158.30 395.73 153.22 394.76
  Q 148.10 393.77 140.15 392.64
  Q 131.69 391.44 119.13 387.51
  Q 115.17 386.27 111.48 384.69
  C 105.29 382.04 99.06 379.70 93.16 376.36
  Q 78.52 368.10 67.56 359.02
  C 62.31 354.69 57.54 349.77 52.72 344.95
  C 48.21 340.43 43.28 334.48 40.16 330.02
  Q 30.59 316.31 24.07 303.41
  Q 23.70 302.66 22.97 302.84
  A 0.98 0.97 -10.8 0 0 22.23 303.92
  Q 22.78 307.91 24.18 311.68
  Q 32.95 335.23 48.20 354.69
  C 56.76 365.61 67.21 374.96 78.47 382.86
  C 94.78 394.31 112.74 401.67 132.71 406.24
  C 137.00 407.22 141.23 407.38 145.43 408.10
  C 153.47 409.48 162.24 408.92 170.42 408.91
  C 174.87 408.91 179.04 407.90 183.42 407.52
  Q 187.48 407.16 189.24 406.79
  Q 211.94 402.04 232.27 391.38
  Q 243.39 385.55 257.68 374.01
  Q 260.36 371.85 261.43 369.19
  Q 263.21 364.79 259.72 360.23
  Q 256.38 356.48 253.24 357.46
  Q 233.72 363.59 220.50 366.29
  Q 211.83 368.06 205.96 368.35
  Q 193.65 368.94 172.43 368.61
  Q 166.77 368.52 160.70 367.67
  Q 155.03 366.88 149.08 366.07
  C 145.72 365.61 142.49 364.62 139.19 363.91
  Q 135.48 363.11 131.82 361.98
  Q 120.26 358.41 111.00 354.93
  Q 109.00 354.18 107.01 352.84
  C 104.10 350.88 104.16 347.26 105.23 344.27
  Q 107.74 340.59 111.99 340.43
  Q 116.20 341.80 120.23 343.51
  Q 125.48 345.73 128.44 346.60
  Q 137.62 349.32 146.71 351.03
  Q 148.39 351.34 150.10 351.43
  Q 150.60 351.45 150.67 350.96
  C 151.70 344.01 150.94 338.48 149.13 331.92
  C 143.56 311.71 129.38 296.70 109.66 289.12
  Q 99.56 285.25 88.74 285.76
  A 0.77 0.77 0.0 0 0 88.02 286.34
  Q 87.84 287.04 88.04 287.72
  Q 89.80 293.65 89.01 299.97
  Q 88.20 306.55 81.34 306.37
  Q 77.71 305.74 76.24 302.57
  Q 75.23 300.36 75.34 296.97
  Q 75.49 292.89 74.57 288.63
  Q 74.35 287.63 73.39 287.94
  Q 69.52 289.18 66.02 290.12
  Q 63.19 290.87 60.85 289.19
  Q 59.27 288.06 57.93 286.70
  Q 58.33 285.26 58.28 283.55
  Q 58.22 281.23 58.52 280.44
  C 59.79 277.05 65.13 275.56 68.32 275.20
  Q 68.96 275.12 68.67 274.55
  Q 67.69 272.60 66.49 270.90
  C 60.08 261.78 50.14 254.17 39.28 251.36
  C 33.66 249.90 33.33 243.39 36.37 239.51
  C 38.33 237.01 42.58 237.76 45.06 238.72
  C 58.29 243.86 68.62 250.58 77.25 262.49
  A 0.44 0.44 0.0 0 0 78.00 262.42
  Q 82.08 254.02 87.84 246.67
  C 89.22 244.92 90.58 243.88 92.45 242.86
  A 2.46 2.45 -11.4 0 0 93.72 240.95
  C 94.00 238.19 92.59 236.30 92.48 233.58
  C 92.15 225.81 94.43 219.04 97.61 212.16
  A 1.43 1.42 -56.8 0 0 97.27 210.50
  Q 95.37 208.79 93.42 207.55
  Q 86.31 203.03 79.96 198.61
  Q 73.80 194.33 71.60 190.82
  Q 68.21 185.45 68.71 179.30
  Q 69.20 173.29 71.77 170.02
  C 75.31 165.50 79.62 161.78 85.37 161.70
  Q 89.33 161.64 92.80 162.25
  A 0.63 0.63 0.0 0 0 93.54 161.65
  C 93.87 151.26 102.91 144.70 112.87 144.56
  C 117.52 144.50 121.56 147.02 125.45 149.55
  Q 126.01 149.92 126.46 149.42
  C 129.09 146.57 133.99 142.36 138.05 141.93
  Q 150.32 140.63 157.17 149.35
  C 161.73 155.16 161.94 161.24 159.87 168.24
  C 158.39 173.26 156.85 178.30 155.89 183.39
  Q 155.20 187.06 153.33 190.12
  A 0.71 0.71 0.0 0 0 153.68 191.16
  Q 166.70 196.11 174.72 207.62
  Q 179.75 214.84 182.29 226.16
  Q 182.86 228.68 183.58 231.00
  C 184.29 233.26 185.20 235.40 185.56 237.75
  C 186.12 241.36 187.54 244.57 188.47 248.10
  Q 190.44 255.56 192.08 262.32
  Q 192.50 264.05 193.02 262.35
  C 193.58 260.52 192.29 257.55 192.11 255.56
  Q 190.97 243.15 188.80 230.65
  Q 187.56 223.55 186.57 213.66
  C 185.49 202.96 183.43 193.09 182.44 182.02
  Q 181.67 173.54 180.61 166.28
  Q 178.74 153.50 176.99 140.04
  C 176.32 134.91 174.99 130.00 174.82 124.80
  C 174.73 121.76 173.45 119.04 173.35 115.96
  Q 173.16 110.54 172.59 104.95
  Q 172.42 103.29 172.03 101.66
  Q 170.97 97.26 175.25 94.40
  Q 176.13 93.81 177.28 93.81
  Q 207.35 93.72 239.77 93.79
  C 243.91 93.80 246.22 97.00 246.67 101.02
  Z
  M 140.36 155.89
  Q 138.07 156.29 137.04 158.40
  Q 136.34 159.84 136.34 161.69
  Q 136.35 167.03 135.85 172.05
  Q 135.53 175.28 136.16 178.38
  Q 137.02 182.65 137.91 187.68
  A 0.98 0.97 7.0 0 0 138.48 188.40
  Q 139.04 188.63 139.51 188.45
  Q 140.01 188.26 140.25 187.40
  Q 141.75 182.17 143.10 177.43
  L 147.79 160.71
  Q 147.93 160.22 147.74 159.74
  Q 145.70 154.60 140.36 155.89
  Z
  M 109.04 159.68
  C 106.70 160.97 107.25 165.31 108.07 167.33
  Q 110.79 174.06 113.66 179.39
  C 115.64 183.06 117.06 186.86 119.11 190.47
  Q 119.91 191.88 121.42 191.30
  L 123.44 190.53
  Q 125.13 189.89 124.59 188.17
  L 123.09 183.37
  Q 122.80 180.50 122.02 177.97
  Q 120.88 174.28 120.55 172.74
  Q 119.08 165.87 116.93 160.97
  C 116.21 159.34 113.06 156.61 111.03 158.05
  C 110.24 158.61 109.51 159.01 109.04 159.68
  Z
  M 104.05 191.54
  C 102.22 187.73 99.60 184.75 96.90 181.59
  C 94.79 179.12 90.56 173.98 86.81 175.15
  Q 82.30 176.56 82.82 181.80
  C 83.07 184.28 85.80 186.02 87.69 187.26
  Q 97.35 193.60 106.37 199.91
  A 0.67 0.66 24.9 0 0 107.40 199.54
  C 108.01 197.19 105.08 193.68 104.05 191.54
  Z
  M 116.33 210.09
  Q 113.39 212.64 110.70 217.19
  Q 106.20 224.80 106.28 233.43
  A 0.84 0.84 0.0 0 0 107.63 234.09
  Q 108.47 233.45 109.49 233.16
  Q 117.01 230.96 125.70 230.45
  Q 130.97 230.95 137.19 230.73
  C 139.61 230.64 141.26 231.57 142.76 233.33
  Q 143.92 234.70 143.93 237.51
  Q 143.99 249.41 138.72 259.76
  C 134.36 267.38 129.28 274.21 121.43 277.63
  Q 121.04 277.80 121.18 278.20
  L 121.27 278.45
  Q 121.32 278.60 121.47 278.55
  L 143.91 270.44
  Q 146.25 270.14 148.33 270.50
  Q 150.61 270.91 151.91 272.68
  Q 154.85 276.69 151.44 281.56
  Q 149.80 283.15 146.98 283.96
  Q 144.32 284.73 137.69 287.09
  Q 137.02 287.33 136.54 287.86
  A 0.88 0.87 -52.1 0 0 136.70 289.17
  Q 140.85 291.99 144.42 295.98
  Q 154.73 307.46 160.26 321.59
  Q 162.94 328.43 163.05 334.75
  A 1.05 1.05 0.0 0 0 164.35 335.75
  Q 166.03 335.33 167.75 334.72
  C 170.55 333.71 173.39 334.87 175.38 336.96
  C 177.69 339.38 177.17 343.93 174.79 346.03
  C 172.41 348.11 168.94 348.41 166.20 349.98
  Q 164.09 351.19 164.88 353.76
  Q 165.07 354.37 165.65 354.62
  Q 167.21 355.28 168.88 355.28
  Q 181.98 355.25 195.22 355.25
  A 0.78 0.78 0.0 0 0 196.00 354.50
  Q 196.27 348.72 197.46 342.98
  C 198.14 339.71 198.57 336.24 197.89 332.94
  Q 197.13 329.25 196.18 325.59
  C 195.60 323.38 194.58 321.38 194.46 319.05
  A 0.65 0.64 84.6 0 0 193.74 318.44
  Q 189.66 318.93 186.28 320.75
  C 181.60 323.28 176.29 321.30 175.08 315.86
  C 174.38 312.66 177.56 309.44 180.08 308.36
  Q 184.30 306.53 189.55 305.17
  Q 190.06 305.04 190.10 304.50
  Q 190.15 303.78 189.75 303.18
  L 186.93 292.94
  Q 186.50 291.39 184.99 291.95
  L 170.70 297.27
  C 164.11 300.48 158.74 297.21 159.35 289.82
  Q 160.90 286.06 163.79 285.07
  Q 172.55 282.08 181.77 278.71
  A 1.25 1.25 0.0 0 0 182.46 276.99
  C 180.86 273.69 180.91 270.19 179.59 266.78
  Q 177.83 262.21 176.73 256.87
  C 175.52 250.97 173.35 245.47 172.26 239.53
  Q 172.04 238.30 170.85 238.69
  C 167.71 239.72 164.96 241.51 161.77 242.30
  C 156.04 243.71 150.64 247.48 147.36 239.49
  C 145.68 235.40 149.98 231.35 153.50 230.34
  Q 160.55 228.32 166.61 225.75
  Q 167.12 225.53 167.19 224.98
  Q 167.44 223.03 166.69 221.27
  C 162.27 210.91 152.77 203.04 141.25 201.98
  Q 126.59 200.62 116.33 210.09
  Z
  M 342.34 245.15
  C 337.99 250.78 335.56 257.34 332.94 263.68
  Q 331.81 266.42 330.61 272.24
  C 329.37 278.21 329.68 283.63 329.77 289.64
  Q 329.80 291.29 331.16 291.88
  Q 335.28 293.66 337.34 290.55
  C 338.34 289.05 337.87 287.01 338.40 285.24
  C 339.31 282.12 338.88 279.12 339.54 276.04
  Q 342.39 262.84 350.02 252.75
  C 351.87 250.31 353.21 247.16 350.54 244.69
  Q 345.96 240.47 342.34 245.15
  Z
  M 95.89 258.44
  Q 92.13 264.08 90.17 271.45
  Q 90.01 272.04 90.61 272.06
  Q 99.84 272.45 108.08 269.65
  C 118.49 266.11 126.77 257.35 128.85 246.41
  Q 129.49 245.67 129.37 245.06
  Q 129.27 244.55 128.74 244.54
  Q 124.47 244.41 120.34 244.44
  C 118.23 244.46 116.39 245.61 114.28 245.96
  Q 111.98 246.35 109.82 247.35
  Q 101.74 251.11 95.89 258.44
  Z
  M 34.71 376.55
  C 40.38 387.74 50.58 396.95 61.60 402.77
  Q 76.63 410.70 95.08 408.68
  Q 96.79 408.49 95.19 407.85
  C 94.05 407.39 92.93 407.13 91.82 406.56
  Q 76.78 398.91 63.09 388.50
  C 59.67 385.89 56.73 383.05 53.53 380.24
  Q 50.17 377.28 46.97 373.78
  Q 36.09 361.88 27.95 350.44
  Q 27.34 349.58 27.28 350.63
  Q 27.13 353.24 27.65 355.80
  Q 29.99 367.24 34.71 376.55
  Z"
/>
<path fill="#84d3f2" d="
  M 259.68 101.17
  L 251.80 133.23
  A 1.82 1.82 0.0 0 1 250.03 134.62
  L 210.79 134.68
  Q 208.66 123.06 207.36 110.90
  Q 207.27 109.98 206.83 109.17
  Q 206.42 108.37 205.98 107.54
  Q 221.82 107.63 237.53 107.50
  Q 241.38 107.47 243.26 106.37
  Q 246.27 104.60 246.67 101.02
  Q 253.41 99.99 259.68 101.17
  Z"
/>
<path fill="#59b6ea" d="
  M 205.98 107.54
  Q 206.42 108.37 206.83 109.17
  Q 207.27 109.98 207.36 110.90
  Q 208.66 123.06 210.79 134.68
  Q 209.54 134.66 207.50 136.52
  Q 204.64 139.14 204.05 142.30
  Q 198.01 140.69 191.10 142.46
  Q 188.13 125.12 186.79 108.17
  A 0.64 0.64 0.0 0 1 187.43 107.47
  L 205.98 107.54
  Z"
/>
<path fill="#84d3f2" d="
  M 294.19 134.23
  L 300.66 107.79
  A 0.35 0.35 0.0 0 1 301.01 107.53
  L 307.65 107.72
  A 0.35 0.35 0.0 0 1 307.99 108.11
  L 304.58 134.42
  A 0.35 0.35 0.0 0 1 304.23 134.73
  L 294.52 134.66
  A 0.35 0.35 0.0 0 1 294.19 134.23
  Z"
/>
<path fill="#e59630" d="
  M 204.05 142.30
  C 206.13 145.55 207.11 149.27 212.03 148.44
  Q 212.16 149.15 212.57 149.85
  Q 212.82 150.27 212.84 150.77
  Q 213.12 155.91 213.96 160.49
  Q 214.83 165.23 215.12 170.17
  Q 215.49 176.38 216.77 182.59
  C 217.22 184.80 216.94 186.93 217.39 189.19
  Q 217.80 191.22 218.06 193.32
  Q 219.60 205.89 221.50 217.75
  Q 221.66 218.75 223.19 222.02
  Q 223.40 222.47 223.36 222.96
  Q 223.22 224.71 224.04 224.55
  Q 217.98 227.70 220.08 233.19
  Q 221.86 237.83 227.17 238.09
  Q 233.05 249.48 240.56 259.63
  Q 245.20 265.90 250.14 270.23
  Q 254.95 274.45 261.45 279.07
  Q 272.63 287.02 283.57 290.40
  Q 283.36 295.81 282.62 301.99
  Q 281.78 309.02 281.71 313.55
  Q 281.51 326.39 282.06 337.61
  Q 282.26 341.77 283.11 345.79
  C 283.88 349.43 284.12 353.00 285.05 356.70
  Q 286.38 361.92 287.53 367.17
  Q 288.26 370.51 289.23 373.77
  C 290.11 376.71 290.82 379.45 292.04 382.32
  Q 294.92 389.11 297.49 395.85
  C 299.09 400.04 301.22 404.13 303.43 408.08
  Q 303.85 408.82 303.00 408.82
  L 229.76 408.94
  Q 227.06 408.94 229.60 408.03
  C 234.04 406.44 238.40 403.51 242.77 401.02
  C 250.42 396.66 258.13 391.08 264.47 386.09
  C 272.00 380.17 276.87 373.38 275.41 363.19
  Q 273.34 348.74 258.50 344.31
  Q 255.06 343.29 251.99 343.87
  C 245.40 345.13 238.86 348.01 232.04 349.47
  C 225.18 350.95 218.31 352.02 211.60 353.83
  A 1.08 1.08 0.0 0 1 210.24 352.76
  Q 210.39 347.91 211.28 343.32
  Q 211.96 339.83 212.08 335.89
  Q 212.25 330.38 212.87 324.89
  Q 213.55 318.80 212.60 311.17
  C 211.44 301.83 210.57 292.13 209.20 282.91
  Q 207.32 270.27 206.19 258.54
  Q 205.34 249.73 203.96 242.30
  C 201.83 230.85 201.41 219.73 199.65 208.35
  Q 198.35 199.97 197.50 192.01
  Q 196.18 179.67 195.38 175.58
  Q 193.64 166.69 192.98 158.87
  Q 192.67 155.20 191.97 150.69
  Q 191.32 146.53 191.10 142.46
  Q 198.01 140.69 204.05 142.30
  Z
  M 247.2955 280.1061
  A 7.02 6.84 8.9 0 0 241.4182 272.2624
  A 7.02 6.84 8.9 0 0 233.4245 277.9339
  A 7.02 6.84 8.9 0 0 239.3018 285.7776
  A 7.02 6.84 8.9 0 0 247.2955 280.1061
  Z
  M 267.77 313.15
  A 6.86 6.86 0.0 0 0 260.91 306.29
  A 6.86 6.86 0.0 0 0 254.05 313.15
  A 6.86 6.86 0.0 0 0 260.91 320.01
  A 6.86 6.86 0.0 0 0 267.77 313.15
  Z
  M 240.33 326.91
  A 6.96 6.96 0.0 0 0 233.37 319.95
  A 6.96 6.96 0.0 0 0 226.41 326.91
  A 6.96 6.96 0.0 0 0 233.37 333.87
  A 6.96 6.96 0.0 0 0 240.33 326.91
  Z"
/>
<path fill="#fcbb02" d="
  M 298.88 224.01
  L 298.55 233.35
  L 297.44 235.74
  Q 297.25 236.15 296.82 236.28
  Q 291.03 237.94 290.22 242.39
  Q 288.86 249.94 288.14 259.31
  C 287.85 263.09 286.65 266.58 286.33 270.33
  C 285.75 277.19 284.21 283.67 283.57 290.40
  Q 272.63 287.02 261.45 279.07
  Q 254.95 274.45 250.14 270.23
  Q 245.20 265.90 240.56 259.63
  Q 233.05 249.48 227.17 238.09
  C 237.99 234.88 233.80 221.65 224.04 224.55
  Q 223.22 224.71 223.36 222.96
  Q 223.40 222.47 223.19 222.02
  Q 221.66 218.75 221.50 217.75
  Q 219.60 205.89 218.06 193.32
  Q 217.80 191.22 217.39 189.19
  C 216.94 186.93 217.22 184.80 216.77 182.59
  Q 215.49 176.38 215.12 170.17
  Q 214.83 165.23 213.96 160.49
  Q 213.12 155.91 212.84 150.77
  Q 212.82 150.27 212.57 149.85
  Q 212.16 149.15 212.03 148.44
  L 301.44 148.45
  A 0.85 0.84 -87.5 0 1 302.28 149.37
  C 301.83 154.68 301.43 159.87 300.43 165.13
  Q 298.36 176.02 297.50 187.14
  Q 296.95 194.13 295.79 200.63
  Q 294.59 207.40 293.81 214.18
  C 293.27 218.91 294.49 220.99 298.88 224.01
  Z
  M 233.58 182.96
  A 6.90 6.90 0.0 0 0 226.68 176.06
  A 6.90 6.90 0.0 0 0 219.78 182.96
  A 6.90 6.90 0.0 0 0 226.68 189.86
  A 6.90 6.90 0.0 0 0 233.58 182.96
  Z
  M 288.43 183.01
  A 6.97 6.97 0.0 0 0 281.46 176.04
  A 6.97 6.97 0.0 0 0 274.49 183.01
  A 6.97 6.97 0.0 0 0 281.46 189.98
  A 6.97 6.97 0.0 0 0 288.43 183.01
  Z
  M 267.85 210.36
  A 6.92 6.92 0.0 0 0 260.93 203.44
  A 6.92 6.92 0.0 0 0 254.01 210.36
  A 6.92 6.92 0.0 0 0 260.93 217.28
  A 6.92 6.92 0.0 0 0 267.85 210.36
  Z
  M 268.1598 258.6015
  A 7.16 6.73 87.2 0 0 274.5320 251.1212
  A 7.16 6.73 87.2 0 0 267.4602 244.2985
  A 7.16 6.73 87.2 0 0 261.0880 251.7788
  A 7.16 6.73 87.2 0 0 268.1598 258.6015
  Z"
/>
<path fill="#bfef3b" d="
  M 143.10 177.43
  Q 140.62 173.40 140.63 170.63
  Q 140.66 163.14 140.36 155.89
  Q 145.70 154.60 147.74 159.74
  Q 147.93 160.22 147.79 160.71
  L 143.10 177.43
  Z"
/>
<path fill="#a1d521" d="
  M 140.36 155.89
  Q 140.66 163.14 140.63 170.63
  Q 140.62 173.40 143.10 177.43
  Q 141.75 182.17 140.25 187.40
  Q 140.01 188.26 139.51 188.45
  Q 139.04 188.63 138.48 188.40
  A 0.98 0.97 7.0 0 1 137.91 187.68
  Q 137.02 182.65 136.16 178.38
  Q 135.53 175.28 135.85 172.05
  Q 136.35 167.03 136.34 161.69
  Q 136.34 159.84 137.04 158.40
  Q 138.07 156.29 140.36 155.89
  Z"
/>
<path fill="#bfef3b" d="
  M 123.09 183.37
  Q 119.77 181.83 118.13 177.77
  Q 115.60 171.46 112.66 165.34
  Q 112.03 164.01 110.91 162.48
  Q 109.93 161.13 109.04 159.68
  C 109.51 159.01 110.24 158.61 111.03 158.05
  C 113.06 156.61 116.21 159.34 116.93 160.97
  Q 119.08 165.87 120.55 172.74
  Q 120.88 174.28 122.02 177.97
  Q 122.80 180.50 123.09 183.37
  Z"
/>
<path fill="#a1d521" d="
  M 109.04 159.68
  Q 109.93 161.13 110.91 162.48
  Q 112.03 164.01 112.66 165.34
  Q 115.60 171.46 118.13 177.77
  Q 119.77 181.83 123.09 183.37
  L 124.59 188.17
  Q 125.13 189.89 123.44 190.53
  L 121.42 191.30
  Q 119.91 191.88 119.11 190.47
  C 117.06 186.86 115.64 183.06 113.66 179.39
  Q 110.79 174.06 108.07 167.33
  C 107.25 165.31 106.70 160.97 109.04 159.68
  Z"
/>
<path fill="#a1d521" d="
  M 104.05 191.54
  C 105.08 193.68 108.01 197.19 107.40 199.54
  A 0.67 0.66 24.9 0 1 106.37 199.91
  Q 97.35 193.60 87.69 187.26
  C 85.80 186.02 83.07 184.28 82.82 181.80
  Q 82.30 176.56 86.81 175.15
  C 90.56 173.98 94.79 179.12 96.90 181.59
  C 99.60 184.75 102.22 187.73 104.05 191.54
  Z"
/>
<circle fill="#3a519b" cx="226.68" cy="182.96" r="6.90"/>
<circle fill="#3a519b" cx="281.46" cy="183.01" r="6.97"/>
<path fill="#f99b8e" d="
  M 159.35 289.82
  L 151.44 281.56
  Q 154.85 276.69 151.91 272.68
  Q 150.61 270.91 148.33 270.50
  Q 146.25 270.14 143.91 270.44
  Q 142.70 264.20 138.72 259.76
  Q 143.99 249.41 143.93 237.51
  Q 143.92 234.70 142.76 233.33
  C 141.26 231.57 139.61 230.64 137.19 230.73
  Q 130.97 230.95 125.70 230.45
  Q 122.31 219.39 119.63 215.13
  Q 118.16 212.79 116.33 210.09
  Q 126.59 200.62 141.25 201.98
  C 152.77 203.04 162.27 210.91 166.69 221.27
  Q 167.44 223.03 167.19 224.98
  Q 167.12 225.53 166.61 225.75
  Q 160.55 228.32 153.50 230.34
  C 149.98 231.35 145.68 235.40 147.36 239.49
  C 150.64 247.48 156.04 243.71 161.77 242.30
  C 164.96 241.51 167.71 239.72 170.85 238.69
  Q 172.04 238.30 172.26 239.53
  C 173.35 245.47 175.52 250.97 176.73 256.87
  Q 177.83 262.21 179.59 266.78
  C 180.91 270.19 180.86 273.69 182.46 276.99
  A 1.25 1.25 0.0 0 1 181.77 278.71
  Q 172.55 282.08 163.79 285.07
  Q 160.90 286.06 159.35 289.82
  Z"
/>
<circle fill="#3a519b" cx="260.93" cy="210.36" r="6.92"/>
<path fill="#f76750" d="
  M 116.33 210.09
  Q 118.16 212.79 119.63 215.13
  Q 122.31 219.39 125.70 230.45
  Q 117.01 230.96 109.49 233.16
  Q 108.47 233.45 107.63 234.09
  A 0.84 0.84 0.0 0 1 106.28 233.43
  Q 106.20 224.80 110.70 217.19
  Q 113.39 212.64 116.33 210.09
  Z"
/>
<path fill="#3a519b" d="
  M 227.17 238.09
  Q 221.86 237.83 220.08 233.19
  Q 217.98 227.70 224.04 224.55
  C 233.80 221.65 237.99 234.88 227.17 238.09
  Z"
/>
<path fill="#bfef3b" d="
  M 332.94 263.68
  C 335.56 257.34 337.99 250.78 342.34 245.15
  Q 345.96 240.47 350.54 244.69
  C 353.21 247.16 351.87 250.31 350.02 252.75
  Q 342.39 262.84 339.54 276.04
  C 338.88 279.12 339.31 282.12 338.40 285.24
  C 337.87 287.01 338.34 289.05 337.34 290.55
  Q 335.28 293.66 331.16 291.88
  Q 329.80 291.29 329.77 289.64
  C 329.68 283.63 329.37 278.21 330.61 272.24
  Q 331.81 266.42 332.94 263.68
  Z"
/>
<ellipse fill="#3a519b" cx="0.00" cy="0.00" transform="translate(267.81,251.45) rotate(87.2)" rx="7.16" ry="6.73"/>
<path fill="#bfef3b" d="
  M 128.85 246.41
  Q 127.45 245.43 125.78 246.06
  Q 124.87 246.40 123.50 247.80
  Q 121.05 250.31 118.77 251.77
  Q 108.61 258.32 95.89 258.44
  Q 101.74 251.11 109.82 247.35
  Q 111.98 246.35 114.28 245.96
  C 116.39 245.61 118.23 244.46 120.34 244.44
  Q 124.47 244.41 128.74 244.54
  Q 129.27 244.55 129.37 245.06
  Q 129.49 245.67 128.85 246.41
  Z"
/>
<path fill="#a1d521" d="
  M 128.85 246.41
  C 126.77 257.35 118.49 266.11 108.08 269.65
  Q 99.84 272.45 90.61 272.06
  Q 90.01 272.04 90.17 271.45
  Q 92.13 264.08 95.89 258.44
  Q 108.61 258.32 118.77 251.77
  Q 121.05 250.31 123.50 247.80
  Q 124.87 246.40 125.78 246.06
  Q 127.45 245.43 128.85 246.41
  Z"
/>
<path fill="#f76750" d="
  M 138.72 259.76
  Q 142.70 264.20 143.91 270.44
  L 121.47 278.55
  Q 121.32 278.60 121.27 278.45
  L 121.18 278.20
  Q 121.04 277.80 121.43 277.63
  C 129.28 274.21 134.36 267.38 138.72 259.76
  Z"
/>
<ellipse fill="#3a519b" cx="0.00" cy="0.00" transform="translate(240.36,279.02) rotate(8.9)" rx="7.02" ry="6.84"/>
<path fill="#f99b8e" d="
  M 363.60 278.91
  Q 364.42 285.16 370.16 286.23
  Q 374.80 287.09 374.85 287.10
  C 380.86 288.98 387.74 292.37 392.09 297.04
  C 394.08 299.17 396.32 301.20 397.95 303.59
  Q 403.11 311.15 404.43 319.33
  Q 405.25 324.36 404.98 330.75
  Q 404.75 336.13 403.53 341.88
  C 401.11 353.37 398.18 361.37 393.48 373.99
  Q 391.76 378.59 390.39 380.76
  Q 380.39 380.49 377.73 379.80
  C 365.08 376.52 352.46 371.14 341.93 363.35
  Q 335.30 358.44 332.46 355.79
  Q 312.19 336.89 304.81 308.50
  C 303.94 305.17 303.57 301.78 302.81 298.40
  C 301.94 294.53 301.77 290.60 301.64 286.64
  Q 308.57 284.87 315.26 286.42
  A 1.07 1.06 -79.8 0 1 316.07 287.59
  C 315.02 295.42 321.16 302.94 327.92 305.35
  Q 334.24 307.61 340.77 304.97
  Q 348.75 301.75 351.08 292.09
  Q 352.59 285.85 353.37 280.24
  Q 355.34 279.49 357.17 279.03
  C 359.31 278.49 361.38 278.97 363.60 278.91
  Z"
/>
<path fill="#f76750" d="
  M 151.44 281.56
  L 159.35 289.82
  C 158.74 297.21 164.11 300.48 170.70 297.27
  Q 170.63 297.70 170.96 297.95
  Q 171.16 298.09 171.58 298.10
  Q 172.77 298.13 173.28 298.41
  Q 180.83 302.57 189.75 303.18
  Q 190.15 303.78 190.10 304.50
  Q 190.06 305.04 189.55 305.17
  Q 184.30 306.53 180.08 308.36
  C 177.56 309.44 174.38 312.66 175.08 315.86
  C 176.29 321.30 181.60 323.28 186.28 320.75
  Q 189.66 318.93 193.74 318.44
  A 0.65 0.64 84.6 0 1 194.46 319.05
  C 194.58 321.38 195.60 323.38 196.18 325.59
  Q 197.13 329.25 197.89 332.94
  C 198.57 336.24 198.14 339.71 197.46 342.98
  Q 196.27 348.72 196.00 354.50
  A 0.78 0.78 0.0 0 1 195.22 355.25
  Q 181.98 355.25 168.88 355.28
  Q 167.21 355.28 165.65 354.62
  Q 165.07 354.37 164.88 353.76
  Q 164.09 351.19 166.20 349.98
  C 168.94 348.41 172.41 348.11 174.79 346.03
  C 177.17 343.93 177.69 339.38 175.38 336.96
  C 173.39 334.87 170.55 333.71 167.75 334.72
  Q 166.03 335.33 164.35 335.75
  A 1.05 1.05 0.0 0 1 163.05 334.75
  Q 162.94 328.43 160.26 321.59
  Q 154.73 307.46 144.42 295.98
  Q 140.85 291.99 136.70 289.17
  A 0.88 0.87 -52.1 0 1 136.54 287.86
  Q 137.02 287.33 137.69 287.09
  Q 144.32 284.73 146.98 283.96
  Q 149.80 283.15 151.44 281.56
  Z"
/>
<path fill="#fcbb02" d="
  M 111.99 340.43
  Q 109.15 337.65 105.73 335.44
  Q 100.79 332.25 99.23 330.87
  Q 87.70 320.61 81.34 306.37
  Q 88.20 306.55 89.01 299.97
  Q 89.80 293.65 88.04 287.72
  Q 87.84 287.04 88.02 286.34
  A 0.77 0.77 0.0 0 1 88.74 285.76
  Q 99.56 285.25 109.66 289.12
  C 129.38 296.70 143.56 311.71 149.13 331.92
  C 150.94 338.48 151.70 344.01 150.67 350.96
  Q 150.60 351.45 150.10 351.43
  Q 148.39 351.34 146.71 351.03
  Q 137.62 349.32 128.44 346.60
  Q 125.48 345.73 120.23 343.51
  Q 116.20 341.80 111.99 340.43
  Z"
/>
<path fill="#f76750" d="
  M 301.64 286.64
  C 301.77 290.60 301.94 294.53 302.81 298.40
  C 303.57 301.78 303.94 305.17 304.81 308.50
  Q 312.19 336.89 332.46 355.79
  Q 335.30 358.44 341.93 363.35
  C 352.46 371.14 365.08 376.52 377.73 379.80
  Q 380.39 380.49 390.39 380.76
  Q 385.24 392.33 377.13 401.85
  Q 369.16 411.22 356.75 408.47
  Q 348.66 406.67 342.93 403.18
  Q 340.55 401.73 338.52 400.92
  C 334.16 399.19 331.66 402.74 328.26 404.42
  Q 325.32 405.87 321.85 406.92
  Q 319.34 407.68 317.86 405.38
  Q 315.65 401.96 314.15 398.69
  Q 311.81 393.58 309.32 388.07
  C 305.64 379.91 303.44 371.82 300.84 363.22
  C 298.87 356.74 298.01 350.35 297.04 343.71
  Q 296.45 339.74 296.17 335.76
  Q 295.23 322.56 295.64 312.97
  Q 295.87 307.69 296.13 302.91
  Q 296.34 299.08 297.06 295.84
  Q 297.86 292.26 297.74 288.78
  Q 297.72 288.17 298.21 287.81
  Q 299.76 286.66 301.64 286.64
  Z"
/>
<path fill="#e59630" d="
  M 57.93 286.70
  Q 59.27 288.06 60.85 289.19
  Q 63.19 290.87 66.02 290.12
  Q 69.52 289.18 73.39 287.94
  Q 74.35 287.63 74.57 288.63
  Q 75.49 292.89 75.34 296.97
  Q 75.23 300.36 76.24 302.57
  Q 77.71 305.74 81.34 306.37
  Q 87.70 320.61 99.23 330.87
  Q 100.79 332.25 105.73 335.44
  Q 109.15 337.65 111.99 340.43
  Q 107.74 340.59 105.23 344.27
  Q 98.93 342.29 93.11 338.57
  Q 94.89 334.66 92.73 331.78
  Q 91.19 329.73 86.44 326.80
  Q 64.02 312.95 46.94 293.26
  Q 52.21 288.67 57.93 286.70
  Z"
/>
<path fill="#f99b8e" d="
  M 189.75 303.18
  Q 180.83 302.57 173.28 298.41
  Q 172.77 298.13 171.58 298.10
  Q 171.16 298.09 170.96 297.95
  Q 170.63 297.70 170.70 297.27
  L 184.99 291.95
  Q 186.50 291.39 186.93 292.94
  L 189.75 303.18
  Z"
/>
<path fill="#fcbb02" d="
  M 236.10 373.74
  Q 242.68 369.19 249.70 365.50
  Q 250.47 365.09 254.46 362.47
  Q 256.94 360.84 259.72 360.23
  Q 263.21 364.79 261.43 369.19
  Q 260.36 371.85 257.68 374.01
  Q 243.39 385.55 232.27 391.38
  Q 211.94 402.04 189.24 406.79
  Q 187.48 407.16 183.42 407.52
  C 179.04 407.90 174.87 408.91 170.42 408.91
  C 162.24 408.92 153.47 409.48 145.43 408.10
  C 141.23 407.38 137.00 407.22 132.71 406.24
  C 112.74 401.67 94.78 394.31 78.47 382.86
  C 67.21 374.96 56.76 365.61 48.20 354.69
  Q 32.95 335.23 24.18 311.68
  Q 22.78 307.91 22.23 303.92
  A 0.98 0.97 -10.8 0 1 22.97 302.84
  Q 23.70 302.66 24.07 303.41
  Q 30.59 316.31 40.16 330.02
  C 43.28 334.48 48.21 340.43 52.72 344.95
  C 57.54 349.77 62.31 354.69 67.56 359.02
  Q 78.52 368.10 93.16 376.36
  C 99.06 379.70 105.29 382.04 111.48 384.69
  Q 115.17 386.27 119.13 387.51
  Q 131.69 391.44 140.15 392.64
  Q 148.10 393.77 153.22 394.76
  C 158.30 395.73 163.07 395.53 168.05 395.66
  Q 180.26 395.96 190.34 394.06
  Q 200.87 392.08 212.31 389.46
  Q 219.62 387.79 230.09 383.08
  Q 233.21 381.67 234.66 380.15
  Q 237.38 377.28 236.10 373.74
  Z"
/>
<circle fill="#3a519b" cx="260.91" cy="313.15" r="6.86"/>
<path fill="#fae109" d="
  M 93.11 338.57
  Q 98.93 342.29 105.23 344.27
  C 104.16 347.26 104.10 350.88 107.01 352.84
  Q 109.00 354.18 111.00 354.93
  Q 120.26 358.41 131.82 361.98
  Q 135.48 363.11 139.19 363.91
  C 142.49 364.62 145.72 365.61 149.08 366.07
  Q 155.03 366.88 160.70 367.67
  Q 166.77 368.52 172.43 368.61
  Q 193.65 368.94 205.96 368.35
  Q 211.83 368.06 220.50 366.29
  Q 233.72 363.59 253.24 357.46
  Q 256.38 356.48 259.72 360.23
  Q 256.94 360.84 254.46 362.47
  Q 250.47 365.09 249.70 365.50
  Q 242.68 369.19 236.10 373.74
  C 233.14 370.24 230.26 368.65 226.00 370.21
  Q 216.85 373.55 205.64 377.01
  Q 195.85 380.02 187.08 380.93
  Q 172.02 382.49 157.52 381.57
  Q 147.65 380.94 138.85 378.66
  Q 129.73 376.29 121.05 373.49
  C 111.04 370.26 101.77 365.47 92.58 360.09
  Q 87.76 357.26 83.67 354.28
  Q 59.25 336.49 43.16 310.07
  Q 43.07 309.92 43.05 309.74
  Q 43.03 309.51 43.04 309.28
  A 0.33 0.33 0.0 0 1 43.58 309.05
  C 45.17 310.44 45.89 312.27 47.56 313.64
  C 51.53 316.87 54.87 320.72 58.93 323.85
  Q 65.26 328.73 71.78 333.52
  Q 80.01 339.59 85.33 342.09
  C 87.94 343.31 91.44 340.48 93.11 338.57
  Z"
/>
<circle fill="#3a519b" cx="233.37" cy="326.91" r="6.96"/>
<path fill="#e59630" d="
  M 34.71 376.55
  Q 29.99 367.24 27.65 355.80
  Q 27.13 353.24 27.28 350.63
  Q 27.34 349.58 27.95 350.44
  Q 36.09 361.88 46.97 373.78
  Q 50.17 377.28 53.53 380.24
  C 56.73 383.05 59.67 385.89 63.09 388.50
  Q 76.78 398.91 91.82 406.56
  C 92.93 407.13 94.05 407.39 95.19 407.85
  Q 96.79 408.49 95.08 408.68
  Q 76.63 410.70 61.60 402.77
  C 50.58 396.95 40.38 387.74 34.71 376.55
  Z"
/>
</svg>
