<?xml version="1.0" encoding="UTF-8" standalone="no"?>
<!DOCTYPE svg PUBLIC "-//W3C//DTD SVG 1.1//EN" "http://www.w3.org/Graphics/SVG/1.1/DTD/svg11.dtd">
<svg xmlns="http://www.w3.org/2000/svg" version="1.1" viewBox="0.00 0.00 225.00 225.00">
<g stroke-width="2.00" fill="none" stroke-linecap="butt">
<path stroke="#ffd89d" vector-effect="non-scaling-stroke" d="
  M 7.86 0.00
  Q 1.26 1.09 0.00 7.97"
/>
<path stroke="#ffd89d" vector-effect="non-scaling-stroke" d="
  M 97.86 0.00
  L 99.43 0.30"
/>
<path stroke="#ffa51e" vector-effect="non-scaling-stroke" d="
  M 99.43 0.30
  Q 101.15 1.89 97.12 3.40
  Q 87.85 6.87 81.32 14.12
  C 79.25 16.43 77.91 19.04 76.13 21.51
  A 2.35 2.35 0.0 0 1 73.72 22.43
  Q 69.27 21.47 64.96 21.08
  C 50.53 19.76 37.23 26.53 28.70 37.96
  C 20.87 48.48 19.08 61.17 22.42 73.96
  A 1.58 1.56 62.6 0 1 21.92 75.57
  C 19.33 77.80 16.40 79.32 13.83 81.68
  C 8.00 87.01 4.72 93.05 1.61 100.06
  Q 1.38 100.59 0.96 100.19
  L 0.23 99.47"
/>
<path stroke="#ffd89d" vector-effect="non-scaling-stroke" d="
  M 0.23 99.47
  L 0.00 96.99"
/>
<path stroke="#ffcc80" vector-effect="non-scaling-stroke" d="
  M 108.10 0.00
  L 99.43 0.30"
/>
<path stroke="#ffcc80" vector-effect="non-scaling-stroke" d="
  M 216.61 0.00
  Q 224.01 1.32 225.00 8.76"
/>
<path stroke="#ee8f00" vector-effect="non-scaling-stroke" d="
  M 225.00 121.83
  Q 224.76 117.66 223.47 124.62
  Q 223.38 125.12 223.01 125.47
  Q 222.71 125.75 222.58 126.13
  Q 220.02 133.16 215.93 139.04
  Q 215.14 140.18 214.13 143.75
  Q 213.98 144.29 213.51 143.99
  L 213.18 143.78"
/>
<path stroke="#7f4d00" vector-effect="non-scaling-stroke" d="
  M 213.18 143.78
  Q 213.00 132.73 213.01 121.67
  Q 213.02 108.41 211.74 104.23
  C 207.86 91.56 197.33 83.88 184.32 83.07
  A 0.32 0.32 0.0 0 1 184.10 82.53
  C 196.55 68.66 194.26 48.07 178.84 37.70
  C 167.39 29.99 152.60 31.77 142.44 40.94
  Q 141.87 41.46 141.82 40.69
  C 140.86 26.87 133.06 16.62 119.83 12.98
  C 112.54 10.97 103.58 12.28 97.19 16.30
  Q 84.03 24.59 82.90 40.66
  Q 82.86 41.34 82.36 40.87
  C 64.04 23.37 32.79 36.35 32.86 61.98
  Q 32.89 73.91 40.81 82.36
  Q 41.36 82.94 40.57 83.01
  Q 37.44 83.30 34.38 84.01
  C 24.24 86.37 15.68 94.46 13.01 104.63
  Q 11.87 108.98 11.90 116.27
  Q 12.08 159.81 11.98 203.28
  C 11.97 209.29 15.84 213.57 22.25 213.57
  Q 80.22 213.58 138.78 213.59"
/>
<path stroke="#ee8f00" vector-effect="non-scaling-stroke" d="
  M 138.78 213.59
  Q 138.57 215.56 136.63 217.38
  Q 135.46 218.47 133.03 219.59
  C 130.06 220.95 127.08 222.43 124.02 223.57
  Q 122.22 224.25 123.23 225.00"
/>
<path stroke="#ffcc80" vector-effect="non-scaling-stroke" d="
  M 8.38 225.00
  Q 1.20 223.87 0.00 216.43"
/>
<path stroke="#ffcc80" vector-effect="non-scaling-stroke" d="
  M 0.00 105.75
  L 0.23 99.47"
/>
<path stroke="#6f4300" vector-effect="non-scaling-stroke" d="
  M 213.18 143.78
  Q 212.91 172.65 212.85 201.50
  Q 212.84 206.32 212.03 208.02
  Q 209.41 213.50 204.25 213.51
  Q 171.21 213.57 138.78 213.59"
/>
<path stroke="#808080" vector-effect="non-scaling-stroke" d="
  M 84.17 101.14
  Q 70.10 101.05 53.47 101.13
  C 52.04 101.14 51.39 99.90 50.31 99.21
  C 39.49 92.29 26.58 99.22 25.27 111.61
  Q 25.16 112.67 26.23 112.67
  L 198.95 112.67
  Q 199.76 112.67 199.67 111.86
  Q 198.59 102.63 191.28 98.49
  C 185.31 95.12 178.06 96.07 172.91 100.61
  A 2.00 1.98 24.1 0 1 171.60 101.10
  L 140.98 101.11
  Q 139.98 101.11 140.69 100.40
  L 161.95 79.02
  A 3.23 3.21 -69.7 0 1 164.00 78.07
  C 178.78 76.94 184.10 58.26 172.30 49.38
  C 163.55 42.79 151.23 46.96 147.64 56.97
  C 146.77 59.38 147.36 61.65 145.31 63.66
  Q 134.16 74.62 124.42 84.63
  Q 123.84 85.22 123.84 84.39
  Q 123.85 69.34 123.83 54.01
  C 123.83 52.22 124.93 51.44 125.81 50.11
  C 134.07 37.55 121.66 21.12 107.22 26.33
  C 96.40 30.24 92.92 43.13 100.52 52.07
  Q 101.12 52.78 101.12 53.67
  Q 101.11 68.57 101.12 84.56
  Q 101.12 85.07 100.77 84.71
  L 78.63 62.57
  Q 78.27 62.21 78.23 61.70
  Q 77.34 51.70 68.77 47.69
  C 60.60 43.86 50.70 47.75 47.40 56.19
  C 43.29 66.68 50.04 76.86 61.01 78.14
  Q 62.19 78.28 63.01 79.10
  Q 73.92 89.97 84.46 100.45
  Q 85.16 101.14 84.17 101.14"
/>
<path stroke="#808080" vector-effect="non-scaling-stroke" d="
  M 82.79 194.11
  C 91.00 177.41 79.39 157.12 60.30 156.96
  C 54.92 156.91 49.93 153.62 48.78 148.20
  C 45.50 132.81 68.11 128.19 71.07 144.26
  Q 71.20 144.98 71.94 144.98
  L 84.96 145.00
  Q 85.64 145.00 85.59 144.32
  C 84.10 126.91 68.48 116.08 51.78 121.05
  C 44.65 123.17 38.45 129.28 35.70 136.45
  C 30.22 150.77 38.41 166.02 52.82 170.31
  C 56.29 171.35 60.06 170.85 63.45 171.96
  C 70.70 174.33 73.24 182.86 69.09 189.14
  C 63.29 197.91 49.29 194.03 48.56 183.77
  Q 48.52 183.21 47.95 183.20
  L 34.69 183.19
  A 0.62 0.62 0.0 0 0 34.06 183.85
  C 34.77 195.38 42.70 205.09 53.71 207.69
  C 65.54 210.49 77.50 204.86 82.79 194.11"
/>
<path stroke="#808080" vector-effect="non-scaling-stroke" d="
  M 124.05 119.74
  A 0.54 0.54 0.0 0 0 123.52 120.17
  L 112.86 171.67
  A 0.54 0.54 0.0 0 1 111.80 171.67
  L 101.10 120.16
  A 0.54 0.54 0.0 0 0 100.57 119.73
  L 87.28 119.70
  A 0.54 0.54 0.0 0 0 86.75 120.35
  L 104.93 208.04
  A 0.54 0.54 0.0 0 0 105.46 208.47
  L 119.17 208.46
  A 0.54 0.54 0.0 0 0 119.70 208.03
  L 137.84 120.35
  A 0.54 0.54 0.0 0 0 137.30 119.70
  L 124.05 119.74"
/>
<path stroke="#808080" vector-effect="non-scaling-stroke" d="
  M 176.16 171.92
  Q 176.37 177.85 176.10 183.21
  C 175.37 197.90 153.47 197.39 153.50 182.22
  Q 153.54 165.10 153.47 146.25
  C 153.46 142.00 154.81 138.65 158.44 136.14
  C 165.36 131.36 175.15 135.69 176.00 144.01
  Q 176.10 144.98 177.07 144.98
  L 189.99 144.99
  A 0.60 0.59 -0.9 0 0 190.59 144.38
  C 189.82 124.73 167.94 113.42 151.24 123.68
  C 143.86 128.21 139.00 136.67 139.09 145.54
  Q 139.23 161.94 139.03 179.25
  Q 138.96 185.06 139.94 189.09
  C 143.90 205.33 162.93 213.36 177.11 205.25
  Q 190.38 197.67 190.63 182.05
  Q 190.80 171.35 190.60 157.60
  Q 190.60 157.00 190.00 157.00
  L 165.75 157.00
  Q 165.26 157.00 165.26 157.50
  L 165.24 170.69
  Q 165.24 171.26 165.81 171.26
  L 175.49 171.27
  Q 176.14 171.27 176.16 171.92"
/>
<path stroke="#202020" vector-effect="non-scaling-stroke" d="
  M 86.02 139.36
  Q 86.47 142.03 86.75 144.64
  A 1.45 1.45 0.0 0 1 85.31 146.23
  L 70.79 146.22
  A 0.73 0.73 0.0 0 1 70.06 145.52
  C 69.74 137.68 62.01 133.08 54.88 136.72
  Q 50.44 138.98 50.01 143.69
  C 49.23 152.37 54.50 155.60 62.00 155.87
  Q 66.28 156.02 70.35 157.80
  Q 72.10 158.56 74.00 158.73
  Q 83.82 159.60 93.37 160.38
  Q 93.81 160.42 93.72 159.98
  L 86.15 123.23
  A 1.65 1.65 0.0 0 0 84.51 121.91
  L 74.70 122.09
  Q 73.19 122.11 74.46 122.93
  C 79.89 126.45 84.89 132.75 86.02 139.36"
/>
<path stroke="#202020" vector-effect="non-scaling-stroke" d="
  M 121.74 122.28
  Q 121.17 121.52 120.50 122.01
  Q 111.90 122.00 104.00 121.99
  Q 102.70 121.99 102.96 123.26
  Q 106.86 142.13 110.80 160.99
  Q 111.04 162.14 112.18 162.56
  A 1.16 1.15 15.9 0 0 113.71 161.71
  L 121.84 122.76
  A 0.60 0.56 -58.5 0 0 121.74 122.28"
/>
<path stroke="#202020" vector-effect="non-scaling-stroke" d="
  M 138.50 122.96
  C 136.03 135.16 133.40 147.32 130.93 159.70
  C 130.63 161.19 129.95 162.37 130.12 163.98
  A 0.88 0.87 86.2 0 0 131.02 164.77
  Q 134.09 164.70 136.80 165.40
  Q 137.78 165.65 137.83 164.64
  Q 138.21 155.93 137.89 147.48
  Q 137.69 141.96 139.11 137.91
  Q 141.12 132.19 143.75 128.98
  Q 146.46 125.69 150.21 122.73
  Q 150.80 122.26 150.06 122.20
  Q 144.74 121.76 139.63 121.99
  Q 138.69 122.03 138.50 122.96"
/>
<path stroke="#202020" vector-effect="non-scaling-stroke" d="
  M 35.01 156.25
  Q 29.59 141.72 38.07 129.73
  C 39.89 127.16 42.66 125.05 44.95 122.88
  Q 45.89 121.98 44.59 122.00
  Q 40.49 122.07 36.10 121.94
  Q 30.92 121.78 28.12 122.96
  C 22.55 125.31 20.88 130.25 20.94 136.18
  Q 21.05 147.09 21.02 156.16
  Q 21.02 157.04 21.90 157.03
  L 34.53 156.95
  A 0.52 0.52 0.0 0 0 35.01 156.25"
/>
<path stroke="#202020" vector-effect="non-scaling-stroke" d="
  M 179.42 122.81
  Q 190.83 130.46 191.95 144.77
  A 1.40 1.40 0.0 0 1 190.55 146.27
  L 176.44 146.20
  A 1.54 1.54 0.0 0 1 174.90 144.76
  Q 174.55 139.08 169.57 136.46
  C 164.30 133.68 157.58 136.14 155.46 141.59
  Q 154.55 143.93 154.65 148.38
  Q 154.86 157.26 154.70 166.54
  A 1.15 1.15 0.0 0 0 155.68 167.70
  L 163.03 168.78
  Q 163.95 168.92 163.95 167.98
  L 163.92 157.39
  A 1.57 1.57 0.0 0 1 165.49 155.81
  L 190.53 155.84
  Q 191.79 155.84 191.88 157.10
  Q 192.31 163.29 192.07 171.52
  Q 192.04 172.66 193.17 172.79
  L 205.00 174.18
  A 0.64 0.63 3.2 0 0 205.71 173.55
  Q 205.79 155.27 205.71 135.84
  C 205.67 126.86 200.74 121.72 191.64 121.94
  Q 185.47 122.09 179.67 122.00
  Q 178.16 121.97 179.42 122.81"
/>
<path stroke="#efc280" vector-effect="non-scaling-stroke" d="
  M 225.00 216.99
  Q 223.60 223.96 216.62 225.00"
/>
</g>
<path fill="#ffffff" d="
  M 0.00 0.00
  L 7.86 0.00
  Q 1.26 1.09 0.00 7.97
  L 0.00 0.00
  Z"
/>
<path fill="#ffb03b" d="
  M 7.86 0.00
  L 97.86 0.00
  L 99.43 0.30
  Q 101.15 1.89 97.12 3.40
  Q 87.85 6.87 81.32 14.12
  C 79.25 16.43 77.91 19.04 76.13 21.51
  A 2.35 2.35 0.0 0 1 73.72 22.43
  Q 69.27 21.47 64.96 21.08
  C 50.53 19.76 37.23 26.53 28.70 37.96
  C 20.87 48.48 19.08 61.17 22.42 73.96
  A 1.58 1.56 62.6 0 1 21.92 75.57
  C 19.33 77.80 16.40 79.32 13.83 81.68
  C 8.00 87.01 4.72 93.05 1.61 100.06
  Q 1.38 100.59 0.96 100.19
  L 0.23 99.47
  L 0.00 96.99
  L 0.00 7.97
  Q 1.26 1.09 7.86 0.00
  Z"
/>
<path fill="#ffffff" d="
  M 97.86 0.00
  L 108.10 0.00
  L 99.43 0.30
  L 97.86 0.00
  Z"
/>
<path fill="#fe9900" d="
  M 108.10 0.00
  L 216.61 0.00
  Q 224.01 1.32 225.00 8.76
  L 225.00 121.83
  Q 224.76 117.66 223.47 124.62
  Q 223.38 125.12 223.01 125.47
  Q 222.71 125.75 222.58 126.13
  Q 220.02 133.16 215.93 139.04
  Q 215.14 140.18 214.13 143.75
  Q 213.98 144.29 213.51 143.99
  L 213.18 143.78
  Q 213.00 132.73 213.01 121.67
  Q 213.02 108.41 211.74 104.23
  C 207.86 91.56 197.33 83.88 184.32 83.07
  A 0.32 0.32 0.0 0 1 184.10 82.53
  C 196.55 68.66 194.26 48.07 178.84 37.70
  C 167.39 29.99 152.60 31.77 142.44 40.94
  Q 141.87 41.46 141.82 40.69
  C 140.86 26.87 133.06 16.62 119.83 12.98
  C 112.54 10.97 103.58 12.28 97.19 16.30
  Q 84.03 24.59 82.90 40.66
  Q 82.86 41.34 82.36 40.87
  C 64.04 23.37 32.79 36.35 32.86 61.98
  Q 32.89 73.91 40.81 82.36
  Q 41.36 82.94 40.57 83.01
  Q 37.44 83.30 34.38 84.01
  C 24.24 86.37 15.68 94.46 13.01 104.63
  Q 11.87 108.98 11.90 116.27
  Q 12.08 159.81 11.98 203.28
  C 11.97 209.29 15.84 213.57 22.25 213.57
  Q 80.22 213.58 138.78 213.59
  Q 138.57 215.56 136.63 217.38
  Q 135.46 218.47 133.03 219.59
  C 130.06 220.95 127.08 222.43 124.02 223.57
  Q 122.22 224.25 123.23 225.00
  L 8.38 225.00
  Q 1.20 223.87 0.00 216.43
  L 0.00 105.75
  L 0.23 99.47
  L 0.96 100.19
  Q 1.38 100.59 1.61 100.06
  C 4.72 93.05 8.00 87.01 13.83 81.68
  C 16.40 79.32 19.33 77.80 21.92 75.57
  A 1.58 1.56 62.6 0 0 22.42 73.96
  C 19.08 61.17 20.87 48.48 28.70 37.96
  C 37.23 26.53 50.53 19.76 64.96 21.08
  Q 69.27 21.47 73.72 22.43
  A 2.35 2.35 0.0 0 0 76.13 21.51
  C 77.91 19.04 79.25 16.43 81.32 14.12
  Q 87.85 6.87 97.12 3.40
  Q 101.15 1.89 99.43 0.30
  L 108.10 0.00
  Z"
/>
<path fill="#ffffff" d="
  M 216.61 0.00
  L 225.00 0.00
  L 225.00 8.76
  Q 224.01 1.32 216.61 0.00
  Z"
/>
<path fill="#000000" d="
  M 213.18 143.78
  Q 212.91 172.65 212.85 201.50
  Q 212.84 206.32 212.03 208.02
  Q 209.41 213.50 204.25 213.51
  Q 171.21 213.57 138.78 213.59
  Q 80.22 213.58 22.25 213.57
  C 15.84 213.57 11.97 209.29 11.98 203.28
  Q 12.08 159.81 11.90 116.27
  Q 11.87 108.98 13.01 104.63
  C 15.68 94.46 24.24 86.37 34.38 84.01
  Q 37.44 83.30 40.57 83.01
  Q 41.36 82.94 40.81 82.36
  Q 32.89 73.91 32.86 61.98
  C 32.79 36.35 64.04 23.37 82.36 40.87
  Q 82.86 41.34 82.90 40.66
  Q 84.03 24.59 97.19 16.30
  C 103.58 12.28 112.54 10.97 119.83 12.98
  C 133.06 16.62 140.86 26.87 141.82 40.69
  Q 141.87 41.46 142.44 40.94
  C 152.60 31.77 167.39 29.99 178.84 37.70
  C 194.26 48.07 196.55 68.66 184.10 82.53
  A 0.32 0.32 0.0 0 0 184.32 83.07
  C 197.33 83.88 207.86 91.56 211.74 104.23
  Q 213.02 108.41 213.01 121.67
  Q 213.00 132.73 213.18 143.78
  Z
  M 84.17 101.14
  Q 70.10 101.05 53.47 101.13
  C 52.04 101.14 51.39 99.90 50.31 99.21
  C 39.49 92.29 26.58 99.22 25.27 111.61
  Q 25.16 112.67 26.23 112.67
  L 198.95 112.67
  Q 199.76 112.67 199.67 111.86
  Q 198.59 102.63 191.28 98.49
  C 185.31 95.12 178.06 96.07 172.91 100.61
  A 2.00 1.98 24.1 0 1 171.60 101.10
  L 140.98 101.11
  Q 139.98 101.11 140.69 100.40
  L 161.95 79.02
  A 3.23 3.21 -69.7 0 1 164.00 78.07
  C 178.78 76.94 184.10 58.26 172.30 49.38
  C 163.55 42.79 151.23 46.96 147.64 56.97
  C 146.77 59.38 147.36 61.65 145.31 63.66
  Q 134.16 74.62 124.42 84.63
  Q 123.84 85.22 123.84 84.39
  Q 123.85 69.34 123.83 54.01
  C 123.83 52.22 124.93 51.44 125.81 50.11
  C 134.07 37.55 121.66 21.12 107.22 26.33
  C 96.40 30.24 92.92 43.13 100.52 52.07
  Q 101.12 52.78 101.12 53.67
  Q 101.11 68.57 101.12 84.56
  Q 101.12 85.07 100.77 84.71
  L 78.63 62.57
  Q 78.27 62.21 78.23 61.70
  Q 77.34 51.70 68.77 47.69
  C 60.60 43.86 50.70 47.75 47.40 56.19
  C 43.29 66.68 50.04 76.86 61.01 78.14
  Q 62.19 78.28 63.01 79.10
  Q 73.92 89.97 84.46 100.45
  Q 85.16 101.14 84.17 101.14
  Z
  M 82.79 194.11
  C 91.00 177.41 79.39 157.12 60.30 156.96
  C 54.92 156.91 49.93 153.62 48.78 148.20
  C 45.50 132.81 68.11 128.19 71.07 144.26
  Q 71.20 144.98 71.94 144.98
  L 84.96 145.00
  Q 85.64 145.00 85.59 144.32
  C 84.10 126.91 68.48 116.08 51.78 121.05
  C 44.65 123.17 38.45 129.28 35.70 136.45
  C 30.22 150.77 38.41 166.02 52.82 170.31
  C 56.29 171.35 60.06 170.85 63.45 171.96
  C 70.70 174.33 73.24 182.86 69.09 189.14
  C 63.29 197.91 49.29 194.03 48.56 183.77
  Q 48.52 183.21 47.95 183.20
  L 34.69 183.19
  A 0.62 0.62 0.0 0 0 34.06 183.85
  C 34.77 195.38 42.70 205.09 53.71 207.69
  C 65.54 210.49 77.50 204.86 82.79 194.11
  Z
  M 124.05 119.74
  A 0.54 0.54 0.0 0 0 123.52 120.17
  L 112.86 171.67
  A 0.54 0.54 0.0 0 1 111.80 171.67
  L 101.10 120.16
  A 0.54 0.54 0.0 0 0 100.57 119.73
  L 87.28 119.70
  A 0.54 0.54 0.0 0 0 86.75 120.35
  L 104.93 208.04
  A 0.54 0.54 0.0 0 0 105.46 208.47
  L 119.17 208.46
  A 0.54 0.54 0.0 0 0 119.70 208.03
  L 137.84 120.35
  A 0.54 0.54 0.0 0 0 137.30 119.70
  L 124.05 119.74
  Z
  M 176.16 171.92
  Q 176.37 177.85 176.10 183.21
  C 175.37 197.90 153.47 197.39 153.50 182.22
  Q 153.54 165.10 153.47 146.25
  C 153.46 142.00 154.81 138.65 158.44 136.14
  C 165.36 131.36 175.15 135.69 176.00 144.01
  Q 176.10 144.98 177.07 144.98
  L 189.99 144.99
  A 0.60 0.59 -0.9 0 0 190.59 144.38
  C 189.82 124.73 167.94 113.42 151.24 123.68
  C 143.86 128.21 139.00 136.67 139.09 145.54
  Q 139.23 161.94 139.03 179.25
  Q 138.96 185.06 139.94 189.09
  C 143.90 205.33 162.93 213.36 177.11 205.25
  Q 190.38 197.67 190.63 182.05
  Q 190.80 171.35 190.60 157.60
  Q 190.60 157.00 190.00 157.00
  L 165.75 157.00
  Q 165.26 157.00 165.26 157.50
  L 165.24 170.69
  Q 165.24 171.26 165.81 171.26
  L 175.49 171.27
  Q 176.14 171.27 176.16 171.92
  Z
  M 86.02 139.36
  Q 86.47 142.03 86.75 144.64
  A 1.45 1.45 0.0 0 1 85.31 146.23
  L 70.79 146.22
  A 0.73 0.73 0.0 0 1 70.06 145.52
  C 69.74 137.68 62.01 133.08 54.88 136.72
  Q 50.44 138.98 50.01 143.69
  C 49.23 152.37 54.50 155.60 62.00 155.87
  Q 66.28 156.02 70.35 157.80
  Q 72.10 158.56 74.00 158.73
  Q 83.82 159.60 93.37 160.38
  Q 93.81 160.42 93.72 159.98
  L 86.15 123.23
  A 1.65 1.65 0.0 0 0 84.51 121.91
  L 74.70 122.09
  Q 73.19 122.11 74.46 122.93
  C 79.89 126.45 84.89 132.75 86.02 139.36
  Z
  M 121.74 122.28
  Q 121.17 121.52 120.50 122.01
  Q 111.90 122.00 104.00 121.99
  Q 102.70 121.99 102.96 123.26
  Q 106.86 142.13 110.80 160.99
  Q 111.04 162.14 112.18 162.56
  A 1.16 1.15 15.9 0 0 113.71 161.71
  L 121.84 122.76
  A 0.60 0.56 -58.5 0 0 121.74 122.28
  Z
  M 138.50 122.96
  C 136.03 135.16 133.40 147.32 130.93 159.70
  C 130.63 161.19 129.95 162.37 130.12 163.98
  A 0.88 0.87 86.2 0 0 131.02 164.77
  Q 134.09 164.70 136.80 165.40
  Q 137.78 165.65 137.83 164.64
  Q 138.21 155.93 137.89 147.48
  Q 137.69 141.96 139.11 137.91
  Q 141.12 132.19 143.75 128.98
  Q 146.46 125.69 150.21 122.73
  Q 150.80 122.26 150.06 122.20
  Q 144.74 121.76 139.63 121.99
  Q 138.69 122.03 138.50 122.96
  Z
  M 35.01 156.25
  Q 29.59 141.72 38.07 129.73
  C 39.89 127.16 42.66 125.05 44.95 122.88
  Q 45.89 121.98 44.59 122.00
  Q 40.49 122.07 36.10 121.94
  Q 30.92 121.78 28.12 122.96
  C 22.55 125.31 20.88 130.25 20.94 136.18
  Q 21.05 147.09 21.02 156.16
  Q 21.02 157.04 21.90 157.03
  L 34.53 156.95
  A 0.52 0.52 0.0 0 0 35.01 156.25
  Z
  M 179.42 122.81
  Q 190.83 130.46 191.95 144.77
  A 1.40 1.40 0.0 0 1 190.55 146.27
  L 176.44 146.20
  A 1.54 1.54 0.0 0 1 174.90 144.76
  Q 174.55 139.08 169.57 136.46
  C 164.30 133.68 157.58 136.14 155.46 141.59
  Q 154.55 143.93 154.65 148.38
  Q 154.86 157.26 154.70 166.54
  A 1.15 1.15 0.0 0 0 155.68 167.70
  L 163.03 168.78
  Q 163.95 168.92 163.95 167.98
  L 163.92 157.39
  A 1.57 1.57 0.0 0 1 165.49 155.81
  L 190.53 155.84
  Q 191.79 155.84 191.88 157.10
  Q 192.31 163.29 192.07 171.52
  Q 192.04 172.66 193.17 172.79
  L 205.00 174.18
  A 0.64 0.63 3.2 0 0 205.71 173.55
  Q 205.79 155.27 205.71 135.84
  C 205.67 126.86 200.74 121.72 191.64 121.94
  Q 185.47 122.09 179.67 122.00
  Q 178.16 121.97 179.42 122.81
  Z"
/>
<path fill="#ffffff" d="
  M 84.17 101.14
  Q 85.16 101.14 84.46 100.45
  Q 73.92 89.97 63.01 79.10
  Q 62.19 78.28 61.01 78.14
  C 50.04 76.86 43.29 66.68 47.40 56.19
  C 50.70 47.75 60.60 43.86 68.77 47.69
  Q 77.34 51.70 78.23 61.70
  Q 78.27 62.21 78.63 62.57
  L 100.77 84.71
  Q 101.12 85.07 101.12 84.56
  Q 101.11 68.57 101.12 53.67
  Q 101.12 52.78 100.52 52.07
  C 92.92 43.13 96.40 30.24 107.22 26.33
  C 121.66 21.12 134.07 37.55 125.81 50.11
  C 124.93 51.44 123.83 52.22 123.83 54.01
  Q 123.85 69.34 123.84 84.39
  Q 123.84 85.22 124.42 84.63
  Q 134.16 74.62 145.31 63.66
  C 147.36 61.65 146.77 59.38 147.64 56.97
  C 151.23 46.96 163.55 42.79 172.30 49.38
  C 184.10 58.26 178.78 76.94 164.00 78.07
  A 3.23 3.21 -69.7 0 0 161.95 79.02
  L 140.69 100.40
  Q 139.98 101.11 140.98 101.11
  L 171.60 101.10
  A 2.00 1.98 24.1 0 0 172.91 100.61
  C 178.06 96.07 185.31 95.12 191.28 98.49
  Q 198.59 102.63 199.67 111.86
  Q 199.76 112.67 198.95 112.67
  L 26.23 112.67
  Q 25.16 112.67 25.27 111.61
  C 26.58 99.22 39.49 92.29 50.31 99.21
  C 51.39 99.90 52.04 101.14 53.47 101.13
  Q 70.10 101.05 84.17 101.14
  Z"
/>
<path fill="#ffffff" d="
  M 0.00 96.99
  L 0.23 99.47
  L 0.00 105.75
  L 0.00 96.99
  Z"
/>
<path fill="#ffffff" d="
  M 60.30 156.96
  C 79.39 157.12 91.00 177.41 82.79 194.11
  C 77.50 204.86 65.54 210.49 53.71 207.69
  C 42.70 205.09 34.77 195.38 34.06 183.85
  A 0.62 0.62 0.0 0 1 34.69 183.19
  L 47.95 183.20
  Q 48.52 183.21 48.56 183.77
  C 49.29 194.03 63.29 197.91 69.09 189.14
  C 73.24 182.86 70.70 174.33 63.45 171.96
  C 60.06 170.85 56.29 171.35 52.82 170.31
  C 38.41 166.02 30.22 150.77 35.70 136.45
  C 38.45 129.28 44.65 123.17 51.78 121.05
  C 68.48 116.08 84.10 126.91 85.59 144.32
  Q 85.64 145.00 84.96 145.00
  L 71.94 144.98
  Q 71.20 144.98 71.07 144.26
  C 68.11 128.19 45.50 132.81 48.78 148.20
  C 49.93 153.62 54.92 156.91 60.30 156.96
  Z"
/>
<path fill="#ffffff" d="
  M 124.05 119.74
  L 137.30 119.70
  A 0.54 0.54 0.0 0 1 137.84 120.35
  L 119.70 208.03
  A 0.54 0.54 0.0 0 1 119.17 208.46
  L 105.46 208.47
  A 0.54 0.54 0.0 0 1 104.93 208.04
  L 86.75 120.35
  A 0.54 0.54 0.0 0 1 87.28 119.70
  L 100.57 119.73
  A 0.54 0.54 0.0 0 1 101.10 120.16
  L 111.80 171.67
  A 0.54 0.54 0.0 0 0 112.86 171.67
  L 123.52 120.17
  A 0.54 0.54 0.0 0 1 124.05 119.74
  Z"
/>
<path fill="#ffffff" d="
  M 175.49 171.27
  L 165.81 171.26
  Q 165.24 171.26 165.24 170.69
  L 165.26 157.50
  Q 165.26 157.00 165.75 157.00
  L 190.00 157.00
  Q 190.60 157.00 190.60 157.60
  Q 190.80 171.35 190.63 182.05
  Q 190.38 197.67 177.11 205.25
  C 162.93 213.36 143.90 205.33 139.94 189.09
  Q 138.96 185.06 139.03 179.25
  Q 139.23 161.94 139.09 145.54
  C 139.00 136.67 143.86 128.21 151.24 123.68
  C 167.94 113.42 189.82 124.73 190.59 144.38
  A 0.60 0.59 -0.9 0 1 189.99 144.99
  L 177.07 144.98
  Q 176.10 144.98 176.00 144.01
  C 175.15 135.69 165.36 131.36 158.44 136.14
  C 154.81 138.65 153.46 142.00 153.47 146.25
  Q 153.54 165.10 153.50 182.22
  C 153.47 197.39 175.37 197.90 176.10 183.21
  Q 176.37 177.85 176.16 171.92
  Q 176.14 171.27 175.49 171.27
  Z"
/>
<path fill="#de8500" d="
  M 225.00 121.83
  L 225.00 216.99
  Q 223.60 223.96 216.62 225.00
  L 123.23 225.00
  Q 122.22 224.25 124.02 223.57
  C 127.08 222.43 130.06 220.95 133.03 219.59
  Q 135.46 218.47 136.63 217.38
  Q 138.57 215.56 138.78 213.59
  Q 171.21 213.57 204.25 213.51
  Q 209.41 213.50 212.03 208.02
  Q 212.84 206.32 212.85 201.50
  Q 212.91 172.65 213.18 143.78
  L 213.51 143.99
  Q 213.98 144.29 214.13 143.75
  Q 215.14 140.18 215.93 139.04
  Q 220.02 133.16 222.58 126.13
  Q 222.71 125.75 223.01 125.47
  Q 223.38 125.12 223.47 124.62
  Q 224.76 117.66 225.00 121.83
  Z"
/>
<path fill="#3f3f3f" d="
  M 86.02 139.36
  C 84.89 132.75 79.89 126.45 74.46 122.93
  Q 73.19 122.11 74.70 122.09
  L 84.51 121.91
  A 1.65 1.65 0.0 0 1 86.15 123.23
  L 93.72 159.98
  Q 93.81 160.42 93.37 160.38
  Q 83.82 159.60 74.00 158.73
  Q 72.10 158.56 70.35 157.80
  Q 66.28 156.02 62.00 155.87
  C 54.50 155.60 49.23 152.37 50.01 143.69
  Q 50.44 138.98 54.88 136.72
  C 62.01 133.08 69.74 137.68 70.06 145.52
  A 0.73 0.73 0.0 0 0 70.79 146.22
  L 85.31 146.23
  A 1.45 1.45 0.0 0 0 86.75 144.64
  Q 86.47 142.03 86.02 139.36
  Z"
/>
<path fill="#3f3f3f" d="
  M 121.74 122.28
  A 0.60 0.56 -58.5 0 1 121.84 122.76
  L 113.71 161.71
  A 1.16 1.15 15.9 0 1 112.18 162.56
  Q 111.04 162.14 110.80 160.99
  Q 106.86 142.13 102.96 123.26
  Q 102.70 121.99 104.00 121.99
  Q 111.90 122.00 120.50 122.01
  Q 121.17 121.52 121.74 122.28
  Z"
/>
<path fill="#3f3f3f" d="
  M 130.93 159.70
  C 133.40 147.32 136.03 135.16 138.50 122.96
  Q 138.69 122.03 139.63 121.99
  Q 144.74 121.76 150.06 122.20
  Q 150.80 122.26 150.21 122.73
  Q 146.46 125.69 143.75 128.98
  Q 141.12 132.19 139.11 137.91
  Q 137.69 141.96 137.89 147.48
  Q 138.21 155.93 137.83 164.64
  Q 137.78 165.65 136.80 165.40
  Q 134.09 164.70 131.02 164.77
  A 0.88 0.87 86.2 0 1 130.12 163.98
  C 129.95 162.37 130.63 161.19 130.93 159.70
  Z"
/>
<path fill="#3f3f3f" d="
  M 35.01 156.25
  A 0.52 0.52 0.0 0 1 34.53 156.95
  L 21.90 157.03
  Q 21.02 157.04 21.02 156.16
  Q 21.05 147.09 20.94 136.18
  C 20.88 130.25 22.55 125.31 28.12 122.96
  Q 30.92 121.78 36.10 121.94
  Q 40.49 122.07 44.59 122.00
  Q 45.89 121.98 44.95 122.88
  C 42.66 125.05 39.89 127.16 38.07 129.73
  Q 29.59 141.72 35.01 156.25
  Z"
/>
<path fill="#3f3f3f" d="
  M 179.42 122.81
  Q 178.16 121.97 179.67 122.00
  Q 185.47 122.09 191.64 121.94
  C 200.74 121.72 205.67 126.86 205.71 135.84
  Q 205.79 155.27 205.71 173.55
  A 0.64 0.63 3.2 0 1 205.00 174.18
  L 193.17 172.79
  Q 192.04 172.66 192.07 171.52
  Q 192.31 163.29 191.88 157.10
  Q 191.79 155.84 190.53 155.84
  L 165.49 155.81
  A 1.57 1.57 0.0 0 0 163.92 157.39
  L 163.95 167.98
  Q 163.95 168.92 163.03 168.78
  L 155.68 167.70
  A 1.15 1.15 0.0 0 1 154.70 166.54
  Q 154.86 157.26 154.65 148.38
  Q 154.55 143.93 155.46 141.59
  C 157.58 136.14 164.30 133.68 169.57 136.46
  Q 174.55 139.08 174.90 144.76
  A 1.54 1.54 0.0 0 0 176.44 146.20
  L 190.55 146.27
  A 1.40 1.40 0.0 0 0 191.95 144.77
  Q 190.83 130.46 179.42 122.81
  Z"
/>
<path fill="#ffffff" d="
  M 0.00 216.43
  Q 1.20 223.87 8.38 225.00
  L 0.00 225.00
  L 0.00 216.43
  Z"
/>
<path fill="#ffffff" d="
  M 225.00 216.99
  L 225.00 225.00
  L 216.62 225.00
  Q 223.60 223.96 225.00 216.99
  Z"
/>
</svg>
