<svg id="eTCc9M63lor1" xmlns="http://www.w3.org/2000/svg" xmlns:xlink="http://www.w3.org/1999/xlink" viewBox="0 0 592 591" shape-rendering="geometricPrecision" text-rendering="geometricPrecision"><g transform="matrix(2.616253 0 0 2.583976 5.94041 6.97272)"><path id="eTCc9M63lor3" d="M99.43,0.3q1.72,1.59-2.31,3.1-9.27,3.47-15.8,10.72c-2.07,2.31-3.41,4.92-5.19,7.39-.548176.759581-1.495105,1.121064-2.41.92q-4.48-.96-8.76-1.35c-14.39-1.31-27.65,5.4-36.18,16.8-7.92,10.58-9.71,23.26-6.36,36.08.158771.5922-.036163,1.219888-.5,1.61-2.59,2.23-5.52,3.75-8.09,6.11C8,87.01,4.72,93.05,1.61,100.06q-.23.53-.65.13l-.73-.72" opacity="0" fill="none" stroke="#ffa51e" stroke-width="2"/><path id="eTCc9M63lor4" d="M225,121.83q-.24-4.17-1.53,2.79-.09.5-.46.85-.3.28-.43.66-2.56,7.03-6.65,12.91-.79,1.14-1.8,4.71-.15.54-.62.24l-.33-.21" opacity="0.02" fill="none" stroke="#ee8f00" stroke-width="2"/><path d="M213.18,143.78q-.18-11.05-.17-22.11.01-13.26-1.27-17.44c-3.88-12.67-14.41-20.35-27.42-21.16-.125597-.004776-.236768-.082635-.28419-.199034s-.022311-.249779.06419-.340966c12.45-13.87,10.16-34.46-5.26-44.83-11.45-7.71-26.24-5.93-36.4,3.24q-.57.52-.62-.25c-.96-13.82-8.76-24.07-21.99-27.71-7.29-2.01-16.25-.7-22.64,3.32Q84.03,24.59,82.9,40.66q-.04.68-.54.21c-18.32-17.5-49.57-4.52-49.5,21.11q.03,11.93,7.95,20.38.55.58-.24.65-3.13.29-6.19,1c-10.14,2.36-18.7,10.45-21.37,20.62q-1.14,4.35-1.11,11.64.18,43.54.08,87.01c-.01,6.01,3.86,10.29,10.27,10.29q57.97.01,116.53.02" fill="none" stroke="#7f4d00" stroke-width="2"/><path id="eTCc9M63lor6" d="M138.78,213.59q-.21,1.97-2.15,3.79-1.17,1.09-3.6,2.21c-2.97,1.36-5.95,2.84-9.01,3.98q-1.8.68-.79,1.43" opacity="0" fill="none" stroke="#ee8f00" stroke-width="2"/><path d="M213.18,143.78q-.27,28.87-.33,57.72-.01,4.82-.82,6.52-2.62,5.48-7.78,5.49-33.04.06-65.47.08" fill="none" stroke="#6f4300" stroke-width="2"/><path d="M84.17,101.14q-14.07-.09-30.7-.01c-1.43.01-2.08-1.23-3.16-1.92-10.82-6.92-23.73.01-25.04,12.4q-.11,1.06.96,1.06h172.72q.81,0,.72-.81-1.08-9.23-8.39-13.37c-5.97-3.37-13.22-2.42-18.37,2.12-.361409.315846-.826842.489939-1.31.49l-30.62.01q-1,0-.29-.71l21.26-21.38c.547696-.554592,1.275891-.892048,2.05-.95c14.78-1.13,20.1-19.81,8.3-28.69-8.75-6.59-21.07-2.42-24.66,7.59-.87,2.41-.28,4.68-2.33,6.69q-11.15,10.96-20.89,20.97-.58.59-.58-.24.01-15.05-.01-30.38c0-1.79,1.1-2.57,1.98-3.9c8.26-12.56-4.15-28.99-18.59-23.78-10.82,3.91-14.3,16.8-6.7,25.74q.6.71.6,1.6-.01,14.9,0,30.89q0,.51-.35.15L78.63,62.57q-.36-.36-.4-.87-.89-10-9.46-14.01c-8.17-3.83-18.07.06-21.37,8.5-4.11,10.49,2.64,20.67,13.61,21.95q1.18.14,2,.96q10.91,10.87,21.45,21.35.7.69-.29.69" fill="none" stroke="#808080" stroke-width="2"/><path d="M82.79,194.11c8.21-16.7-3.4-36.99-22.49-37.15-5.38-.05-10.37-3.34-11.52-8.76-3.28-15.39,19.33-20.01,22.29-3.94q.13.72.87.72l13.02.02q.68,0,.63-.68c-1.49-17.41-17.11-28.24-33.81-23.27-7.13,2.12-13.33,8.23-16.08,15.4-5.48,14.32,2.71,29.57,17.12,33.86c3.47,1.04,7.24.54,10.63,1.65c7.25,2.37,9.79,10.9,5.64,17.18-5.8,8.77-19.8,4.89-20.53-5.37q-.04-.56-.61-.57l-13.26-.01c-.173335-.003159-.340075.066398-.459779.191802s-.181435.295197-.170221.468198c.71,11.53,8.64,21.24,19.65,23.84c11.83,2.8,23.79-2.83,29.08-13.58" fill="none" stroke="#808080" stroke-width="2"/><path d="M124.05,119.74c-.256333-.000628-.477785.179041-.53.43l-10.66,51.5c-.049489.253567-.271648.436559-.53.436559s-.480511-.182992-.53-.436559l-10.7-51.51c-.052215-.250959-.273667-.430628-.53-.43l-13.29-.03c-.162744-.000399-.316988.072622-.419833.198752s-.143319.291916-.110167.451248l18.18,87.69c.052215.250959.273667.430628.53.43l13.71-.01c.256333.000628.477785-.179041.53-.43l18.14-87.68c.03355-.161066-.008157-.32864-.11329-.45519s-.262223-.198267-.42671-.19481l-13.25.04" fill="none" stroke="#808080" stroke-width="2"/><path d="M176.16,171.92q.21,5.93-.06,11.29c-.73,14.69-22.63,14.18-22.6-.99q.04-17.12-.03-35.97c-.01-4.25,1.34-7.6,4.97-10.11c6.92-4.78,16.71-.45,17.56,7.87q.1.97,1.07.97l12.92.01c.16266.000005.318386-.064931.431502-.179932s.173925-.27021.168498-.430068c-.77-19.65-22.65-30.96-39.35-20.7-7.38,4.53-12.24,12.99-12.15,21.86q.14,16.4-.06,33.71-.07,5.81.91,9.84c3.96,16.24,22.99,24.27,37.17,16.16q13.27-7.58,13.52-23.2.17-10.7-.03-24.45q0-.6-.6-.6h-24.25q-.49,0-.49.5l-.02,13.19q0,.57.57.57l9.68.01q.65,0,.67.65" fill="none" stroke="#808080" stroke-width="2"/><path d="M86.02,139.36q.45,2.67.73,5.28c.039429.406449-.094357.810683-.368479,1.113359s-.663165.475733-1.071521.476641l-14.52-.01c-.391737.000331-.713901-.308594-.73-.7-.32-7.84-8.05-12.44-15.18-8.8q-4.44,2.26-4.87,6.97c-.78,8.68,4.49,11.91,11.99,12.18q4.28.15,8.35,1.93q1.75.76,3.65.93q9.82.87,19.37,1.65.44.04.35-.4l-7.57-36.75c-.1585-.776892-.847183-1.331198-1.64-1.32l-9.81.18q-1.51.02-.24.84c5.43,3.52,10.43,9.82,11.56,16.43" fill="none" stroke="#202020" stroke-width="2"/><path d="M121.74,122.28q-.57-.76-1.24-.27-8.6-.01-16.5-.02-1.3,0-1.04,1.27q3.9,18.87,7.84,37.73.24,1.15,1.38,1.57c.317441.115066.669005.087343.9629-.075933s.500949-.445894.5671-.774067l8.13-38.95c.038089-.171778.00148-.3475-.1-.48" fill="none" stroke="#202020" stroke-width="2"/><path d="M138.5,122.96c-2.47,12.2-5.1,24.36-7.57,36.74-.3,1.49-.98,2.67-.81,4.28.047288.461934.441262.807755.9.79q3.07-.07,5.78.63.98.25,1.03-.76.38-8.71.06-17.16-.2-5.52,1.22-9.57q2.01-5.72,4.64-8.93q2.71-3.29,6.46-6.25.59-.47-.15-.53-5.32-.44-10.43-.21-.94.04-1.13.97" fill="none" stroke="#202020" stroke-width="2"/><path d="M35.01,156.25q-5.42-14.53,3.06-26.52c1.82-2.57,4.59-4.68,6.88-6.85q.94-.9-.36-.88-4.1.07-8.49-.06-5.18-.16-7.98,1.02c-5.57,2.35-7.24,7.29-7.18,13.22q.11,10.91.08,19.98q0,.88.88.87l12.63-.08c.168671-.00254.325629-.086743.421028-.225866s.117384-.31588.058972-.474134" fill="none" stroke="#202020" stroke-width="2"/><path d="M179.42,122.81q11.41,7.65,12.53,21.96c.027808.388304-.107321.770652-.372946,1.05525s-.637757.445744-1.027054.44475l-14.11-.07c-.812949.001716-1.487213-.628765-1.54-1.44q-.35-5.68-5.33-8.3c-5.27-2.78-11.99-.32-14.11,5.13q-.91,2.34-.81,6.79.21,8.88.05,18.16c-.011363.578036.408188,1.074646.98,1.16l7.35,1.08q.92.14.92-.8l-.03-10.59c-.002663-.41812.161571-.820029.456292-1.116628s.69558-.46338,1.113708-.463372l25.04.03q1.26,0,1.35,1.26.43,6.19.19,14.42-.03,1.14,1.1,1.27L205,174.18c.181709.020013.363302-.037415.498974-.1578s.212472-.292234.211026-.4722q.08-18.28,0-37.71c-.04-8.98-4.97-14.12-14.07-13.9q-6.17.15-11.97.06-1.51-.03-.25.81" fill="none" stroke="#202020" stroke-width="2"/></g><path d="M5.836649,6.972817h20.563752Q9.133129,9.78935,5.836649,27.567102v-20.594285Z" fill="#fff" stroke-width="2.60007"/><path id="eTCc9M63lor18" d="M26.400401,6.972817h235.462809l4.10753.775192q4.49994,4.108521-6.04355,8.010324-24.25267,8.966396-41.33681,27.700218c-5.41564,5.968983-8.92143,12.713159-13.57836,19.09558-1.434168,1.962738-3.911572,2.896801-6.30517,2.377257q-11.72081-2.480616-22.91837-3.488366c-37.6479-3.385008-72.33941,13.953466-94.656056,43.410788-20.720727,27.33847-25.403821,60.10326-16.639372,93.22984.415385,1.53023-.094613,3.15216-1.308128,4.1602-6.776095,5.76226-14.441718,9.6899-21.165489,15.78809-15.252758,13.77259-23.834069,29.3798-31.970618,47.49347q-.601737,1.36951-1.700565.33591l-1.909864-1.86046-.601739-6.40826v-230.025498Q9.133129,9.78935,26.400401,6.972817Z" transform="translate(2.220445-1.710701)" opacity="0" fill="#ffb03b" stroke-width="2.60007"/><path d="M261.86321,6.972817h26.79044l-22.68291.775192-4.10753-.775192Z" fill="#fff" stroke-width="2.60007"/><path id="eTCc9M63lor20" d="M288.65365,6.972817h283.88966q19.36027,3.410848,21.95036,22.635625v292.170118q-.6279-10.77517-4.00286,7.20928-.23547,1.29199-1.20349,2.19639-.78487.72352-1.12499,1.70542-6.69761,18.16534-17.39807,33.35913-2.06686,2.94573-4.70926,12.17052-.39244,1.39535-1.62209.62016l-.86335-.54264q-.47093-28.55294-.44476-57.1317.0261-34.26352-3.32264-45.06453c-10.15107-32.73898-37.70022-52.58391-71.73767-54.67693-.328594-.012338-.619446-.213522-.743516-.514291s-.05838-.645423.167926-.881049c32.57237-35.83973,26.58114-89.04379-13.7615-115.83962-29.95609-19.922455-68.65047-15.32298-95.2316,8.37207q-1.49127,1.34367-1.62209-.64598c-2.5116-35.710551-22.91838-62.196299-57.53141-71.601971-19.07248-5.193791-42.51412-1.808782-59.23198,8.578799q-34.4299,21.421158-37.38626,62.945642-.10465,1.75711-1.41278.54264C173.38152,67.360325,91.623599,100.90032,91.806737,167.12763q.07849,30.82683,20.799223,52.66142q1.43893,1.49871-.62791,1.67957-8.18887.74936-16.194608,2.58398c-26.528809,6.09819-48.923939,27.00255-55.909335,53.28158q-2.982529,11.24029-2.904043,30.07747.470927,112.5063.209301,224.83171c-.02617,15.5297,10.098739,26.58911,26.868923,26.58911q151.664212.0258,304.872002.0517-.5494,5.09044-5.62493,9.79327-3.06102,2.81653-9.41851,5.71057c-7.77028,3.51422-15.56672,7.33849-23.57245,10.28424q-4.70925,1.75711-2.06684,3.69508h-300.476706q-18.7847-2.9199-21.924205-22.14469v-285.99442l.601739-16.22736l1.909864,1.86046q1.098828,1.0336,1.700565-.33591c8.136549-18.11367,16.71786-33.72088,31.970618-47.49347c6.723771-6.09819,14.389394-10.02583,21.165489-15.78809c1.213515-1.00804,1.723513-2.62997,1.308128-4.1602-8.764449-33.12658-4.081355-65.89137,16.639372-93.22984C103.44907,75.396488,138.14058,58.058014,175.78848,61.443022q11.19756,1.00775,22.91837,3.488366c2.393598.519544,4.871002-.414519,6.30517-2.377257c4.65693-6.382421,8.16272-13.126597,13.57836-19.09558q17.08414-18.733822,41.33681-27.700218q10.54349-3.901803,6.04355-8.010324l22.68291-.775192Z" transform="translate(-.492409-.00001)" opacity="0" fill="#fe9900" stroke-width="2.60007"/><path d="M572.54331,6.972817h21.95036v22.635625q-2.59009-19.224777-21.95036-22.635625Z" fill="#fff" stroke-width="2.60007"/><path id="eTCc9M63lor22" d="M563.56956,378.49682q-.7064,74.59938-.86337,149.14706-.0261,12.45477-2.14533,16.84753-6.85458,14.16019-20.35445,14.18602-86.44101.15504-171.28612.20673-153.20779-.0258-304.872002-.0517c-16.770184,0-26.895085-11.05941-26.868923-26.58911q.261626-112.32541-.209301-224.83171-.07849-18.83718,2.904043-30.07747c6.985396-26.27903,29.380526-47.1834,55.909335-53.28158q8.005738-1.83462,16.194608-2.58397q2.06684-.18088.62791-1.67959-20.720735-21.83459-20.799223-52.66142c-.183138-66.22729,81.574783-99.767285,129.504543-54.54771q1.30813,1.21447,1.41278-.54264q2.95636-41.524484,37.38626-62.945642c16.71786-10.387581,40.1595-13.77259,59.23198-8.578799c34.61303,9.405672,55.01981,35.89142,57.53141,71.601971q.13082,1.98965,1.62209.64598c26.58113-23.69505,65.27551-28.294525,95.2316-8.37207c40.34264,26.79583,46.33387,79.99989,13.7615,115.83962-.226306.235626-.291996.580279-.167926.881049s.414922.501953.743516.514291c34.03745,2.09302,61.5866,21.93795,71.73767,54.67693q3.3488,10.80101,3.32264,45.06453-.0262,28.57876.44476,57.1317ZM226.04671,268.31611q-36.8107-.23256-80.31899-.0258c-3.74124.0258-5.44181-3.17829-8.26737-4.96123-28.30785-17.88111-62.083683.0258-65.510977,32.04129q-.287787,2.73902,2.511604,2.73902h451.879293q2.11916,0,1.88371-2.09302-2.82556-23.8501-21.95037-34.54776c-15.61904-8.708-34.58689-6.25322-48.06058,5.47804-.945537.816134-2.163228,1.265984-3.42729,1.26614l-80.10967.0258q-2.61627,0-.75873-1.83462l55.62155-55.2454c1.43291-1.433053,3.338054-2.305033,5.36332-2.45478c38.66823-2.9199,52.58669-51.18855,21.71491-74.13426-22.89223-17.0284-55.12447-6.25323-64.5168,19.61238-2.27616,6.22738-.73257,12.093-6.09588,17.28679q-29.17123,28.32037-54.65353,54.18598-1.51744,1.52453-1.51744-.62017.0262-38.88882-.0261-78.50118c0-4.62531,2.87788-6.6408,5.18018-10.0775c21.61025-32.45474-10.85745-74.90946-48.63615-61.446946-28.30787,10.103344-37.41243,43.410786-17.5289,66.511536q1.56974,1.83461,1.56974,4.13435-.0261,38.50123,0,79.81901q0,1.31782-.91568.3876l-57.92384-57.20922q-.94184-.93023-1.0465-2.24804-2.32846-25.83977-24.74974-36.20151c-21.3748-9.89662-47.27571.15504-55.90935,21.9638-10.7528,27.1059,6.90691,53.41077,35.60721,56.71826q3.08718.36175,5.23251,2.48061q28.54332,28.08781,56.11864,55.16789q1.83137,1.78294-.75871,1.78294Zm-3.61044,240.2322c21.47944-43.1524-8.89527-95.58125-58.83955-95.99469-14.07543-.12921-27.13054-8.63048-30.13923-22.63562-8.58131-39.7674,50.57218-51.70537,58.31629-10.18087q.34012,1.86046,2.27614,1.86046l34.06361.0517q1.77907,0,1.64826-1.7571c-3.89823-44.98702-44.7641-72.97147-88.45554-60.12911-18.65389,5.47803-34.87466,21.26611-42.069353,39.79323-14.337069,37.00252,7.090043,76.40815,44.790253,87.4934c9.0784,2.68735,18.94167,1.39535,27.81077,4.26356c18.96786,6.12402,25.61313,28.16534,14.75568,44.3927-15.17428,22.66147-51.80182,12.63565-53.71168-13.87594q-.10466-1.44704-1.59593-1.47286l-34.691509-.0258c-.453489-.008163-.889725.171573-1.2029.495614s-.474678.762785-.445339,1.209816c1.857539,29.79324,22.604438,54.88364,51.409388,61.60197c30.95027,7.23514,62.24065-7.31265,76.08064-35.09039ZM330.38289,316.37804c-.670635-.001624-1.250011.462635-1.38662,1.11111L301.107,450.56389c-.129495.655189-.71071,1.128011-1.386605,1.128011s-1.25711-.472822-1.386605-1.128011L270.33987,317.46331c-.136612-.648467-.715982-1.112721-1.38661-1.1111l-34.77001-.0775c-.425778-.001029-.829318.187654-1.098384.51357s-.374959.754301-.288226,1.16601l47.56349,226.58883c.136608.648471.715979,1.11273,1.38661,1.11111l35.86884-.0258c.670634.001619,1.250006-.462645,1.38661-1.11112l47.45884-226.56298c.087775-.416191-.021343-.849202-.296401-1.176202s-.686049-.512315-1.116389-.503378l-34.66535.10329ZM466.71584,451.2099q.54943,15.32297-.15695,29.17306c-1.90987,37.95861-59.20583,36.64079-59.12734-2.55812q.10465-44.23766-.0785-92.94561c-.0261-10.9819,3.50579-19.6382,13.00278-26.12399c18.10448-12.35139,43.7176-1.16278,45.94142,20.33589q.26163,2.50646,2.79938,2.50646l33.802.0258c.425558.000013.832977-.167781,1.128915-.464939s.455033-.698212.440835-1.111281c-2.01451-50.77513-59.25814-79.99987-102.94957-53.48829-19.30795,11.70541-32.02294,33.56583-31.78748,56.48571q.36627,42.37719-.15697,87.10581-.18314,15.0129,2.38077,25.42633c10.36039,41.96376,60.14768,62.71308,97.24615,41.75703q34.71768-19.58653,35.37175-59.94823.44476-27.64853-.0785-63.17821q0-1.55037-1.56975-1.55037h-63.44415q-1.28195,0-1.28195,1.29198l-.0524,34.08264q0,1.47285,1.49126,1.47285l25.32533.0258q1.70056,0,1.75288,1.67958ZM230.88677,367.07565q1.17731,6.89921,1.90987,13.64339c.103152,1.050252-.246867,2.094778-.964037,2.876883s-1.735003,1.229278-2.803363,1.231627l-37.98801-.0258c-1.024888.000858-1.867756-.797401-1.90987-1.80879-.8372-20.25837-21.06084-32.14466-39.71472-22.73899q-11.61617,5.83978-12.74115,18.01031c-2.04069,22.42891,11.74697,30.77515,31.36888,31.47283q11.19755.38759,21.84571,4.98707q4.57844,1.96383,9.54932,2.4031q25.69162,2.24806,50.67684,4.26355q1.15115.10336.91568-1.03359l-19.80504-94.96115c-.414675-2.007469-2.216442-3.439783-4.29065-3.41085l-25.66545.46511q-3.95054.0517-.62789,2.17055c14.20625,9.09559,27.28752,25.37464,30.24388,42.45472Zm93.45257-44.1343q-1.49125-1.96382-3.24416-.69768-22.49978-.0258-43.16817-.0517-3.40114,0-2.72091,3.28165q10.20339,48.75962,20.51142,97.4934.62791,2.97156,3.61044,4.05684c.830509.29733,1.75029.225691,2.519196-.196211s1.310609-1.152185,1.483674-2.000179l21.27014-100.64585c.099646-.443869.003866-.897926-.26163-1.2403Zm43.84841,1.75709c-6.46214,31.52451-13.3429,62.94566-19.80505,94.93527-.78488,3.85013-2.56392,6.89921-2.11915,11.05942.123721,1.193618,1.154451,2.087205,2.35462,2.04133q8.0319-.18088,15.12195,1.62791q2.56392.64599,2.69473-1.96383.99419-22.50642.15699-44.34101-.52325-14.26355,3.19183-24.72865q5.25867-14.78034,12.13942-23.0749q7.09004-8.50128,16.90099-16.14984q1.54359-1.21448-.39245-1.36951-13.91846-1.13696-27.28752-.54264-2.45927.10336-2.95636,2.50645ZM97.431683,410.71899q-14.180094-37.54515,8.005737-68.52703c4.76158-6.64081,12.0086-12.09299,17.99983-17.70023q2.45927-2.32558-.94187-2.2739-10.72663.18087-22.21198-.15504-13.552196-.41344-20.877705,2.63565c-14.572531,6.07236-18.941674,18.83718-18.784698,34.16016q.287787,28.19117.209299,51.62784q0,2.2739,2.302304,2.24805l33.04328-.20672c.441285-.006564.851928-.22414,1.101516-.583632s.307106-.816223.154287-1.225148ZM475.24484,324.31086q29.85145,19.7674,32.78165,56.74409c.072755,1.003367-.280776,1.991347-.975718,2.726743s-1.668533,1.151795-2.687032,1.149227l-36.91533-.18089c-2.126878.004433-3.890923-1.624711-4.02903-3.72092q-.91569-14.67697-13.94463-21.44699c-13.78767-7.18346-31.36888-.82688-36.91534,13.25579q-2.3808,6.04649-2.11917,17.5452.54941,22.9457.13081,46.92499c-.029726,1.49363,1.067924,2.776859,2.56393,2.99741l19.22948,2.7907q2.40694.36176,2.40694-2.06718l-.0785-27.36431c-.006967-1.080412.42271-2.118936,1.193776-2.885339s1.819814-1.197363,2.913744-1.197341l65.51098.0775q3.2965,0,3.53194,3.25582q1.12499,15.99481.49711,37.26092-.0785,2.94574,2.87787,3.28165l30.95028,3.59172c.475399.051714.950493-.096681,1.305446-.407754s.555878-.755128.552094-1.220156q.2093-47.23504,0-97.44171c-.10465-23.2041-13.00278-36.48574-36.81068-35.91726q-16.14229.38759-31.31657.15504-3.95054-.0775-.65406,2.09303Z" opacity="0" stroke-width="2.60007"/><path d="M226.04671,268.31611q2.59008,0,.75871-1.78294-27.57532-27.08008-56.11864-55.16789-2.14533-2.11886-5.23251-2.48061c-28.7003-3.30749-46.36001-29.61236-35.60721-56.71826c8.63364-21.80876,34.53455-31.86042,55.90935-21.9638q22.42128,10.36174,24.74974,36.20151.10466,1.31781,1.0465,2.24804l57.92386,57.20922q.91568.93024.91568-.38759-.0261-41.31778,0-79.81901q0-2.29974-1.56974-4.13435c-19.88353-23.10075-10.77897-56.408192,17.52889-66.511537c37.77869-13.462513,70.2464,28.992207,48.63616,61.446937-2.3023,3.4367-5.18019,5.45219-5.18019,10.07751q.0523,39.61235.0262,78.50117q0,2.1447,1.51743.62017q25.4823-25.8656,54.65352-54.18598c5.36333-5.19379,3.81973-11.05941,6.09588-17.28679c9.39234-25.86561,41.62458-36.64078,64.51681-19.61238c30.87178,22.94571,16.95331,71.21436-21.71491,74.13426-2.025266.149747-3.93041,1.021727-5.36332,2.45478l-55.62155,55.2454q-1.85754,1.83462.75872,1.83462l80.10968-.0258c1.264059-.000158,2.481745-.450008,3.42728-1.26614c13.47371-11.73126,32.44155-14.18604,48.06059-5.47803q19.12481,10.69765,21.95037,34.54775.23546,2.09302-1.88372,2.09302h-451.879313q-2.799391,0-2.511604-2.73902c3.427294-32.01545,37.203127-49.9224,65.510977-32.04129c2.82556,1.78294,4.52613,4.98707,8.26737,4.96123q43.50829-.20672,80.31899.0258Z" fill="#fff" stroke-width="2.60007"/><path d="M5.836649,257.5926l.601739,6.40826-.601739,16.22736v-22.63562Z" fill="#fff" stroke-width="2.60007"/><path id="eTCc9M63lor25" d="M163.59672,412.55362c49.94428.41344,80.31899,52.84229,58.83955,95.99469-13.83999,27.77774-45.13037,42.32552-76.08064,35.09038-28.80495-6.71833-49.551849-31.80873-51.409388-61.60197-.029336-.447029.132169-.88577.445343-1.209809s.749409-.503774,1.202896-.495611l34.691509.0258q1.49127.0258,1.59593,1.47286c1.90986,26.51158,38.5374,36.53742,53.71168,13.87594c10.85745-16.22736,4.21218-38.26868-14.75568-44.39271-8.8691-2.8682-18.73237-1.57621-27.81077-4.26355-37.70021-11.08522-59.127322-50.49084-44.790253-87.49337c7.194693-18.52712,23.415463-34.3152,42.069353-39.79323c43.69144-12.84236,84.55731,15.14209,88.45554,60.12911q.13081,1.7571-1.64826,1.7571l-34.06361-.0517q-1.93602,0-2.27614-1.86046c-7.74411-41.52449-66.8976-29.58653-58.31629,10.18087c3.00869,14.00514,16.0638,22.50641,30.13923,22.63562Z" transform="translate(-399.647553-249.980347)" fill="#9c9c9c" stroke-width="2.60007"/><path id="eTCc9M63lor26" d="M330.38289,316.37804l34.66535-.10336c.430342-.008938.841335.176379,1.116393.503381s.384176.760016.296397,1.176209L319.00219,544.51724c-.136604.648475-.715976,1.112739-1.38661,1.11112l-35.86884.0258c-.670631.00162-1.250002-.462639-1.38661-1.11111L232.79664,317.95427c-.086736-.411711.019155-.840099.288221-1.166017s.672609-.514602,1.098389-.513573l34.77001.0775c.670628-.001621,1.249998.462633,1.38661,1.1111l27.99392,133.10059c.129495.655189.71071,1.128011,1.386605,1.128011s1.25711-.472822,1.386605-1.128011l27.88927-133.07474c.136609-.648475.715985-1.112734,1.38662-1.11111Z" transform="translate(-372.738612-243.806961)" fill="#b5b5b5" stroke-width="2.60007"/><path id="eTCc9M63lor27" d="M464.96296,449.53031l-25.32533-.0258q-1.49126,0-1.49126-1.47285l.0524-34.08265q0-1.29199,1.28196-1.29199h63.44413q1.56976,0,1.56976,1.55039.52325,35.52967.0785,63.1782-.65406,40.3617-35.37175,59.94824c-37.09846,20.95605-86.88576.20672-97.24614-41.75704q-2.56391-10.41344-2.38079-25.42633.52325-44.72862.15699-87.10581c-.23547-22.91987,12.47952-44.78029,31.78747-56.48571c43.69144-26.51158,100.93506,2.71317,102.94957,53.48829.014201.41307-.144893.814128-.440831,1.111288s-.703359.464955-1.128919.464942l-33.80199-.0258q-2.53777,0-2.79939-2.50646c-2.22383-21.49867-27.83694-32.68728-45.94141-20.33588-9.497,6.48578-13.02895,15.14209-13.00279,26.12399q.18314,48.70795.0785,92.9456c-.0785,39.19892,57.21746,40.51674,59.12732,2.55813q.70639-13.8501.15697-29.17307-.0523-1.67959-1.75289-1.67959Z" transform="translate(303.971333-.317203)" fill="#b1b1b1" stroke-width="2.60007"/><path id="eTCc9M63lor28" d="M594.49367,321.77856v245.89111q-3.66274,18.0103-21.9242,20.69765h-244.33191q-2.64241-1.93798,2.06684-3.69509c8.00573-2.94574,15.80217-6.77001,23.57245-10.28422q6.35749-2.89405,9.41851-5.71059q5.07553-4.70283,5.62493-9.79326q84.84511-.0517,171.28612-.20673q13.49987-.0258,20.35445-14.18602q2.11917-4.39276,2.14533-16.84753.15697-74.54768.86337-149.14706l.86335.54264q1.22965.77519,1.62209-.62016q2.6424-9.22479,4.70926-12.17052q10.70046-15.19379,17.39807-33.35913.34012-.9819,1.12499-1.70542.96802-.9044,1.20349-2.19639q3.37496-17.98445,4.00286-7.20928Z" transform="translate(0 0.003844)" opacity="0" fill="#de8500" stroke-width="2.60007"/><path d="M230.88677,367.07565c-2.95636-17.08008-16.03763-33.35913-30.24388-42.45472q-3.32265-2.11887.62789-2.17055l25.66545-.46511c2.074208-.028933,3.875975,1.403381,4.29065,3.41085l19.80504,94.9611q.23547,1.13695-.91568,1.03359-24.98522-2.01549-50.67684-4.26355-4.97088-.43928-9.54932-2.4031-10.64816-4.59948-21.84571-4.98707c-19.62191-.69768-33.40957-9.04392-31.36888-31.47284q1.12498-12.17051,12.74115-18.0103c18.65388-9.40567,38.87752,2.48062,39.71472,22.73898.042109,1.011392.884979,1.809657,1.90987,1.8088l37.98801.0258c1.068362-.002348,2.086196-.449524,2.803367-1.231631s1.067188-1.826635.964033-2.876889q-.73256-6.74418-1.90987-13.6434Z" transform="translate(.103484-.236998)" fill="#3f3f3f" stroke-width="2.60007"/><path d="M324.33934,322.94135c.265496.342374.361276.796431.26163,1.2403L303.33083,424.8275c-.173067.847992-.714771,1.578273-1.483677,2.000173s-1.688686.493537-2.519193.196207q-2.98253-1.08527-3.61044-4.05683-10.30803-48.7338-20.51142-97.49341-.68023-3.28165,2.72091-3.28165q20.66839.0258,43.16817.0517q1.75291-1.26614,3.24416.69767Z" transform="translate(-1.522005-2.535249)" fill="#3f3f3f" stroke-width="2.60007"/><path d="M348.3827,419.63371c6.46215-31.98961,13.34291-63.41076,19.80505-94.93527q.49709-2.40309,2.95636-2.50645q13.36906-.59432,27.28752.54264q1.93604.15503.39245,1.36951-9.81095,7.64856-16.90099,16.14984-6.88075,8.29456-12.13942,23.0749-3.71508,10.4651-3.19183,24.72865.8372,21.83459-.15699,44.34101-.13081,2.60982-2.69473,1.96383-7.09005-1.80879-15.12195-1.62791c-1.200169.045875-2.230899-.847712-2.35462-2.04133-.44477-4.16021,1.33427-7.20929,2.11915-11.05942Z" fill="#3f3f3f" stroke-width="2.60007"/><path d="M97.431683,410.71899c.152819.408925.095301.865657-.154287,1.225148s-.660231.577068-1.101516.583632l-33.04328.20672q-2.302304.0258-2.302304-2.24805.07849-23.43667-.209299-51.62784c-.156976-15.32298,4.212167-28.0878,18.784698-34.16016q7.325509-3.04909,20.877705-2.63565q11.48535.33591,22.21198.15504q3.40114-.0517.94187,2.2739c-5.99123,5.60724-13.23825,11.05942-17.99983,17.70023q-22.185831,30.98188-8.005737,68.52703Z" transform="translate(-.375141 0.152765)" fill="#3f3f3f" stroke-width="2.60007"/><path d="M475.24484,324.31086q-3.29648-2.17055.65406-2.09303q15.17429.23255,31.31656-.15504c23.80791-.56848,36.70603,12.71316,36.81068,35.91726q.20931,50.20666,0,97.44172c.003784.465028-.197141.909082-.552094,1.220156s-.830047.459468-1.305446.407754l-30.95027-3.59174q-2.95637-.3359-2.87789-3.28164.62791-21.26612-.49709-37.26092-.23545-3.25581-3.53193-3.25581l-65.51099-.0775c-1.09393-.000022-2.142678.430938-2.913744,1.197341s-1.200743,1.804927-1.193776,2.885339l.0785,27.3643q0,2.42895-2.40694,2.06719l-19.22948-2.79071c-1.496002-.220555-2.593647-1.503783-2.56392-2.99741q.41859-23.97929-.13082-46.92498-.26162-11.4987,2.11917-17.54521c5.54645-14.08266,23.12768-20.43924,36.91533-13.25579q13.02895,6.77002,13.94463,21.447c.138107,2.096213,1.902158,3.725358,4.02904,3.72092l36.91534.18088c1.018498.002566,1.992086-.413834,2.687026-1.14923s1.048469-1.723375.975714-2.72674q-2.9302-36.97668-32.78165-56.74409Z" transform="translate(-1.471162-.298033)" fill="#3f3f3f" stroke-width="2.60007"/><path d="M5.836649,566.22263q3.139505,19.22479,21.924205,22.14469h-21.924205v-22.14469Z" fill="#fff" stroke-width="2.60007"/><path d="M594.49367,567.66967v20.69765h-21.9242q18.26146-2.68735,21.9242-20.69765Z" fill="#fff" stroke-width="2.60007"/><ellipse id="eTCc9M63lor36" rx="45.8533" ry="41.3443" transform="matrix(1 0 0 1.017611 169.935 167.613001)" stroke-width="2.57035"/><ellipse id="eTCc9M63lor37" rx="45.8533" ry="41.3443" transform="translate(299.688 113.303)" stroke-width="2.57035"/><ellipse id="eTCc9M63lor38" rx="44.584" ry="42.5924" transform="translate(431.218 168.133)" stroke-width="2.57251"/><rect id="eTCc9M63lor39" width="60.4935" height="99.7486" rx="0" ry="0" transform="translate(269.426 126.564)" stroke-width="2.60007"/><path id="eTCc9M63lor40" d="M456.98449,267.72091c8.58534-6.09631,11.89752-7.9943,11.89752-7.9943l3.71819-1.25145l7.19498-1.73639l5.51836-.5642l6.13214.24128l4.70227.96906l6.25376,2.22135l3.47493,1.69499l4.7006,2.86719l3.88288,3.1487l3.9652,4.03702l3.51268,5.02265l2.67682,5.32925l1.39008,3.91677l1.90121,8.0143.32706,2.80566-.22552,1.11067-.89912.48436-1.8806.14135-50.21445-.13697-17.85509-.11317-.1739-30.20812Z" transform="matrix(1.049504 0 0 1.066596-24.372514-19.540097)" stroke-width="2.60007"/><path id="eTCc9M63lor41" d="M142.79109,267.06949c-8.58535-6.26236-11.89752-8.21207-11.89752-8.21207l-3.7182-1.2855-7.19499-1.7837-5.51835-.57958-6.13213.24791-4.70228.99543-6.253755,2.28188-3.474933,1.74116-4.700597,2.94531-3.882886,3.23443-3.965194,4.14701-3.512687,5.15947-2.67682,5.47441-1.390067,4.02342-1.901206,8.23263-.327083,2.88209.22552,1.1409.899129.49758l1.880616.14521l50.214423-.14057l17.8551-.11628.17391-31.03114Z" transform="matrix(1.066775 0 0 1.075181-6.671299-21.496244)" stroke-width="2.63523"/><path id="eTCc9M63lor42" d="M166.57893,209.01256l46.24757-39.05592l56.53692,55.9544-41.7396,41.68356-61.04489-58.58204Z" transform="matrix(1.081925 0 0 1.044374-17.857289-10.558409)" stroke-width="2.60007"/><path id="eTCc9M63lor43" d="M330.45041,226.3209l58.69774-58.29942l41.36987,40.53802.98053,1.29165-59.02708,57.97769-42.02106-41.50794Z" transform="matrix(1.111441-.042235 0.038147 1.003866-50.769376 14.839474)" stroke-width="2.60007"/><path id="eTCc9M63lor44" d="M141.10124,264.59417l-1.79642,33.75331l94.01218-.17079-.32186-31.52449-90.58403.85335-1.30987-2.91138Z" transform="matrix(1 0 0 1.148752-.594563-41.158486)" stroke-width="2.67817"/><path id="eTCc9M63lor45" d="M373.84522,268.2136l-.3256,29.71512l88.13266.0817-.49029-30.36093-87.31677.56411Z" transform="matrix(1 0 0 1.084426 0-23.878201)" stroke-width="2.60007"/><path id="eTCc9M63lor46" d="M225.3119,298.51397l1.14521-31.97904l42.67225-41.01589l61.48219.80432l42.83691,41.50322.16457,29.39574-148.30113,1.29165Z" transform="matrix(1.068141 0 0 1.166279-20.000583-46.581815)" stroke-width="2.60007"/>
<script><![CDATA[
!function(t,n){"object"==typeof exports&&"undefined"!=typeof module?module.exports=n():"function"==typeof __SVGATOR_DEFINE__&&__SVGATOR_DEFINE__.amd?__SVGATOR_DEFINE__(n):((t="undefined"!=typeof globalThis?globalThis:t||self).__SVGATOR_PLAYER__=t.__SVGATOR_PLAYER__||{},t.__SVGATOR_PLAYER__["5c7f360c"]=n())}(this,(function(){"use strict";function t(t,n){var e=Object.keys(t);if(Object.getOwnPropertySymbols){var r=Object.getOwnPropertySymbols(t);n&&(r=r.filter((function(n){return Object.getOwnPropertyDescriptor(t,n).enumerable}))),e.push.apply(e,r)}return e}function n(n){for(var e=1;e<arguments.length;e++){var r=null!=arguments[e]?arguments[e]:{};e%2?t(Object(r),!0).forEach((function(t){u(n,t,r[t])})):Object.getOwnPropertyDescriptors?Object.defineProperties(n,Object.getOwnPropertyDescriptors(r)):t(Object(r)).forEach((function(t){Object.defineProperty(n,t,Object.getOwnPropertyDescriptor(r,t))}))}return n}function e(t){return(e="function"==typeof Symbol&&"symbol"==typeof Symbol.iterator?function(t){return typeof t}:function(t){return t&&"function"==typeof Symbol&&t.constructor===Symbol&&t!==Symbol.prototype?"symbol":typeof t})(t)}function r(t,n){if(!(t instanceof n))throw new TypeError("Cannot call a class as a function")}function i(t,n){for(var e=0;e<n.length;e++){var r=n[e];r.enumerable=r.enumerable||!1,r.configurable=!0,"value"in r&&(r.writable=!0),Object.defineProperty(t,r.key,r)}}function o(t,n,e){return n&&i(t.prototype,n),e&&i(t,e),t}function u(t,n,e){return n in t?Object.defineProperty(t,n,{value:e,enumerable:!0,configurable:!0,writable:!0}):t[n]=e,t}function a(t){return(a=Object.setPrototypeOf?Object.getPrototypeOf:function(t){return t.__proto__||Object.getPrototypeOf(t)})(t)}function l(t,n){return(l=Object.setPrototypeOf||function(t,n){return t.__proto__=n,t})(t,n)}function s(){if("undefined"==typeof Reflect||!Reflect.construct)return!1;if(Reflect.construct.sham)return!1;if("function"==typeof Proxy)return!0;try{return Boolean.prototype.valueOf.call(Reflect.construct(Boolean,[],(function(){}))),!0}catch(t){return!1}}function f(t,n,e){return(f=s()?Reflect.construct:function(t,n,e){var r=[null];r.push.apply(r,n);var i=new(Function.bind.apply(t,r));return e&&l(i,e.prototype),i}).apply(null,arguments)}function c(t,n){if(n&&("object"==typeof n||"function"==typeof n))return n;if(void 0!==n)throw new TypeError("Derived constructors may only return object or undefined");return function(t){if(void 0===t)throw new ReferenceError("this hasn't been initialised - super() hasn't been called");return t}(t)}function h(t,n,e){return(h="undefined"!=typeof Reflect&&Reflect.get?Reflect.get:function(t,n,e){var r=function(t,n){for(;!Object.prototype.hasOwnProperty.call(t,n)&&null!==(t=a(t)););return t}(t,n);if(r){var i=Object.getOwnPropertyDescriptor(r,n);return i.get?i.get.call(e):i.value}})(t,n,e||t)}function v(t){return function(t){if(Array.isArray(t))return y(t)}(t)||function(t){if("undefined"!=typeof Symbol&&null!=t[Symbol.iterator]||null!=t["@@iterator"])return Array.from(t)}(t)||function(t,n){if(!t)return;if("string"==typeof t)return y(t,n);var e=Object.prototype.toString.call(t).slice(8,-1);"Object"===e&&t.constructor&&(e=t.constructor.name);if("Map"===e||"Set"===e)return Array.from(t);if("Arguments"===e||/^(?:Ui|I)nt(?:8|16|32)(?:Clamped)?Array$/.test(e))return y(t,n)}(t)||function(){throw new TypeError("Invalid attempt to spread non-iterable instance.\nIn order to be iterable, non-array objects must have a [Symbol.iterator]() method.")}()}function y(t,n){(null==n||n>t.length)&&(n=t.length);for(var e=0,r=new Array(n);e<n;e++)r[e]=t[e];return r}function g(t,n,e){if(Number.isInteger(t))return t;var r=Math.pow(10,n);return Math[e]((+t+Number.EPSILON)*r)/r}Number.isInteger||(Number.isInteger=function(t){return"number"==typeof t&&isFinite(t)&&Math.floor(t)===t}),Number.EPSILON||(Number.EPSILON=2220446049250313e-31);var d=p(Math.pow(10,-6));function p(t){var n=arguments.length>1&&void 0!==arguments[1]?arguments[1]:6;return g(t,n,"round")}function m(t,n){var e=arguments.length>2&&void 0!==arguments[2]?arguments[2]:d;return Math.abs(t-n)<e}p(Math.pow(10,-2)),p(Math.pow(10,-4));var b=Math.PI/180;function w(t){return t}function A(t,n,e){var r=1-e;return 3*e*r*(t*r+n*e)+e*e*e}function _(){var t=arguments.length>0&&void 0!==arguments[0]?arguments[0]:0,n=arguments.length>1&&void 0!==arguments[1]?arguments[1]:0,e=arguments.length>2&&void 0!==arguments[2]?arguments[2]:1,r=arguments.length>3&&void 0!==arguments[3]?arguments[3]:1;return t<0||t>1||e<0||e>1?null:m(t,n)&&m(e,r)?w:function(i){if(i<=0)return t>0?i*n/t:0===n&&e>0?i*r/e:0;if(i>=1)return e<1?1+(i-1)*(r-1)/(e-1):1===e&&t<1?1+(i-1)*(n-1)/(t-1):1;for(var o,u=0,a=1;u<a;){var l=A(t,e,o=(u+a)/2);if(m(i,l))break;l<i?u=o:a=o}return A(n,r,o)}}function x(){return 1}function k(t){return 1===t?1:0}function S(){var t=arguments.length>0&&void 0!==arguments[0]?arguments[0]:1,n=arguments.length>1&&void 0!==arguments[1]?arguments[1]:0;if(1===t){if(0===n)return k;if(1===n)return x}var e=1/t;return function(t){return t>=1?1:(t+=n*e)-t%e}}var O=Math.sin,j=Math.cos,M=Math.acos,E=Math.asin,P=Math.tan,I=Math.atan2,R=Math.PI/180,F=180/Math.PI,N=Math.sqrt,T=function(){function t(){var n=arguments.length>0&&void 0!==arguments[0]?arguments[0]:1,e=arguments.length>1&&void 0!==arguments[1]?arguments[1]:0,i=arguments.length>2&&void 0!==arguments[2]?arguments[2]:0,o=arguments.length>3&&void 0!==arguments[3]?arguments[3]:1,u=arguments.length>4&&void 0!==arguments[4]?arguments[4]:0,a=arguments.length>5&&void 0!==arguments[5]?arguments[5]:0;r(this,t),this.m=[n,e,i,o,u,a],this.i=null,this.w=null,this.s=null}return o(t,[{key:"determinant",get:function(){var t=this.m;return t[0]*t[3]-t[1]*t[2]}},{key:"isIdentity",get:function(){if(null===this.i){var t=this.m;this.i=1===t[0]&&0===t[1]&&0===t[2]&&1===t[3]&&0===t[4]&&0===t[5]}return this.i}},{key:"point",value:function(t,n){var e=this.m;return{x:e[0]*t+e[2]*n+e[4],y:e[1]*t+e[3]*n+e[5]}}},{key:"translateSelf",value:function(){var t=arguments.length>0&&void 0!==arguments[0]?arguments[0]:0,n=arguments.length>1&&void 0!==arguments[1]?arguments[1]:0;if(!t&&!n)return this;var e=this.m;return e[4]+=e[0]*t+e[2]*n,e[5]+=e[1]*t+e[3]*n,this.w=this.s=this.i=null,this}},{key:"rotateSelf",value:function(){var t=arguments.length>0&&void 0!==arguments[0]?arguments[0]:0;if(t%=360){var n=O(t*=R),e=j(t),r=this.m,i=r[0],o=r[1];r[0]=i*e+r[2]*n,r[1]=o*e+r[3]*n,r[2]=r[2]*e-i*n,r[3]=r[3]*e-o*n,this.w=this.s=this.i=null}return this}},{key:"scaleSelf",value:function(){var t=arguments.length>0&&void 0!==arguments[0]?arguments[0]:1,n=arguments.length>1&&void 0!==arguments[1]?arguments[1]:1;if(1!==t||1!==n){var e=this.m;e[0]*=t,e[1]*=t,e[2]*=n,e[3]*=n,this.w=this.s=this.i=null}return this}},{key:"skewSelf",value:function(t,n){if(n%=360,(t%=360)||n){var e=this.m,r=e[0],i=e[1],o=e[2],u=e[3];t&&(t=P(t*R),e[2]+=r*t,e[3]+=i*t),n&&(n=P(n*R),e[0]+=o*n,e[1]+=u*n),this.w=this.s=this.i=null}return this}},{key:"resetSelf",value:function(){var t=arguments.length>0&&void 0!==arguments[0]?arguments[0]:1,n=arguments.length>1&&void 0!==arguments[1]?arguments[1]:0,e=arguments.length>2&&void 0!==arguments[2]?arguments[2]:0,r=arguments.length>3&&void 0!==arguments[3]?arguments[3]:1,i=arguments.length>4&&void 0!==arguments[4]?arguments[4]:0,o=arguments.length>5&&void 0!==arguments[5]?arguments[5]:0,u=this.m;return u[0]=t,u[1]=n,u[2]=e,u[3]=r,u[4]=i,u[5]=o,this.w=this.s=this.i=null,this}},{key:"recomposeSelf",value:function(){var t=arguments.length>0&&void 0!==arguments[0]?arguments[0]:null,n=arguments.length>1&&void 0!==arguments[1]?arguments[1]:null,e=arguments.length>2&&void 0!==arguments[2]?arguments[2]:null,r=arguments.length>3&&void 0!==arguments[3]?arguments[3]:null,i=arguments.length>4&&void 0!==arguments[4]?arguments[4]:null;return this.isIdentity||this.resetSelf(),t&&(t.x||t.y)&&this.translateSelf(t.x,t.y),n&&this.rotateSelf(n),e&&(e.x&&this.skewSelf(e.x,0),e.y&&this.skewSelf(0,e.y)),!r||1===r.x&&1===r.y||this.scaleSelf(r.x,r.y),i&&(i.x||i.y)&&this.translateSelf(i.x,i.y),this}},{key:"decompose",value:function(){var t=arguments.length>0&&void 0!==arguments[0]?arguments[0]:0,n=arguments.length>1&&void 0!==arguments[1]?arguments[1]:0,e=this.m,r=e[0]*e[0]+e[1]*e[1],i=[[e[0],e[1]],[e[2],e[3]]],o=N(r);if(0===o)return{origin:{x:p(e[4]),y:p(e[5])},translate:{x:p(t),y:p(n)},scale:{x:0,y:0},skew:{x:0,y:0},rotate:0};i[0][0]/=o,i[0][1]/=o;var u=e[0]*e[3]-e[1]*e[2]<0;u&&(o=-o);var a=i[0][0]*i[1][0]+i[0][1]*i[1][1];i[1][0]-=i[0][0]*a,i[1][1]-=i[0][1]*a;var l=N(i[1][0]*i[1][0]+i[1][1]*i[1][1]);if(0===l)return{origin:{x:p(e[4]),y:p(e[5])},translate:{x:p(t),y:p(n)},scale:{x:p(o),y:0},skew:{x:0,y:0},rotate:0};i[1][0]/=l,i[1][1]/=l,a/=l;var s=0;return i[1][1]<0?(s=M(i[1][1])*F,i[0][1]<0&&(s=360-s)):s=E(i[0][1])*F,u&&(s=-s),a=I(a,N(i[0][0]*i[0][0]+i[0][1]*i[0][1]))*F,u&&(a=-a),{origin:{x:p(e[4]),y:p(e[5])},translate:{x:p(t),y:p(n)},scale:{x:p(o),y:p(l)},skew:{x:p(a),y:0},rotate:p(s)}}},{key:"clone",value:function(){var t=this.m;return new this.constructor(t[0],t[1],t[2],t[3],t[4],t[5])}},{key:"toString",value:function(){var t=arguments.length>0&&void 0!==arguments[0]?arguments[0]:" ";if(null===this.s){var n=this.m.map((function(t){return p(t)}));1===n[0]&&0===n[1]&&0===n[2]&&1===n[3]?this.s="translate("+n[4]+t+n[5]+")":this.s="matrix("+n.join(t)+")"}return this.s}}],[{key:"create",value:function(t){return t?Array.isArray(t)?f(this,v(t)):t instanceof this?t.clone():(new this).recomposeSelf(t.origin,t.rotate,t.skew,t.scale,t.translate):new this}}]),t}();function q(t,n,e){return t>=.5?e:n}function B(t,n,e){return 0===t||n===e?n:t*(e-n)+n}function D(t,n,e){var r=B(t,n,e);return r<=0?0:r}function L(t,n,e){var r=B(t,n,e);return r<=0?0:r>=1?1:r}function C(t,n,e){return 0===t?n:1===t?e:{x:B(t,n.x,e.x),y:B(t,n.y,e.y)}}function V(t,n,e){var r=function(t,n,e){return Math.round(B(t,n,e))}(t,n,e);return r<=0?0:r>=255?255:r}function G(t,n,e){return 0===t?n:1===t?e:{r:V(t,n.r,e.r),g:V(t,n.g,e.g),b:V(t,n.b,e.b),a:B(t,null==n.a?1:n.a,null==e.a?1:e.a)}}function z(t,n){for(var e=[],r=0;r<t;r++)e.push(n);return e}function Y(t,n){if(--n<=0)return t;var e=(t=Object.assign([],t)).length;do{for(var r=0;r<e;r++)t.push(t[r])}while(--n>0);return t}var $,U=function(){function t(n){r(this,t),this.list=n,this.length=n.length}return o(t,[{key:"setAttribute",value:function(t,n){for(var e=this.list,r=0;r<this.length;r++)e[r].setAttribute(t,n)}},{key:"removeAttribute",value:function(t){for(var n=this.list,e=0;e<this.length;e++)n[e].removeAttribute(t)}},{key:"style",value:function(t,n){for(var e=this.list,r=0;r<this.length;r++)e[r].style[t]=n}}]),t}(),Q=/-./g,H=function(t,n){return n.toUpperCase()};function J(t){return"function"==typeof t?t:q}function Z(t){return t?"function"==typeof t?t:Array.isArray(t)?function(t){var n=arguments.length>1&&void 0!==arguments[1]?arguments[1]:w;if(!Array.isArray(t))return n;switch(t.length){case 1:return S(t[0])||n;case 2:return S(t[0],t[1])||n;case 4:return _(t[0],t[1],t[2],t[3])||n}return n}(t,null):function(t,n){var e=arguments.length>2&&void 0!==arguments[2]?arguments[2]:w;switch(t){case"linear":return w;case"steps":return S(n.steps||1,n.jump||0)||e;case"bezier":case"cubic-bezier":return _(n.x1||0,n.y1||0,n.x2||0,n.y2||0)||e}return e}(t.type,t.value,null):null}function K(t,n,e){var r=arguments.length>3&&void 0!==arguments[3]&&arguments[3],i=n.length-1;if(t<=n[0].t)return r?[0,0,n[0].v]:n[0].v;if(t>=n[i].t)return r?[i,1,n[i].v]:n[i].v;var o,u=n[0],a=null;for(o=1;o<=i;o++){if(!(t>n[o].t)){a=n[o];break}u=n[o]}return null==a?r?[i,1,n[i].v]:n[i].v:u.t===a.t?r?[o,1,a.v]:a.v:(t=(t-u.t)/(a.t-u.t),u.e&&(t=u.e(t)),r?[o,t,e(t,u.v,a.v)]:e(t,u.v,a.v))}function W(t,n){var e=arguments.length>2&&void 0!==arguments[2]?arguments[2]:null;return t&&t.length?"function"!=typeof n?null:("function"!=typeof e&&(e=null),function(r){var i=K(r,t,n);return null!=i&&e&&(i=e(i)),i}):null}function X(t,n){return t.t-n.t}function tt(t,n,r,i,o){var u,a="@"===r[0],l="#"===r[0],s=$[r],f=q;switch(a?(u=r.substr(1),r=u.replace(Q,H)):l&&(r=r.substr(1)),e(s)){case"function":if(f=s(i,o,K,Z,r,a,n,t),l)return f;break;case"string":f=W(i,J(s));break;case"object":if((f=W(i,J(s.i),s.f))&&"function"==typeof s.u)return s.u(n,f,r,a,t)}return f?function(t,n,e){if(arguments.length>3&&void 0!==arguments[3]&&arguments[3])return t instanceof U?function(r){return t.style(n,e(r))}:function(r){return t.style[n]=e(r)};if(Array.isArray(n)){var r=n.length;return function(i){var o=e(i);if(null==o)for(var u=0;u<r;u++)t[u].removeAttribute(n);else for(var a=0;a<r;a++)t[a].setAttribute(n,o)}}return function(r){var i=e(r);null==i?t.removeAttribute(n):t.setAttribute(n,i)}}(n,r,f,a):null}function nt(t,n,r,i){if(!i||"object"!==e(i))return null;var o=null,u=null;return Array.isArray(i)?u=function(t){if(!t||!t.length)return null;for(var n=0;n<t.length;n++)t[n].e&&(t[n].e=Z(t[n].e));return t.sort(X)}(i):(u=i.keys,o=i.data||null),u?tt(t,n,r,u,o):null}function et(t,n,e){if(!e)return null;var r=[];for(var i in e)if(e.hasOwnProperty(i)){var o=nt(t,n,i,e[i]);o&&r.push(o)}return r.length?r:null}function rt(t,n){if(!n.settings.duration||n.settings.duration<0)return null;var e,r,i,o,u,a=function(t,n){if(!n)return null;var e=[];if(Array.isArray(n))for(var r=n.length,i=0;i<r;i++){var o=n[i];if(2===o.length){var u=null;if("string"==typeof o[0])u=t.getElementById(o[0]);else if(Array.isArray(o[0])){u=[];for(var a=0;a<o[0].length;a++)if("string"==typeof o[0][a]){var l=t.getElementById(o[0][a]);l&&u.push(l)}u=u.length?1===u.length?u[0]:new U(u):null}if(u){var s=et(t,u,o[1]);s&&(e=e.concat(s))}}}else for(var f in n)if(n.hasOwnProperty(f)){var c=t.getElementById(f);if(c){var h=et(t,c,n[f]);h&&(e=e.concat(h))}}return e.length?e:null}(t,n.elements);return a?(e=a,r=n.settings,i=r.duration,o=e.length,u=null,function(t,n){var a=r.iterations||1/0,l=(r.alternate&&a%2==0)^r.direction>0?i:0,s=t%i,f=1+(t-s)/i;n*=r.direction,r.alternate&&f%2==0&&(n=-n);var c=!1;if(f>a)s=l,c=!0,-1===r.fill&&(s=r.direction>0?0:i);else if(n<0&&(s=i-s),s===u)return!1;u=s;for(var h=0;h<o;h++)e[h](s);return c}):null}function it(t,n){for(var e=n.querySelectorAll("svg"),r=0;r<e.length;r++)if(e[r].id===t.root&&!e[r].svgatorAnimation)return e[r].svgatorAnimation=!0,e[r];return null}function ot(t){var n=function(t){return t.shadowRoot};return document?Array.from(t.querySelectorAll(":not("+["a","area","audio","br","canvas","circle","datalist","embed","g","head","hr","iframe","img","input","link","object","path","polygon","rect","script","source","style","svg","title","track","video"].join()+")")).filter(n).map(n):[]}function ut(t){var n=arguments.length>1&&void 0!==arguments[1]?arguments[1]:document,e=arguments.length>2&&void 0!==arguments[2]?arguments[2]:0,r=it(t,n);if(r)return r;if(e>=20)return null;for(var i=ot(n),o=0;o<i.length;o++){var u=ut(t,i[o],e+1);if(u)return u}return null}function at(t,n){if($=n,!t||!t.root||!Array.isArray(t.animations))return null;var e=ut(t);if(!e)return null;var r=t.animations.map((function(t){return rt(e,t)})).filter((function(t){return!!t}));return r.length?{svg:e,animations:r,animationSettings:t.animationSettings,options:t.options||void 0}:null}function lt(t){var n=arguments.length>1&&void 0!==arguments[1]?arguments[1]:null,e=arguments.length>2&&void 0!==arguments[2]?arguments[2]:Number,r=arguments.length>3&&void 0!==arguments[3]?arguments[3]:"undefined"!=typeof BigInt&&BigInt,i="0x"+(t.replace(/[^0-9a-fA-F]+/g,"")||27);return n&&r&&e.isSafeInteger&&!e.isSafeInteger(+i)?e(r(i))%n+n:+i}function st(t,n,e){return!t||!e||n>t.length?t:t.substring(0,n)+st(t.substring(n+1),e,e)}function ft(t){var n=arguments.length>1&&void 0!==arguments[1]?arguments[1]:27;return!t||t%n?t%n:[0,1].includes(n)?n:ft(t/n,n)}function ct(t,n,e){if(t&&t.length){var r=lt(e),i=ft(r)+5,o=st(t,ft(r,5),i);return o=o.replace(/\x7c$/g,"==").replace(/\x2f$/g,"="),o=function(t,n,e){var r=+("0x"+t.substring(0,4));t=t.substring(4);for(var i=lt(n,r)%r+e%27,o=[],u=0;u<t.length;u+=2)if("|"!==t[u]){var a=+("0x"+t[u]+t[u+1])-i;o.push(a)}else{var l=+("0x"+t.substring(u+1,u+1+4))-i;u+=3,o.push(l)}return String.fromCharCode.apply(String,o)}(o=(o=atob(o)).replace(/[\x41-\x5A]/g,""),n,r),o=JSON.parse(o)}}var ht=[{key:"alternate",def:!1},{key:"fill",def:1},{key:"iterations",def:0},{key:"direction",def:1},{key:"speed",def:1},{key:"fps",def:100}],vt=function(){function t(n,e){var i=this,o=arguments.length>2&&void 0!==arguments[2]?arguments[2]:null;r(this,t),this._id=0,this._running=!1,this._rollingBack=!1,this._animations=n,this._settings=e,(!o||o<"2022-05-02")&&delete this._settings.speed,ht.forEach((function(t){i._settings[t.key]=i._settings[t.key]||t.def})),this.duration=e.duration,this.offset=e.offset||0,this.rollbackStartOffset=0}return o(t,[{key:"alternate",get:function(){return this._settings.alternate}},{key:"fill",get:function(){return this._settings.fill}},{key:"iterations",get:function(){return this._settings.iterations}},{key:"direction",get:function(){return this._settings.direction}},{key:"speed",get:function(){return this._settings.speed}},{key:"fps",get:function(){return this._settings.fps}},{key:"maxFiniteDuration",get:function(){return this.iterations>0?this.iterations*this.duration:this.duration}},{key:"_apply",value:function(t){for(var n=arguments.length>1&&void 0!==arguments[1]?arguments[1]:{},e=this._animations,r=e.length,i=0,o=0;o<r;o++)n[o]?i++:(n[o]=e[o](t,1),n[o]&&i++);return i}},{key:"_rollback",value:function(t){var n=this,e=1/0,r=null;this.rollbackStartOffset=t,this._rollingBack=!0,this._running=!0;this._id=window.requestAnimationFrame((function i(o){if(n._rollingBack){null==r&&(r=o);var u=Math.round(t-(o-r)*n.speed);if(u>n.duration&&e!==1/0){var a=!!n.alternate&&u/n.duration%2>1,l=u%n.duration;u=(l+=a?n.duration:0)||n.duration}var s=(n.fps?1e3/n.fps:0)*n.speed,f=Math.max(0,u);f<=e-s&&(n.offset=f,e=f,n._apply(f));var c=n.iterations>0&&-1===n.fill&&u>=n.maxFiniteDuration;(u<=0||n.offset<u||c)&&n.stop(),n._id=window.requestAnimationFrame(i)}}))}},{key:"_start",value:function(){var t=this,n=arguments.length>0&&void 0!==arguments[0]?arguments[0]:0,e=-1/0,r=null,i={};this._running=!0;var o=function o(u){null==r&&(r=u);var a=Math.round((u-r)*t.speed+n),l=(t.fps?1e3/t.fps:0)*t.speed;if(a>=e+l&&!t._rollingBack&&(t.offset=a,e=a,t._apply(a,i)===t._animations.length))return void t.pause(!0);t._id=window.requestAnimationFrame(o)};this._id=window.requestAnimationFrame(o)}},{key:"_pause",value:function(){this._id&&window.cancelAnimationFrame(this._id),this._running=!1}},{key:"play",value:function(){if(!this._running)return this._rollingBack?this._rollback(this.offset):this._start(this.offset)}},{key:"stop",value:function(){this._pause(),this.offset=0,this.rollbackStartOffset=0,this._rollingBack=!1,this._apply(0)}},{key:"reachedToEnd",value:function(){return this.iterations>0&&this.offset>=this.iterations*this.duration}},{key:"restart",value:function(){var t=arguments.length>0&&void 0!==arguments[0]&&arguments[0];this.stop(t),this.play(t)}},{key:"pause",value:function(){this._pause()}},{key:"reverse",value:function(){this.direction=-this.direction}}],[{key:"build",value:function(t,n){delete t.animationSettings,t.options=ct(t.options,t.root,"5c7f360c"),t.animations.map((function(n){n.settings=ct(n.s,t.root,"5c7f360c"),delete n.s,t.animationSettings||(t.animationSettings=n.settings)}));var e=t.version;if(!(t=at(t,n)))return null;var r=t.options||{},i=new this(t.animations,t.animationSettings,e);return{el:t.svg,options:r,player:i}}},{key:"push",value:function(t){return this.build(t)}},{key:"init",value:function(){var t=this,n=window.__SVGATOR_PLAYER__&&window.__SVGATOR_PLAYER__["5c7f360c"];Array.isArray(n)&&n.splice(0).forEach((function(n){return t.build(n)}))}}]),t}();function yt(t){return p(t)+""}function gt(t){var n=arguments.length>1&&void 0!==arguments[1]?arguments[1]:" ";return t&&t.length?t.map(yt).join(n):""}function dt(t){if(!t)return"transparent";if(null==t.a||t.a>=1){var n=function(t){return 1===(t=parseInt(t).toString(16)).length?"0"+t:t},e=function(t){return t.charAt(0)===t.charAt(1)},r=n(t.r),i=n(t.g),o=n(t.b);return e(r)&&e(i)&&e(o)&&(r=r.charAt(0),i=i.charAt(0),o=o.charAt(0)),"#"+r+i+o}return"rgba("+t.r+","+t.g+","+t.b+","+t.a+")"}function pt(t){return t?"url(#"+t+")":"none"}!function(){for(var t=0,n=["ms","moz","webkit","o"],e=0;e<n.length&&!window.requestAnimationFrame;++e)window.requestAnimationFrame=window[n[e]+"RequestAnimationFrame"],window.cancelAnimationFrame=window[n[e]+"CancelAnimationFrame"]||window[n[e]+"CancelRequestAnimationFrame"];window.requestAnimationFrame||(window.requestAnimationFrame=function(n){var e=Date.now(),r=Math.max(0,16-(e-t)),i=window.setTimeout((function(){n(e+r)}),r);return t=e+r,i},window.cancelAnimationFrame=window.clearTimeout)}();var mt={f:null,i:function(t,n,e){return 0===t?n:1===t?e:{x:D(t,n.x,e.x),y:D(t,n.y,e.y)}},u:function(t,n){return function(e){var r=n(e);t.setAttribute("rx",yt(r.x)),t.setAttribute("ry",yt(r.y))}}},bt={f:null,i:function(t,n,e){return 0===t?n:1===t?e:{width:D(t,n.width,e.width),height:D(t,n.height,e.height)}},u:function(t,n){return function(e){var r=n(e);t.setAttribute("width",yt(r.width)),t.setAttribute("height",yt(r.height))}}};Object.freeze({M:2,L:2,Z:0,H:1,V:1,C:6,Q:4,T:2,S:4,A:7});var wt={},At=null;function _t(t){var n=function(){if(At)return At;if("object"!==("undefined"==typeof document?"undefined":e(document))||!document.createElementNS)return{};var t=document.createElementNS("http://www.w3.org/2000/svg","svg");return t&&t.style?(t.style.position="absolute",t.style.opacity="0.01",t.style.zIndex="-9999",t.style.left="-9999px",t.style.width="1px",t.style.height="1px",At={svg:t}):{}}().svg;if(!n)return function(t){return null};var r=document.createElementNS(n.namespaceURI,"path");r.setAttributeNS(null,"d",t),r.setAttributeNS(null,"fill","none"),r.setAttributeNS(null,"stroke","none"),n.appendChild(r);var i=r.getTotalLength();return function(t){var n=r.getPointAtLength(i*t);return{x:n.x,y:n.y}}}function xt(t){return wt[t]?wt[t]:wt[t]=_t(t)}function kt(t,n,e,r){if(!t||!r)return!1;var i=["M",t.x,t.y];if(n&&e&&(i.push("C"),i.push(n.x),i.push(n.y),i.push(e.x),i.push(e.y)),n?!e:e){var o=n||e;i.push("Q"),i.push(o.x),i.push(o.y)}return n||e||i.push("L"),i.push(r.x),i.push(r.y),i.join(" ")}function St(t,n,e,r){var i=arguments.length>4&&void 0!==arguments[4]?arguments[4]:1,o=kt(t,n,e,r),u=xt(o);try{return u(i)}catch(t){return null}}function Ot(t,n,e){return t+(n-t)*e}function jt(t,n,e){var r=arguments.length>3&&void 0!==arguments[3]&&arguments[3],i={x:Ot(t.x,n.x,e),y:Ot(t.y,n.y,e)};return r&&(i.a=Mt(t,n)),i}function Mt(t,n){return Math.atan2(n.y-t.y,n.x-t.x)}function Et(t,n,e,r){var i=1-r;return i*i*t+2*i*r*n+r*r*e}function Pt(t,n,e,r){return 2*(1-r)*(n-t)+2*r*(e-n)}function It(t,n,e,r){var i=arguments.length>4&&void 0!==arguments[4]&&arguments[4],o=St(t,n,null,e,r);return o||(o={x:Et(t.x,n.x,e.x,r),y:Et(t.y,n.y,e.y,r)}),i&&(o.a=Rt(t,n,e,r)),o}function Rt(t,n,e,r){return Math.atan2(Pt(t.y,n.y,e.y,r),Pt(t.x,n.x,e.x,r))}function Ft(t,n,e,r,i){var o=i*i;return i*o*(r-t+3*(n-e))+3*o*(t+e-2*n)+3*i*(n-t)+t}function Nt(t,n,e,r,i){var o=1-i;return 3*(o*o*(n-t)+2*o*i*(e-n)+i*i*(r-e))}function Tt(t,n,e,r,i){var o=arguments.length>5&&void 0!==arguments[5]&&arguments[5],u=St(t,n,e,r,i);return u||(u={x:Ft(t.x,n.x,e.x,r.x,i),y:Ft(t.y,n.y,e.y,r.y,i)}),o&&(u.a=qt(t,n,e,r,i)),u}function qt(t,n,e,r,i){return Math.atan2(Nt(t.y,n.y,e.y,r.y,i),Nt(t.x,n.x,e.x,r.x,i))}function Bt(t,n,e){var r=arguments.length>3&&void 0!==arguments[3]&&arguments[3];if(Lt(n)){if(Ct(e))return It(n,e.start,e,t,r)}else if(Lt(e)){if(Vt(n))return It(n,n.end,e,t,r)}else{if(Vt(n))return Ct(e)?Tt(n,n.end,e.start,e,t,r):It(n,n.end,e,t,r);if(Ct(e))return It(n,e.start,e,t,r)}return jt(n,e,t,r)}function Dt(t,n,e){var r=Bt(t,n,e,!0);return r.a=function(t){return arguments.length>1&&void 0!==arguments[1]&&arguments[1]?t+Math.PI:t}(r.a)/b,r}function Lt(t){return!t.type||"corner"===t.type}function Ct(t){return null!=t.start&&!Lt(t)}function Vt(t){return null!=t.end&&!Lt(t)}var Gt=new T;var zt={f:yt,i:B},Yt={f:yt,i:L};function $t(t,n,e){return t.map((function(t){return function(t,n,e){var r=t.v;if(!r||"g"!==r.t||r.s||!r.v||!r.r)return t;var i=e.getElementById(r.r),o=i&&i.querySelectorAll("stop")||[];return r.s=r.v.map((function(t,n){var e=o[n]&&o[n].getAttribute("offset");return{c:t,o:e=p(parseInt(e)/100)}})),delete r.v,t}(t,0,e)}))}var Ut={gt:"gradientTransform",c:{x:"cx",y:"cy"},rd:"r",f:{x:"x1",y:"y1"},to:{x:"x2",y:"y2"}};function Qt(t,n,r,i,o,u,a,l){return $t(t,0,l),n=function(t,n,e){for(var r,i,o,u=t.length-1,a={},l=0;l<=u;l++)(r=t[l]).e&&(r.e=n(r.e)),r.v&&"g"===(i=r.v).t&&i.r&&(o=e.getElementById(i.r))&&(a[i.r]={e:o,s:o.querySelectorAll("stop")});return a}(t,i,l),function(i){var o=r(i,t,Ht);if(!o)return"none";if("c"===o.t)return dt(o.v);if("g"===o.t){if(!n[o.r])return pt(o.r);var u=n[o.r];return function(t,n){for(var e=t.s,r=e.length;r<n.length;r++){var i=e[e.length-1].cloneNode();i.id=Kt(i.id),t.e.appendChild(i),e=t.s=t.e.querySelectorAll("stop")}for(var o=0,u=e.length,a=n.length-1;o<u;o++)e[o].setAttribute("stop-color",dt(n[Math.min(o,a)].c)),e[o].setAttribute("offset",n[Math.min(o,a)].o)}(u,o.s),Object.keys(Ut).forEach((function(t){if(void 0!==o[t])if("object"!==e(Ut[t])){var n,r="gt"===t?(n=o[t],Array.isArray(n)?"matrix("+n.join(" ")+")":""):o[t],i=Ut[t];u.e.setAttribute(i,r)}else Object.keys(Ut[t]).forEach((function(n){if(void 0!==o[t][n]){var e=o[t][n],r=Ut[t][n];u.e.setAttribute(r,e)}}))})),pt(o.r)}return"none"}}function Ht(t,e,r){if(0===t)return e;if(1===t)return r;if(e&&r){var i=e.t;if(i===r.t)switch(e.t){case"c":return{t:i,v:G(t,e.v,r.v)};case"g":if(e.r===r.r){var o={t:i,s:Jt(t,e.s,r.s),r:e.r};return e.gt&&r.gt&&(o.gt=function(t,n,e){var r=n.length;if(r!==e.length)return q(t,n,e);for(var i=new Array(r),o=0;o<r;o++)i[o]=B(t,n[o],e[o]);return i}(t,e.gt,r.gt)),e.c?(o.c=C(t,e.c,r.c),o.rd=D(t,e.rd,r.rd)):e.f&&(o.f=C(t,e.f,r.f),o.to=C(t,e.to,r.to)),o}}if("c"===e.t&&"g"===r.t||"c"===r.t&&"g"===e.t){var u="c"===e.t?e:r,a="g"===e.t?n({},e):n({},r),l=a.s.map((function(t){return{c:u.v,o:t.o}}));return a.s="c"===e.t?Jt(t,l,a.s):Jt(t,a.s,l),a}}return q(t,e,r)}function Jt(t,n,e){if(n.length===e.length)return n.map((function(n,r){return Zt(t,n,e[r])}));for(var r=Math.max(n.length,e.length),i=[],o=0;o<r;o++){var u=Zt(t,n[Math.min(o,n.length-1)],e[Math.min(o,e.length-1)]);i.push(u)}return i}function Zt(t,n,e){return{o:L(t,n.o,e.o||0),c:G(t,n.c,e.c||{})}}function Kt(t){return t.replace(/-fill-([0-9]+)$/,(function(t,n){return"-fill-"+(+n+1)}))}var Wt={fill:Qt,"fill-opacity":Yt,stroke:Qt,"stroke-opacity":Yt,"stroke-width":zt,"stroke-dashoffset":{f:yt,i:B},"stroke-dasharray":{f:function(t){var n=arguments.length>1&&void 0!==arguments[1]?arguments[1]:" ";return t&&t.length>0&&(t=t.map((function(t){return p(t,4)}))),gt(t,n)},i:function(t,n,e){var r,i,o,u=n.length,a=e.length;if(u!==a)if(0===u)n=z(u=a,0);else if(0===a)a=u,e=z(u,0);else{var l=(o=(r=u)*(i=a)/function(t,n){for(var e;n;)e=n,n=t%n,t=e;return t||1}(r,i))<0?-o:o;n=Y(n,Math.floor(l/u)),e=Y(e,Math.floor(l/a)),u=a=l}for(var s=[],f=0;f<u;f++)s.push(p(D(t,n[f],e[f])));return s}},opacity:Yt,transform:function(t,n,r,i){if(!(t=function(t,n){if(!t||"object"!==e(t))return null;var r=!1;for(var i in t)t.hasOwnProperty(i)&&(t[i]&&t[i].length?(t[i].forEach((function(t){t.e&&(t.e=n(t.e))})),r=!0):delete t[i]);return r?t:null}(t,i)))return null;var o=function(e,i,o){var u=arguments.length>3&&void 0!==arguments[3]?arguments[3]:null;return t[e]?r(i,t[e],o):n&&n[e]?n[e]:u};return n&&n.a&&t.o?function(n){var e=r(n,t.o,Dt);return Gt.recomposeSelf(e,o("r",n,B,0)+e.a,o("k",n,C),o("s",n,C),o("t",n,C)).toString()}:function(t){return Gt.recomposeSelf(o("o",t,Bt,null),o("r",t,B,0),o("k",t,C),o("s",t,C),o("t",t,C)).toString()}},r:zt,"#size":bt,"#radius":mt,_:function(t,n){if(Array.isArray(t))for(var e=0;e<t.length;e++)this[t[e]]=n;else this[t]=n}},Xt=function(t){!function(t,n){if("function"!=typeof n&&null!==n)throw new TypeError("Super expression must either be null or a function");t.prototype=Object.create(n&&n.prototype,{constructor:{value:t,writable:!0,configurable:!0}}),n&&l(t,n)}(u,t);var n,e,i=(n=u,e=s(),function(){var t,r=a(n);if(e){var i=a(this).constructor;t=Reflect.construct(r,arguments,i)}else t=r.apply(this,arguments);return c(this,t)});function u(){return r(this,u),i.apply(this,arguments)}return o(u,null,[{key:"build",value:function(t){var n=h(a(u),"build",this).call(this,t,Wt);if(!n)return null;n.el,n.options,function(t,n,e){t.play()}(n.player)}}]),u}(vt);return Xt.init(),Xt}));
(function(s,i,o,w,d,a,b){w[o]=w[o]||{};w[o][s]=w[o][s]||[];w[o][s].push(i);})('5c7f360c',{"root":"eTCc9M63lor1","version":"2022-05-04","animations":[{"elements":{"eTCc9M63lor3":{"opacity":[{"t":200,"v":0},{"t":1000,"v":1}]},"eTCc9M63lor4":{"opacity":[{"t":200,"v":0.02},{"t":1000,"v":1}]},"eTCc9M63lor6":{"opacity":[{"t":200,"v":0},{"t":1000,"v":1}]},"eTCc9M63lor18":{"opacity":[{"t":200,"v":0},{"t":1000,"v":1}]},"eTCc9M63lor20":{"opacity":[{"t":200,"v":0},{"t":1000,"v":1}]},"eTCc9M63lor22":{"opacity":[{"t":0,"v":0},{"t":1000,"v":1}]},"eTCc9M63lor25":{"transform":{"data":{"t":{"x":-162.26284,"y":-431.057922}},"keys":{"o":[{"t":80,"v":{"x":-237.384713,"y":181.077575,"type":"corner"}},{"t":760,"v":{"x":162.367687,"y":430.688503,"type":"corner"}}]}}},"eTCc9M63lor26":{"transform":{"data":{"t":{"x":-299.628868,"y":-430.96431}},"keys":{"o":[{"t":80,"v":{"x":-73.109744,"y":187.157349,"type":"corner"}},{"t":2590,"v":{"x":299.672735,"y":430.582898,"type":"corner"}}]}}},"eTCc9M63lor27":{"transform":{"data":{"t":{"x":-437.169815,"y":-431.086349}},"keys":{"o":[{"t":1840,"v":{"x":741.141148,"y":430.769146,"type":"corner"}},{"t":2590,"v":{"x":439.032993,"y":431.15058,"type":"corner"}}]}}},"eTCc9M63lor28":{"opacity":[{"t":200,"v":0},{"t":1000,"v":1}]},"eTCc9M63lor36":{"opacity":[{"t":900,"v":1},{"t":1500,"v":0}]},"eTCc9M63lor37":{"opacity":[{"t":1200,"v":1},{"t":1800,"v":0}]},"eTCc9M63lor38":{"opacity":[{"t":1600,"v":1},{"t":2200,"v":0}]},"eTCc9M63lor39":{"opacity":[{"t":1200,"v":1},{"t":1800,"v":0}]},"eTCc9M63lor40":{"opacity":[{"t":2000,"v":1},{"t":2600,"v":0}]},"eTCc9M63lor41":{"opacity":[{"t":500,"v":1},{"t":1100,"v":0}]},"eTCc9M63lor42":{"opacity":[{"t":900,"v":1},{"t":1500,"v":0}]},"eTCc9M63lor43":{"opacity":[{"t":1600,"v":1},{"t":2200,"v":0}]},"eTCc9M63lor44":{"opacity":[{"t":500,"v":1},{"t":1100,"v":0}]},"eTCc9M63lor45":{"opacity":[{"t":2000,"v":1},{"t":2700,"v":0}]},"eTCc9M63lor46":{"opacity":[{"t":0,"v":1},{"t":600,"v":0}]}},"s":"MLDA1ZDljNDM4NTk2OTUM4Mjk1OGFYOTA4ZjQBzNWI1NDUxNTE1MTRkDNDNCODU4YTkzQTg2OKDQ5NThhOTBTOGY0MzGViNTI0ZDQzOGE5NTgR2VzkzODI5NThhOTA4DZlc5NDQzNWI1MjRkVXTQzODc4YThkOGQ0M0A41YjUyRjRkNDM4MjhXkOTU4NjkzOGZGODI5BNTg2NDM1Yjg3ODI4ZDDk0Uzg2NGQ0Mzk0OTRE4NkM4Njg1NDM1YkIO1Mk80ZDQzODc5MTk0KVDQzNWI1MjUxNTE5ZCQ|"}],"options":"MYDAxMDg4MmZHODA4MTNZlN2Y4MTJmNDcyZjcN5N2M2ZTcxMmY4YUY/Q"},'__SVGATOR_PLAYER__',window,document)
]]></script>
</svg>
